{
.appVersion = "3337";
.formatVersion = 3;
DisplayStrings = (
"Let us determine if this works as it is supposed to",
"1234567890",
s,
J,
e,
elo,
"ABCDEFGHIJKLMNOPQRSTUVWXYZ
abceqpfghmn . ijklmnopqrstuvwxyz"
);
axes = (
{
name = Weight;
tag = wght;
}
);
date = "2025-02-21 16:21:33 +0000";
familyName = "Lateinisch-ish";
featurePrefixes = (
{
automatic = 1;
code = "languagesystem DFLT dflt;

languagesystem latn dflt;
";
name = Languagesystems;
}
);
features = (
{
automatic = 1;
code = "sub K by K.ss01;
sub R by R.ss01;
";
labels = (
{
language = dflt;
value = "";
}
);
tag = ss01;
}
);
fontMaster = (
{
axesValues = (
0
);
iconName = Light;
id = m01;
metricValues = (
{
over = 16;
pos = 800;
},
{
over = 16;
pos = 752;
},
{
over = 11;
pos = 494;
},
{
over = -16;
},
{
over = -16;
pos = -254;
},
{
},
{
pos = 708;
}
);
name = Light;
userData = {
GSCornerRadius = 15;
GSExtrudeAngle = 30;
GSExtrudeOffset = 15;
GSOffsetHorizontal = 6;
GSOffsetVertical = 2;
};
},
{
axesValues = (
100
);
iconName = SemiLight;
id = m002;
metricValues = (
{
over = 16;
pos = 800;
},
{
over = 16;
pos = 752;
},
{
over = 11;
pos = 494;
},
{
over = -16;
},
{
over = -16;
pos = -254;
},
{
},
{
pos = 708;
}
);
name = Regular;
userData = {
GSCornerRadius = 15;
GSExtrudeAngle = 30;
GSExtrudeOffset = 15;
GSOffsetHorizontal = 2;
GSOffsetVertical = 7;
};
}
);
glyphs = (
{
glyphname = A;
lastChange = "2025-03-21 19:48:43 +0000";
layers = (
{
background = {
hints = (
{
name = _corner.rightBottomSerif;
origin = (0,0);
scale = (1,-1);
type = Corner;
},
{
name = _corner.leftBottomSerif;
options = 1;
origin = (0,1);
scale = (1,-1);
type = Corner;
},
{
name = _corner.leftBottomSerif;
origin = (0,21);
type = Corner;
},
{
name = _corner.rightBottomSerif;
options = 1;
origin = (0,22);
type = Corner;
}
);
shapes = (
{
closed = 1;
nodes = (
(570,0,l),
(660,0,l),
(444,661,ls),
(425,720,o),
(409,762,o),
(379,762,cs),
(355,762,o),
(352,742,o),
(335,729,cs),
(312,711,o),
(285,708,o),
(274,708,cs),
(264,708,o),
(259,702,o),
(259,695,cs),
(259,689,o),
(264,682,o),
(274,682,cs),
(313,682,o),
(318,665,o),
(312,649,cs),
(64,0,l),
(119,0,l),
(377,689,l),
(351,689,l)
);
},
{
closed = 1;
nodes = (
(193,242,l),
(506,242,l),
(506,281,l),
(193,281,l)
);
}
);
};
hints = (
{
name = _corner.leftBottomSerif;
origin = (0,21);
type = Corner;
},
{
name = _corner.rightBottomSerif;
options = 1;
origin = (0,0);
type = Corner;
},
{
name = _corner.rightBottomSerif;
origin = (0,3);
scale = (1,-1);
type = Corner;
},
{
name = _corner.leftBottomSerif;
options = 1;
origin = (0,4);
scale = (1,-1);
type = Corner;
}
);
layerId = m01;
shapes = (
{
closed = 1;
nodes = (
(112,0,l),
(370,689,l),
(344,689,l),
(563,0,l),
(649,0,l),
(433,661,ls),
(408,736,o),
(397,768,o),
(372,768,cs),
(351,768,o),
(311,718,o),
(267,705,cs),
(259,703,o),
(250,698,o),
(250,690,cs),
(250,681,o),
(257,674,o),
(271,674,cs),
(306,674,o),
(311,664,o),
(305,649,cs),
(57,0,l)
);
},
{
closed = 1;
nodes = (
(186,242,l),
(499,242,l),
(499,281,l),
(186,281,l)
);
}
);
width = 708;
},
{
background = {
hints = (
{
name = _corner.rightBottomSerif;
origin = (0,0);
scale = (1,-1);
type = Corner;
},
{
name = _corner.leftBottomSerif;
options = 1;
origin = (0,1);
scale = (1,-1);
type = Corner;
},
{
name = _corner.leftBottomSerif;
origin = (0,21);
type = Corner;
},
{
name = _corner.rightBottomSerif;
options = 1;
origin = (0,22);
type = Corner;
}
);
shapes = (
{
closed = 1;
nodes = (
(570,0,l),
(660,0,l),
(444,661,ls),
(425,720,o),
(409,762,o),
(379,762,cs),
(355,762,o),
(352,742,o),
(335,729,cs),
(312,711,o),
(285,708,o),
(274,708,cs),
(264,708,o),
(259,702,o),
(259,695,cs),
(259,689,o),
(264,682,o),
(274,682,cs),
(313,682,o),
(318,665,o),
(312,649,cs),
(64,0,l),
(119,0,l),
(377,689,l),
(351,689,l)
);
},
{
closed = 1;
nodes = (
(193,242,l),
(506,242,l),
(506,281,l),
(193,281,l)
);
}
);
};
hints = (
{
name = _corner.leftBottomSerif;
origin = (0,21);
type = Corner;
},
{
name = _corner.rightBottomSerif;
options = 1;
origin = (0,22);
type = Corner;
},
{
name = _corner.rightBottomSerif;
origin = (0,0);
scale = (1,-1);
type = Corner;
},
{
name = _corner.leftBottomSerif;
options = 1;
origin = (0,1);
scale = (1,-1);
type = Corner;
},
{
name = _corner.leftBottomSerif;
origin = (0,24);
type = Corner;
},
{
name = _corner.rightBottomSerif;
options = 1;
origin = (0,25);
type = Corner;
}
);
layerId = m002;
shapes = (
{
closed = 1;
nodes = (
(563,-7,l),
(654,-7,l),
(435,663,ls),
(409,741,o),
(393,769,o),
(372,769,cs),
(354,769,o),
(348,759,o),
(340,748,cs),
(337,744,o),
(335,741,o),
(327,735,cs),
(305,718,o),
(278,715,o),
(267,715,cs),
(255,715,o),
(250,705,o),
(250,695,cs),
(250,687,o),
(255,675,o),
(267,675,cs),
(303,675,o),
(308,664,o),
(303,651,cs),
(52,-7,l),
(112,-7,l),
(375,696,l),
(339,696,l)
);
},
{
closed = 1;
nodes = (
(184,235,l),
(501,235,l),
(501,288,l),
(184,288,l)
);
}
);
width = 708;
}
);
unicode = 65;
},
{
glyphname = B;
lastChange = "2025-03-21 18:40:02 +0000";
layers = (
{
backgroundImage = {
imagePath = "specimen-images/12pt-capB.jpg";
locked = 1;
pos = (23,-214);
scale = (10.7,10.7);
};
hints = (
{
name = _corner.leftBottomSerif;
origin = (0,15);
type = Corner;
},
{
name = _corner.leftBottomSerif;
options = 1;
origin = (0,14);
scale = (-1,1);
type = Corner;
}
);
layerId = m01;
shapes = (
{
closed = 1;
nodes = (
(358,0,ls),
(555,0,o),
(655,65,o),
(655,208,cs),
(655,323,o),
(566,387,o),
(450,408,c),
(450,404,l),
(536,427,o),
(605,493,o),
(605,584,cs),
(605,703,o),
(512,752,o),
(353,752,cs),
(119,752,l),
(119,0,l)
);
},
{
closed = 1;
nodes = (
(199,716,l),
(353,716,ls),
(463,716,o),
(523,695,o),
(523,590,cs),
(523,450,o),
(442,422,o),
(329,422,c),
(199,422,l)
);
},
{
closed = 1;
nodes = (
(199,386,l),
(358,386,ls),
(487,386,o),
(570,339,o),
(570,211,cs),
(570,53,o),
(487,36,o),
(358,36,cs),
(199,36,l)
);
}
);
width = 691;
},
{
backgroundImage = {
imagePath = "specimen-images/12pt-capB.jpg";
locked = 1;
pos = (23,-214);
scale = (10.7,10.7);
};
hints = (
{
name = _corner.leftBottomSerif;
origin = (0,14);
type = Corner;
},
{
name = _corner.leftBottomSerif;
options = 1;
origin = (0,13);
scale = (-1,1);
type = Corner;
}
);
layerId = m002;
shapes = (
{
closed = 1;
nodes = (
(358,-9,ls),
(520,-11,o),
(657,61,o),
(657,210,cs),
(657,324,o),
(578,386,o),
(476,411,c),
(548,439,o),
(607,503,o),
(607,589,cs),
(607,717,o),
(492,772,o),
(353,770,cs),
(117,767,l),
(117,-7,l)
);
},
{
closed = 1;
nodes = (
(201,715,l),
(201,718,l),
(353,721,ls),
(462,723,o),
(521,700,o),
(521,595,cs),
(521,461,o),
(442,433,o),
(329,434,cs),
(201,435,l)
);
},
{
closed = 1;
nodes = (
(201,44,l),
(201,384,l),
(358,386,ls),
(487,388,o),
(568,338,o),
(568,213,cs),
(568,60,o),
(487,41,o),
(358,41,cs),
(201,41,l)
);
}
);
width = 691;
}
);
unicode = 66;
},
{
glyphname = C;
lastChange = "2025-03-21 18:35:12 +0000";
layers = (
{
backgroundImage = {
imagePath = "specimen-images/12pt-capC.jpg";
locked = 1;
pos = (-3,-227);
scale = (10.7,10.7);
};
layerId = m01;
shapes = (
{
closed = 1;
nodes = (
(673,686,l),
(592,746,o),
(515,768,o),
(414,768,cs),
(212,768,o),
(38,602,o),
(38,377,cs),
(38,152,o),
(212,-14,o),
(414,-14,cs),
(515,-14,o),
(592,8,o),
(673,68,c),
(673,189,l),
(673,200,o),
(659,205,o),
(652,189,cs),
(601,74,o),
(518,26,o),
(404,26,cs),
(242,26,o),
(123,174,o),
(123,377,cs),
(123,580,o),
(242,728,o),
(404,728,cs),
(518,728,o),
(602,681,o),
(652,565,cs),
(659,549,o),
(673,556,o),
(673,565,c)
);
}
);
width = 708;
},
{
backgroundImage = {
imagePath = "specimen-images/12pt-capC.jpg";
locked = 1;
pos = (-3,-227);
scale = (10.7,10.7);
};
layerId = m002;
shapes = (
{
closed = 1;
nodes = (
(675,690,l),
(601,764,o),
(505,775,o),
(404,775,cs),
(202,775,o),
(36,607,o),
(36,377,cs),
(36,147,o),
(202,-21,o),
(404,-21,cs),
(505,-21,o),
(601,-10,o),
(675,64,c),
(675,189,ls),
(675,204,o),
(661,217,o),
(650,192,cs),
(601,82,o),
(518,33,o),
(404,33,cs),
(242,33,o),
(125,178,o),
(125,377,cs),
(125,576,o),
(242,721,o),
(404,721,cs),
(518,721,o),
(602,673,o),
(650,562,cs),
(661,537,o),
(675,552,o),
(675,565,cs)
);
}
);
width = 708;
}
);
metricLeft = "=O";
unicode = 67;
},
{
glyphname = D;
lastChange = "2025-03-21 19:54:34 +0000";
layers = (
{
backgroundImage = {
imagePath = "specimen-images/12pt-capD.jpg";
locked = 1;
pos = (30,-220);
scale = (10.7,10.7);
};
hints = (
{
name = _corner.leftBottomSerif;
origin = (0,0);
type = Corner;
},
{
name = _corner.leftBottomSerif;
options = 1;
origin = (0,8);
scale = (-1,1);
type = Corner;
}
);
layerId = m01;
shapes = (
{
closed = 1;
nodes = (
(119,0,l),
(397,0,ls),
(598,0,o),
(762,156,o),
(762,381,cs),
(762,596,o),
(598,752,o),
(397,752,cs),
(119,752,l)
);
},
{
closed = 1;
nodes = (
(199,716,l),
(397,716,ls),
(557,716,o),
(677,576,o),
(677,383,cs),
(677,130,o),
(557,36,o),
(397,36,cs),
(199,36,l)
);
}
);
width = 800;
},
{
backgroundImage = {
imagePath = "specimen-images/12pt-capD.jpg";
locked = 1;
pos = (31,-220);
scale = (10.7,10.7);
};
hints = (
{
name = _corner.leftBottomSerif;
origin = (0,0);
type = Corner;
},
{
name = _corner.leftBottomSerif;
options = 1;
origin = (0,8);
scale = (-1,1);
type = Corner;
}
);
layerId = m002;
shapes = (
{
closed = 1;
nodes = (
(118,-7,l),
(398,-10,ls),
(599,-14,o),
(765,151,o),
(765,381,cs),
(765,601,o),
(599,764,o),
(398,762,cs),
(118,759,l)
);
},
{
closed = 1;
nodes = (
(202,700,l),
(398,703,ls),
(558,705,o),
(676,572,o),
(676,383,cs),
(676,134,o),
(558,47,o),
(398,49,cs),
(202,51,l)
);
}
);
width = 801;
}
);
metricLeft = "=H";
metricRight = "=O";
unicode = 68;
},
{
glyphname = E;
lastChange = "2025-03-21 19:54:34 +0000";
layers = (
{
backgroundImage = {
imagePath = "specimen-images/12pt-capE.jpg";
locked = 1;
pos = (14,-219);
scale = (10.7,10.7);
};
hints = (
{
name = _corner.rightBottomSerif;
origin = (0,14);
type = Corner;
},
{
name = _corner.leftBottomSerif;
origin = (0,15);
type = Corner;
},
{
name = _corner.rightBottomSerif;
origin = (0,14);
type = Corner;
},
{
name = _corner.rightBottomSerif;
origin = (0,14);
type = Corner;
}
);
layerId = m01;
shapes = (
{
closed = 1;
nodes = (
(202,716,l),
(481,716,ls),
(511,716,o),
(548,688,o),
(596,627,cs),
(605,615,o),
(623,627,o),
(617,640,cs),
(602,673,o),
(593,707,o),
(586,744,cs),
(585,749,o),
(581,752,o),
(575,752,c),
(122,752,l),
(119,0,l),
(599,0,ls),
(605,0,o),
(609,3,o),
(610,8,cs),
(620,53,o),
(635,99,o),
(654,140,cs),
(660,153,o),
(642,165,o),
(633,153,cs),
(585,92,o),
(535,36,o),
(515,36,cs),
(199,36,l)
);
},
{
closed = 1;
nodes = (
(414,424,ls),
(469,424,o),
(488,397,o),
(488,361,cs),
(488,345,o),
(513,345,o),
(512,361,cs),
(510,397,o),
(510,488,o),
(512,524,cs),
(513,540,o),
(488,540,o),
(488,524,cs),
(488,488,o),
(469,460,o),
(414,460,cs),
(192,460,l),
(192,424,l)
);
}
);
width = 701;
},
{
backgroundImage = {
imagePath = "specimen-images/12pt-capE.jpg";
locked = 1;
pos = (13,-219);
scale = (10.7,10.7);
};
hints = (
{
name = _corner.rightBottomSerif;
origin = (0,14);
type = Corner;
},
{
name = _corner.leftBottomSerif;
origin = (0,15);
type = Corner;
},
{
name = _corner.rightBottomSerif;
origin = (0,14);
type = Corner;
},
{
name = _corner.rightBottomSerif;
origin = (0,14);
type = Corner;
}
);
layerId = m002;
shapes = (
{
closed = 1;
nodes = (
(204,711,l),
(480,708,ls),
(510,708,o),
(547,681,o),
(593,623,cs),
(609,602,o),
(624,630,o),
(618,643,cs),
(603,676,o),
(594,711,o),
(587,747,cs),
(585,756,o),
(581,761,o),
(574,761,cs),
(118,759,l),
(123,-7,l),
(598,-7,ls),
(606,-7,o),
(609,-2,o),
(611,7,cs),
(621,51,o),
(636,96,o),
(655,137,cs),
(661,150,o),
(646,178,o),
(630,157,cs),
(584,99,o),
(534,43,o),
(514,43,cs),
(201,39,l)
);
},
{
closed = 1;
nodes = (
(413,416,ls),
(467,416,o),
(485,392,o),
(485,361,cs),
(485,335,o),
(515,335,o),
(513,361,cs),
(511,397,o),
(511,488,o),
(513,524,cs),
(515,550,o),
(485,550,o),
(485,524,cs),
(485,493,o),
(467,469,o),
(413,469,cs),
(189,469,l),
(189,416,l)
);
}
);
width = 700;
}
);
metricLeft = "=H";
unicode = 69;
},
{
glyphname = F;
lastChange = "2025-03-21 18:45:12 +0000";
layers = (
{
backgroundImage = {
imagePath = "specimen-images/12pt-capF.jpg";
locked = 1;
pos = (23,-220);
scale = (10.7,10.7);
};
hints = (
{
name = _corner.leftBottomSerif;
origin = (0,15);
type = Corner;
},
{
name = _corner.rightBottomSerif;
origin = (0,16);
type = Corner;
},
{
name = _corner.rightBottomSerif;
origin = (0,14);
type = Corner;
}
);
layerId = m01;
shapes = (
{
closed = 1;
nodes = (
(200,716,l),
(478,716,ls),
(508,716,o),
(545,688,o),
(593,627,cs),
(602,615,o),
(620,627,o),
(614,640,cs),
(599,673,o),
(590,709,o),
(583,746,cs),
(582,751,o),
(578,752,o),
(572,752,c),
(120,752,l),
(120,0,l),
(200,0,l)
);
},
{
closed = 1;
nodes = (
(413,374,ls),
(468,374,o),
(487,347,o),
(487,311,cs),
(487,295,o),
(512,295,o),
(511,311,cs),
(509,347,o),
(509,438,o),
(511,474,cs),
(512,490,o),
(487,490,o),
(487,474,cs),
(487,438,o),
(468,410,o),
(413,410,cs),
(191,410,l),
(191,374,l)
);
}
);
width = 633;
},
{
backgroundImage = {
imagePath = "specimen-images/12pt-capF.jpg";
locked = 1;
pos = (23,-220);
scale = (10.7,10.7);
};
hints = (
{
name = _corner.leftBottomSerif;
origin = (0,15);
type = Corner;
},
{
name = _corner.rightBottomSerif;
origin = (0,16);
type = Corner;
},
{
name = _corner.rightBottomSerif;
origin = (0,14);
type = Corner;
}
);
layerId = m002;
shapes = (
{
closed = 1;
nodes = (
(202,706,l),
(478,702,ls),
(508,702,o),
(546,680,o),
(591,623,cs),
(607,602,o),
(622,630,o),
(616,643,cs),
(601,676,o),
(592,711,o),
(585,747,cs),
(583,757,o),
(580,759,o),
(572,759,cs),
(118,759,l),
(118,-7,l),
(202,-7,l)
);
},
{
closed = 1;
nodes = (
(413,366,ls),
(467,366,o),
(485,342,o),
(485,311,cs),
(485,285,o),
(515,285,o),
(513,311,cs),
(511,347,o),
(511,438,o),
(513,474,cs),
(515,500,o),
(485,500,o),
(485,474,cs),
(485,443,o),
(467,419,o),
(413,419,cs),
(189,419,l),
(189,366,l)
);
}
);
width = 633;
}
);
unicode = 70;
},
{
glyphname = G;
lastChange = "2025-03-21 18:49:52 +0000";
layers = (
{
backgroundImage = {
imagePath = "specimen-images/12pt-capG.jpg";
locked = 1;
pos = (-17,-223);
scale = (10.7,10.7);
};
hints = (
{
name = _corner.rightBottomSerif;
origin = (0,2);
type = Corner;
},
{
name = _corner.leftBottomSerif;
origin = (0,1);
type = Corner;
}
);
layerId = m01;
shapes = (
{
closed = 1;
nodes = (
(698,64,l),
(698,444,l),
(628,444,l),
(628,64,l)
);
},
{
closed = 1;
nodes = (
(38,152,o),
(222,-16,o),
(424,-16,cs),
(558,-16,o),
(660,33,o),
(717,77,cs),
(726,84,o),
(724,96,o),
(714,97,cs),
(686,99,o),
(681,118,o),
(658,128,c),
(623,82,o),
(561,19,o),
(424,19,cs),
(262,19,o),
(123,174,o),
(123,377,cs),
(123,580,o),
(253,733,o),
(415,733,cs),
(525,733,o),
(601,681,o),
(651,565,cs),
(658,549,o),
(673,556,o),
(673,565,cs),
(673,686,l),
(592,746,o),
(511,768,o),
(414,768,cs),
(212,768,o),
(38,602,o),
(38,377,cs)
);
}
);
width = 809;
},
{
backgroundImage = {
imagePath = "specimen-images/12pt-capG.jpg";
locked = 1;
pos = (-17,-223);
scale = (10.7,10.7);
};
hints = (
{
name = _corner.rightBottomSerif;
options = 1;
origin = (2,1);
scale = (1,-1);
type = Corner;
},
{
name = _corner.leftBottomSerif;
options = 1;
origin = (2,2);
scale = (-1,1);
type = Corner;
},
{
name = _corner.rightBottomSerif;
origin = (1,2);
type = Corner;
},
{
name = _corner.leftBottomSerif;
origin = (1,1);
type = Corner;
}
);
layerId = m002;
shapes = (
{
closed = 1;
nodes = (
(36,147,o),
(222,-21,o),
(424,-21,cs),
(558,-21,o),
(670,25,o),
(730,71,cs),
(740,79,o),
(738,103,o),
(726,104,cs),
(708,105,o),
(695,113,o),
(682,121,cs),
(674,126,o),
(665,132,o),
(658,135,c),
(626,92,o),
(564,28,o),
(424,28,cs),
(262,28,o),
(125,178,o),
(125,377,cs),
(125,576,o),
(253,726,o),
(415,726,cs),
(525,726,o),
(591,670,o),
(639,558,cs),
(650,533,o),
(665,548,o),
(665,561,cs),
(665,686,l),
(590,760,o),
(511,775,o),
(414,775,cs),
(212,775,o),
(36,607,o),
(36,377,cs)
);
},
{
closed = 1;
nodes = (
(700,57,l),
(700,451,l),
(626,451,l),
(626,57,l)
);
}
);
width = 809;
}
);
unicode = 71;
},
{
glyphname = H;
lastChange = "2025-03-21 18:51:18 +0000";
layers = (
{
backgroundImage = {
imagePath = "specimen-images/12pt-capH.jpg";
locked = 1;
pos = (24,-219);
scale = (10.7,10.7);
};
hints = (
{
name = _corner.leftBottomSerif;
origin = (0,0);
type = Corner;
},
{
name = _corner.rightBottomSerif;
origin = (0,1);
type = Corner;
},
{
name = _corner.leftBottomSerif;
origin = (1,0);
type = Corner;
},
{
name = _corner.rightBottomSerif;
origin = (1,1);
type = Corner;
},
{
name = _corner.leftBottomSerif;
origin = (0,0);
type = Corner;
},
{
name = _corner.leftBottomSerif;
options = 1;
origin = (0,3);
scale = (-1,1);
type = Corner;
},
{
name = _corner.rightBottomSerif;
options = 1;
origin = (0,2);
scale = (1,-1);
type = Corner;
},
{
name = _corner.leftBottomSerif;
options = 1;
origin = (1,0);
scale = (1,-1);
type = Corner;
},
{
name = _corner.leftBottomSerif;
options = 1;
origin = (1,3);
scale = (1,-1);
type = Corner;
},
{
name = _corner.rightBottomSerif;
options = 1;
origin = (1,2);
scale = (1,-1);
type = Corner;
}
);
layerId = m01;
shapes = (
{
closed = 1;
nodes = (
(119,0,l),
(199,0,l),
(199,752,l),
(119,752,l)
);
},
{
closed = 1;
nodes = (
(620,0,l),
(700,0,l),
(700,752,l),
(620,752,l)
);
},
{
closed = 1;
nodes = (
(183,424,l),
(643,424,l),
(643,460,l),
(183,460,l)
);
}
);
width = 820;
},
{
backgroundImage = {
imagePath = "specimen-images/12pt-capH.jpg";
locked = 1;
pos = (24,-219);
scale = (10.7,10.7);
};
hints = (
{
name = _corner.leftBottomSerif;
origin = (0,0);
type = Corner;
},
{
name = _corner.rightBottomSerif;
origin = (0,1);
type = Corner;
},
{
name = _corner.leftBottomSerif;
origin = (1,0);
type = Corner;
},
{
name = _corner.rightBottomSerif;
origin = (1,1);
type = Corner;
},
{
name = _corner.leftBottomSerif;
origin = (0,0);
type = Corner;
},
{
name = _corner.leftBottomSerif;
options = 1;
origin = (0,3);
scale = (-1,1);
type = Corner;
},
{
name = _corner.rightBottomSerif;
options = 1;
origin = (0,2);
scale = (1,-1);
type = Corner;
},
{
name = _corner.leftBottomSerif;
options = 1;
origin = (1,0);
scale = (1,-1);
type = Corner;
},
{
name = _corner.leftBottomSerif;
options = 1;
origin = (1,3);
scale = (1,-1);
type = Corner;
},
{
name = _corner.rightBottomSerif;
options = 1;
origin = (1,2);
scale = (1,-1);
type = Corner;
}
);
layerId = m002;
shapes = (
{
closed = 1;
nodes = (
(117,-7,l),
(201,-7,l),
(201,759,l),
(117,759,l)
);
},
{
closed = 1;
nodes = (
(618,-7,l),
(702,-7,l),
(702,759,l),
(618,759,l)
);
},
{
closed = 1;
nodes = (
(181,418,l),
(645,418,l),
(645,475,l),
(181,475,l)
);
}
);
width = 820;
}
);
unicode = 72;
},
{
glyphname = I;
lastChange = "2025-03-18 18:09:52 +0000";
layers = (
{
backgroundImage = {
imagePath = "specimen-images/12pt-capI.jpg";
locked = 1;
pos = (15,-223);
scale = (10.7,10.7);
};
hints = (
{
name = _corner.leftBottomSerif;
origin = (0,0);
type = Corner;
},
{
name = _corner.rightBottomSerif;
origin = (0,1);
type = Corner;
},
{
name = _corner.rightBottomSerif;
options = 1;
origin = (0,2);
scale = (1,-1);
type = Corner;
},
{
name = _corner.leftBottomSerif;
options = 1;
origin = (0,3);
scale = (-1,1);
type = Corner;
}
);
layerId = m01;
shapes = (
{
closed = 1;
nodes = (
(115,0,l),
(195,0,l),
(195,752,l),
(115,752,l)
);
}
);
width = 311;
},
{
backgroundImage = {
imagePath = "specimen-images/12pt-capI.jpg";
locked = 1;
pos = (15,-223);
scale = (10.7,10.7);
};
hints = (
{
name = _corner.leftBottomSerif;
origin = (0,0);
type = Corner;
},
{
name = _corner.rightBottomSerif;
origin = (0,1);
type = Corner;
},
{
name = _corner.rightBottomSerif;
options = 1;
origin = (0,2);
scale = (1,-1);
type = Corner;
},
{
name = _corner.leftBottomSerif;
options = 1;
origin = (0,3);
scale = (-1,1);
type = Corner;
}
);
layerId = m002;
shapes = (
{
closed = 1;
nodes = (
(113,-7,l),
(197,-7,l),
(197,759,l),
(113,759,l)
);
}
);
width = 311;
}
);
unicode = 73;
},
{
glyphname = J;
lastChange = "2025-03-21 18:57:21 +0000";
layers = (
{
backgroundImage = {
imagePath = "specimen-images/12pt-capJ.jpg";
locked = 1;
pos = (-23,-233);
scale = (10.7,10.7);
};
hints = (
{
name = _corner.rightBottomSerif;
options = 1;
origin = (0,22);
scale = (1,-1);
type = Corner;
},
{
name = _corner.leftBottomSerif;
options = 1;
origin = (0,23);
scale = (-1,1);
type = Corner;
}
);
layerId = m01;
shapes = (
{
closed = 1;
nodes = (
(273,160,ls),
(273,55,o),
(221,19,o),
(179,19,cs),
(146,19,o),
(101,24,o),
(93,70,c),
(93,82,o),
(101,90,o),
(101,103,cs),
(101,127,o),
(84,150,o),
(57,150,cs),
(26,150,o),
(9,127,o),
(13,102,c),
(30,28,o),
(82,-16,o),
(180,-16,cs),
(302,-16,o),
(353,52,o),
(353,162,cs),
(353,752,l),
(272,752,l)
);
}
);
width = 463;
},
{
backgroundImage = {
imagePath = "specimen-images/12pt-capJ.jpg";
locked = 1;
pos = (-23,-233);
scale = (10.7,10.7);
};
hints = (
{
name = _corner.rightBottomSerif;
options = 1;
origin = (0,22);
scale = (1,-1);
type = Corner;
},
{
name = _corner.leftBottomSerif;
options = 1;
origin = (0,23);
scale = (-1,1);
type = Corner;
},
{
name = _corner.rightBottomSerif;
origin = (0,26);
type = Corner;
},
{
name = _corner.leftBottomSerif;
origin = (0,25);
type = Corner;
}
);
layerId = m002;
shapes = (
{
closed = 1;
nodes = (
(271,160,ls),
(271,95,o),
(254,26,o),
(185,26,cs),
(113,26,o),
(95,57,o),
(95,78,cs),
(95,81,o),
(97,86,o),
(99,91,cs),
(101,96,o),
(103,103,o),
(103,111,cs),
(103,138,o),
(84,165,o),
(57,165,cs),
(25,165,o),
(11,139,o),
(11,110,cs),
(11,33,o),
(89,-23,o),
(185,-23,cs),
(288,-23,o),
(355,50,o),
(355,187,cs),
(355,759,l),
(270,759,l)
);
}
);
width = 463;
}
);
unicode = 74;
},
{
glyphname = K;
lastChange = "2025-03-21 18:59:39 +0000";
layers = (
{
backgroundImage = {
imagePath = "specimen-images/12pt-capK.jpg";
locked = 1;
pos = (-7,-220);
scale = (10.7,10.7);
};
hints = (
{
name = _corner.rightBottomSerif;
origin = (0,1);
scale = (1,-1);
type = Corner;
},
{
name = _corner.leftBottomSerif;
options = 1;
origin = (0,2);
scale = (-1,1);
type = Corner;
},
{
name = _corner.leftBottomSerif;
origin = (2,0);
type = Corner;
},
{
name = _corner.rightBottomSerif;
origin = (2,1);
type = Corner;
},
{
name = _corner.rightBottomSerif;
options = 1;
origin = (2,2);
scale = (1,-1);
type = Corner;
},
{
name = _corner.leftBottomSerif;
options = 1;
origin = (2,3);
scale = (-1,1);
type = Corner;
}
);
layerId = m01;
shapes = (
{
closed = 1;
nodes = (
(161,281,l),
(652,752,l),
(594,752,l),
(137,304,l)
);
},
{
closed = 1;
nodes = (
(747,-104,o),
(766,-79,o),
(736,-58,c),
(574,99,o),
(428,334,o),
(358,474,c),
(298,414,l),
(379,265,o),
(549,7,o),
(713,-85,cs)
);
},
{
closed = 1;
nodes = (
(115,0,l),
(195,0,l),
(195,752,l),
(115,752,l)
);
}
);
width = 709;
},
{
backgroundImage = {
imagePath = "specimen-images/12pt-capK.jpg";
locked = 1;
pos = (-7,-220);
scale = (10.7,10.7);
};
hints = (
{
name = _corner.rightBottomSerif;
origin = (0,1);
scale = (1,-1);
type = Corner;
},
{
name = _corner.leftBottomSerif;
options = 1;
origin = (0,2);
scale = (-1,1);
type = Corner;
},
{
name = _corner.leftBottomSerif;
origin = (2,0);
type = Corner;
},
{
name = _corner.rightBottomSerif;
origin = (2,1);
type = Corner;
},
{
name = _corner.rightBottomSerif;
options = 1;
origin = (2,2);
scale = (1,-1);
type = Corner;
},
{
name = _corner.leftBottomSerif;
options = 1;
origin = (2,3);
scale = (-1,1);
type = Corner;
}
);
layerId = m002;
shapes = (
{
closed = 1;
nodes = (
(161,275,l),
(666,759,l),
(583,759,l),
(126,298,l)
);
},
{
closed = 1;
nodes = (
(732,-108,o),
(741,-75,o),
(720,-59,c),
(575,91,o),
(424,341,o),
(356,478,c),
(293,416,l),
(375,264,o),
(554,-7,o),
(702,-91,cs)
);
},
{
closed = 1;
nodes = (
(113,-7,l),
(197,-7,l),
(197,759,l),
(113,759,l)
);
}
);
width = 709;
}
);
unicode = 75;
},
{
glyphname = L;
lastChange = "2025-03-18 18:09:52 +0000";
layers = (
{
backgroundImage = {
imagePath = "specimen-images/12pt-capL.jpg";
locked = 1;
pos = (26,-218);
scale = (10.7,10.7);
};
hints = (
{
name = _corner.rightBottomSerif;
origin = (0,15);
type = Corner;
},
{
name = _corner.rightBottomSerif;
origin = (0,15);
type = Corner;
},
{
name = _corner.leftBottomSerif;
origin = (0,17);
type = Corner;
},
{
name = _corner.leftBottomSerif;
origin = (0,14);
type = Corner;
}
);
layerId = m01;
shapes = (
{
closed = 1;
nodes = (
(554,0,ls),
(560,0,o),
(564,3,o),
(565,8,cs),
(575,53,o),
(590,99,o),
(609,140,cs),
(615,153,o),
(597,165,o),
(588,153,cs),
(540,92,o),
(490,48,o),
(470,48,cs),
(195,42,l),
(198,752,l),
(116,752,l),
(116,48,l),
(117,0,l)
);
}
);
width = 618;
},
{
backgroundImage = {
imagePath = "specimen-images/12pt-capL.jpg";
locked = 1;
pos = (26,-218);
scale = (10.7,10.7);
};
hints = (
{
name = _corner.rightBottomSerif;
origin = (0,15);
type = Corner;
},
{
name = _corner.rightBottomSerif;
origin = (0,15);
type = Corner;
},
{
name = _corner.leftBottomSerif;
origin = (0,17);
type = Corner;
},
{
name = _corner.leftBottomSerif;
origin = (0,14);
type = Corner;
}
);
layerId = m002;
shapes = (
{
closed = 1;
nodes = (
(554,-7,ls),
(562,-7,o),
(565,-2,o),
(567,7,cs),
(577,51,o),
(592,96,o),
(611,137,cs),
(617,150,o),
(602,178,o),
(586,157,cs),
(540,99,o),
(490,55,o),
(470,55,cs),
(197,49,l),
(200,759,l),
(114,759,l),
(114,48,l),
(115,-7,l)
);
}
);
width = 618;
}
);
unicode = 76;
},
{
glyphname = M;
lastChange = "2025-03-18 18:09:52 +0000";
layers = (
{
backgroundImage = {
imagePath = "specimen-images/12pt-capM.jpg";
locked = 1;
pos = (2,-220);
scale = (10.7,10.7);
};
hints = (
{
name = _corner.leftBottomSerif;
options = 1;
origin = (1,2);
scale = (1,-1);
type = Corner;
},
{
name = _corner.rightBottomSerif;
origin = (1,1);
scale = (-1,1);
type = Corner;
},
{
name = _corner.leftBottomSerif;
origin = (2,0);
type = Corner;
},
{
name = _corner.rightBottomSerif;
options = 1;
origin = (2,1);
type = Corner;
}
);
layerId = m01;
shapes = (
{
closed = 1;
nodes = (
(463,205,l),
(241,738,ls),
(238,746,o),
(232,750,o),
(223,750,cs),
(205,749,o),
(192,747,o),
(180,747,cs),
(149,747,o),
(131,752,o),
(92,752,cs),
(71,752,o),
(71,720,o),
(92,720,cs),
(131,720,o),
(171,712,o),
(177,697,cs),
(436,68,ls),
(439,60,o),
(445,56,o),
(452,56,cs),
(452,56,ls),
(459,56,o),
(464,60,o),
(467,68,cs),
(701,687,l),
(734,697,l),
(743,710,o),
(780,720,o),
(819,720,cs),
(840,720,o),
(840,752,o),
(819,752,cs),
(780,752,o),
(762,747,o),
(726,747,cs),
(715,747,o),
(697,750,o),
(683,750,cs),
(674,750,o),
(668,747,o),
(665,738,c)
);
},
{
closed = 1;
nodes = (
(667,742,l),
(765,0,l),
(843,0,l),
(745,742,l)
);
},
{
closed = 1;
nodes = (
(59,0,l),
(109,0,l),
(207,742,l),
(157,742,l)
);
}
);
width = 918;
},
{
backgroundImage = {
imagePath = "specimen-images/12pt-capM.jpg";
locked = 1;
pos = (2,-220);
scale = (10.7,10.7);
};
hints = (
{
name = _corner.leftBottomSerif;
options = 1;
origin = (1,2);
scale = (1,-1);
type = Corner;
},
{
name = _corner.rightBottomSerif;
origin = (1,1);
scale = (-1,1);
type = Corner;
},
{
name = _corner.leftBottomSerif;
origin = (2,0);
type = Corner;
},
{
name = _corner.rightBottomSerif;
options = 1;
origin = (2,1);
type = Corner;
}
);
layerId = m002;
shapes = (
{
closed = 1;
nodes = (
(463,212,l),
(243,741,ls),
(239,752,o),
(233,757,o),
(223,757,cs),
(216,757,o),
(209,756,o),
(202,755,cs),
(195,755,o),
(186,754,o),
(180,754,cs),
(166,754,o),
(153,755,o),
(141,756,cs),
(128,757,o),
(112,759,o),
(92,759,cs),
(69,759,o),
(68,713,o),
(92,713,cs),
(132,713,o),
(172,702,o),
(175,694,cs),
(434,65,ls),
(438,55,o),
(443,49,o),
(452,49,c),
(452,56,l),
(452,56,l),
(452,49,l),
(461,49,o),
(465,55,o),
(469,66,cs),
(701,680,l),
(735,690,l),
(732,698,o),
(774,713,o),
(819,713,cs),
(843,713,o),
(842,759,o),
(819,759,cs),
(800,759,o),
(785,758,o),
(770,756,cs),
(758,755,o),
(743,754,o),
(726,754,cs),
(721,754,o),
(714,755,o),
(707,755,cs),
(698,756,o),
(689,757,o),
(683,757,cs),
(673,757,o),
(667,752,o),
(663,740,cs)
);
},
{
closed = 1;
nodes = (
(664,749,l),
(764,-7,l),
(846,-7,l),
(746,749,l)
);
},
{
closed = 1;
nodes = (
(56,-7,l),
(110,-7,l),
(210,749,l),
(156,749,l)
);
}
);
width = 918;
}
);
unicode = 77;
},
{
glyphname = N;
lastChange = "2025-03-21 19:00:44 +0000";
layers = (
{
backgroundImage = {
imagePath = "specimen-images/10pt-capN.jpg";
locked = 1;
pos = (20,-334);
scale = (12.934,12.934);
};
hints = (
{
name = _corner.leftBottomSerif;
origin = (0,23);
type = Corner;
},
{
name = _corner.rightBottomSerif;
options = 1;
origin = (0,24);
type = Corner;
},
{
name = _corner.leftBottomSerif;
origin = (0,4);
type = Corner;
},
{
name = _corner.rightBottomSerif;
options = 1;
origin = (0,5);
type = Corner;
}
);
layerId = m01;
shapes = (
{
closed = 1;
nodes = (
(695,0,ls),
(704,0,o),
(710,6,o),
(710,15,cs),
(707,752,l),
(657,752,l),
(659,127,l),
(205,741,ls),
(200,748,o),
(195,750,o),
(186,750,cs),
(175,749,o),
(163,747,o),
(152,747,cs),
(116,747,o),
(98,752,o),
(59,752,cs),
(38,752,o),
(38,720,o),
(59,720,cs),
(90,720,o),
(120,714,o),
(135,705,c),
(138,0,l),
(188,0,l),
(185,641,l),
(653,9,ls),
(658,2,o),
(663,0,o),
(671,0,cs)
);
}
);
width = 822;
},
{
backgroundImage = {
imagePath = "specimen-images/10pt-capN.jpg";
locked = 1;
pos = (20,-334);
scale = (12.934,12.934);
};
hints = (
{
name = _corner.leftBottomSerif;
origin = (0,0);
type = Corner;
},
{
name = _corner.rightBottomSerif;
options = 1;
origin = (0,1);
type = Corner;
},
{
name = _corner.leftBottomSerif;
origin = (2,0);
type = Corner;
},
{
name = _corner.rightBottomSerif;
options = 1;
origin = (2,1);
type = Corner;
}
);
layerId = m002;
shapes = (
{
closed = 1;
nodes = (
(136,-7,l),
(190,-7,l),
(187,749,l),
(133,749,l)
);
},
{
closed = 1;
nodes = (
(662,130,l),
(198,757,l),
(191,757,o),
(183,756,o),
(175,755,cs),
(168,755,o),
(159,754,o),
(152,754,cs),
(135,754,o),
(120,755,o),
(108,756,cs),
(93,758,o),
(78,759,o),
(59,759,cs),
(36,759,o),
(35,713,o),
(59,713,cs),
(99,713,o),
(137,700,o),
(142,693,cs),
(662,-9,l)
);
},
{
closed = 1;
nodes = (
(709,759,l),
(655,759,l),
(658,-7,l),
(712,-7,l)
);
}
);
width = 822;
}
);
unicode = 78;
},
{
glyphname = O;
lastChange = "2025-03-18 18:09:52 +0000";
layers = (
{
backgroundImage = {
imagePath = "specimen-images/12pt-capO.jpg";
pos = (18970,817);
scale = (10.7,10.7);
};
layerId = m01;
shapes = (
{
closed = 1;
nodes = (
(684,174,o),
(565,26,o),
(404,26,cs),
(242,26,o),
(123,174,o),
(123,377,cs),
(123,580,o),
(242,728,o),
(404,728,cs),
(565,728,o),
(684,580,o),
(684,377,cs)
);
},
{
closed = 1;
nodes = (
(38,152,o),
(202,-14,o),
(404,-14,cs),
(605,-14,o),
(769,152,o),
(769,377,cs),
(769,602,o),
(605,768,o),
(404,768,cs),
(202,768,o),
(38,602,o),
(38,377,cs)
);
},
{
closed = 1;
nodes = (
(684,174,o),
(565,26,o),
(404,26,cs),
(242,26,o),
(123,174,o),
(123,377,cs),
(123,580,o),
(242,728,o),
(404,728,cs),
(565,728,o),
(684,580,o),
(684,377,cs)
);
},
{
closed = 1;
nodes = (
(38,152,o),
(202,-14,o),
(404,-14,cs),
(605,-14,o),
(769,152,o),
(769,377,cs),
(769,602,o),
(605,768,o),
(404,768,cs),
(202,768,o),
(38,602,o),
(38,377,cs)
);
}
);
width = 807;
},
{
backgroundImage = {
imagePath = "specimen-images/12pt-capO.jpg";
pos = (18970,817);
scale = (10.7,10.7);
};
layerId = m002;
shapes = (
{
closed = 1;
nodes = (
(682,178,o),
(565,33,o),
(404,33,cs),
(242,33,o),
(125,178,o),
(125,377,cs),
(125,576,o),
(242,721,o),
(404,721,cs),
(565,721,o),
(682,576,o),
(682,377,cs)
);
},
{
closed = 1;
nodes = (
(36,147,o),
(202,-21,o),
(404,-21,cs),
(605,-21,o),
(771,147,o),
(771,377,cs),
(771,607,o),
(605,775,o),
(404,775,cs),
(202,775,o),
(36,607,o),
(36,377,cs)
);
},
{
closed = 1;
nodes = (
(682,178,o),
(565,33,o),
(404,33,cs),
(242,33,o),
(125,178,o),
(125,377,cs),
(125,576,o),
(242,721,o),
(404,721,cs),
(565,721,o),
(682,576,o),
(682,377,cs)
);
},
{
closed = 1;
nodes = (
(36,147,o),
(202,-21,o),
(404,-21,cs),
(605,-21,o),
(771,147,o),
(771,377,cs),
(771,607,o),
(605,775,o),
(404,775,cs),
(202,775,o),
(36,607,o),
(36,377,cs)
);
}
);
width = 807;
}
);
metricRight = "=|";
unicode = 79;
},
{
glyphname = P;
lastChange = "2025-03-21 19:48:08 +0000";
layers = (
{
backgroundImage = {
imagePath = "specimen-images/12pt-capP.jpg";
locked = 1;
pos = (1,-219);
scale = (10.7,10.7);
};
hints = (
{
name = _corner.leftBottomSerif;
options = 1;
origin = (0,29);
scale = (-1,1);
type = Corner;
}
);
layerId = m01;
shapes = (
{
closed = 1;
nodes = (
(97,-3,o),
(121,2,o),
(156,2,cs),
(192,2,o),
(234,-3,o),
(273,-3,c),
(294,-3,o),
(294,29,o),
(273,29,cs),
(234,29,o),
(196,25,o),
(196,81,c),
(196,716,l),
(350,716,ls),
(461,716,o),
(537,653,o),
(537,527,c),
(537,401,o),
(451,347,o),
(370,347,cs),
(187,347,l),
(187,311,l),
(370,311,ls),
(491,311,o),
(609,380,o),
(609,527,c),
(609,674,o),
(491,752,o),
(350,752,cs),
(116,752,l),
(116,80,l),
(114,34,o),
(97,29,o),
(58,29,c),
(38,29,o),
(38,-3,o),
(58,-3,c)
);
}
);
width = 642;
},
{
backgroundImage = {
imagePath = "specimen-images/12pt-capP.jpg";
locked = 1;
pos = (1,-219);
scale = (10.7,10.7);
};
hints = (
{
name = _corner.leftBottomSerif;
options = 1;
origin = (0,12);
scale = (-1,1);
type = Corner;
}
);
layerId = m002;
shapes = (
{
closed = 1;
nodes = (
(535,407,o),
(451,353,o),
(370,353,cs),
(185,353,l),
(185,304,l),
(370,304,ls),
(491,304,o),
(611,374,o),
(611,527,cs),
(611,680,o),
(491,761,o),
(350,760,cs),
(114,758,l),
(115,80,l),
(113,40,o),
(98,36,o),
(59,36,cs),
(36,36,o),
(37,-10,o),
(59,-10,cs),
(78,-10,o),
(95,-9,o),
(111,-7,cs),
(125,-6,o),
(140,-5,o),
(156,-5,cs),
(173,-5,o),
(193,-6,o),
(212,-7,cs),
(233,-9,o),
(254,-10,o),
(273,-10,cs),
(296,-10,o),
(297,36,o),
(273,36,cs),
(235,36,o),
(198,33,o),
(198,81,cs),
(198,709,l),
(350,711,ls),
(461,712,o),
(535,648,o),
(535,527,cs)
);
}
);
width = 642;
}
);
unicode = 80;
},
{
glyphname = Q;
lastChange = "2025-03-21 19:01:10 +0000";
layers = (
{
backgroundImage = {
imagePath = "specimen-images/12pt-capQ.jpg";
locked = 1;
pos = (16,-215);
scale = (10.7,10.7);
};
layerId = m01;
shapes = (
{
closed = 1;
nodes = (
(610,-14,o),
(774,152,o),
(774,377,cs),
(774,602,o),
(610,768,o),
(409,768,cs),
(207,768,o),
(43,602,o),
(43,377,cs),
(43,152,o),
(207,-14,o),
(409,-14,cs)
);
},
{
closed = 1;
nodes = (
(691,-181,o),
(730,-158,o),
(757,-113,cs),
(764,-100,o),
(753,-89,o),
(743,-99,cs),
(721,-121,o),
(698,-134,o),
(656,-134,cs),
(597,-134,o),
(564,-78,o),
(522,-9,cs),
(463,88,o),
(462,141,o),
(321,141,cs),
(306,141,o),
(306,123,o),
(321,123,cs),
(412,123,o),
(411,49,o),
(459,-34,cs),
(515,-131,o),
(577,-181,o),
(642,-181,cs)
);
},
{
closed = 1;
nodes = (
(247,26,o),
(128,174,o),
(128,377,cs),
(128,580,o),
(247,728,o),
(409,728,cs),
(570,728,o),
(689,580,o),
(689,377,cs),
(689,174,o),
(570,26,o),
(409,26,cs)
);
}
);
width = 817;
},
{
backgroundImage = {
imagePath = "specimen-images/12pt-capQ.jpg";
locked = 1;
pos = (16,-215);
scale = (10.7,10.7);
};
layerId = m002;
shapes = (
{
closed = 1;
nodes = (
(610,-21,o),
(776,147,o),
(776,377,cs),
(776,607,o),
(610,775,o),
(409,775,cs),
(207,775,o),
(41,607,o),
(41,377,cs),
(41,147,o),
(207,-21,o),
(409,-21,cs)
);
},
{
closed = 1;
nodes = (
(689,-202,o),
(727,-180,o),
(757,-130,cs),
(766,-113,o),
(757,-102,o),
(743,-116,cs),
(723,-136,o),
(696,-141,o),
(654,-141,cs),
(595,-141,o),
(563,-87,o),
(522,-19,cs),
(511,-1,o),
(503,12,o),
(496,25,cs),
(458,94,o),
(437,134,o),
(319,134,cs),
(302,134,o),
(302,112,o),
(319,112,cs),
(385,112,o),
(402,65,o),
(425,12,cs),
(433,-6,o),
(443,-31,o),
(455,-52,cs),
(513,-152,o),
(575,-202,o),
(640,-202,cs)
);
},
{
closed = 1;
nodes = (
(247,33,o),
(130,178,o),
(130,377,cs),
(130,576,o),
(247,721,o),
(409,721,cs),
(570,721,o),
(687,576,o),
(687,377,cs),
(687,178,o),
(570,33,o),
(409,33,cs)
);
}
);
width = 817;
}
);
unicode = 81;
},
{
glyphname = R;
lastChange = "2025-03-21 19:03:21 +0000";
layers = (
{
backgroundImage = {
imagePath = "specimen-images/12pt-capR.jpg";
locked = 1;
pos = (11,-223);
scale = (10.7,10.7);
};
hints = (
{
name = _corner.leftBottomSerif;
options = 1;
origin = (0,17);
scale = (-1,1);
type = Corner;
},
{
name = _corner.leftBottomSerif;
origin = (0,18);
type = Corner;
},
{
name = _corner.rightBottomSerif;
origin = (0,19);
type = Corner;
}
);
layerId = m01;
shapes = (
{
closed = 1;
nodes = (
(196,721,l),
(350,721,ls),
(461,721,o),
(537,657,o),
(537,531,cs),
(537,405,o),
(451,367,o),
(370,367,cs),
(187,367,l),
(187,331,l),
(370,331,ls),
(491,331,o),
(609,394,o),
(609,531,cs),
(609,678,o),
(491,752,o),
(350,752,cs),
(116,752,l),
(116,0,l),
(196,0,l)
);
},
{
closed = 1;
nodes = (
(333,352,l),
(422,202,o),
(570,-5,o),
(713,-85,cs),
(747,-104,o),
(766,-79,o),
(736,-58,c),
(613,61,o),
(500,224,o),
(422,358,c)
);
}
);
width = 664;
},
{
backgroundImage = {
imagePath = "specimen-images/12pt-capR.jpg";
locked = 1;
pos = (11,-223);
scale = (10.7,10.7);
};
hints = (
{
name = _corner.leftBottomSerif;
options = 1;
origin = (0,17);
scale = (-1,1);
type = Corner;
},
{
name = _corner.leftBottomSerif;
origin = (0,18);
type = Corner;
},
{
name = _corner.rightBottomSerif;
origin = (0,19);
type = Corner;
}
);
layerId = m002;
shapes = (
{
closed = 1;
nodes = (
(198,722,l),
(350,724,ls),
(461,725,o),
(535,658,o),
(535,537,cs),
(535,417,o),
(451,370,o),
(370,372,cs),
(185,375,l),
(185,324,l),
(370,324,ls),
(491,324,o),
(611,394,o),
(611,537,cs),
(611,690,o),
(491,770,o),
(350,769,cs),
(114,767,l),
(114,-7,l),
(198,-7,l)
);
},
{
closed = 1;
nodes = (
(297,356,l),
(388,201,o),
(544,-18,o),
(672,-91,cs),
(702,-108,o),
(711,-75,o),
(690,-59,c),
(582,53,o),
(470,221,o),
(393,356,c)
);
}
);
width = 664;
}
);
unicode = 82;
},
{
glyphname = S;
lastChange = "2025-03-21 19:50:47 +0000";
layers = (
{
background = {
shapes = (
{
closed = 1;
nodes = (
(400,272,o),
(257,349,cs),
(194,383,ls),
(111,428,o),
(24,493,o),
(24,597,cs),
(24,696,o),
(144,768,o),
(266,768,cs),
(352,768,o),
(442,728,o),
(474,711,c),
(474,576,ls),
(474,562,o),
(468,558,o),
(461,558,cs),
(454,558,o),
(448,562,o),
(444,573,cs),
(401,679,o),
(370,728,o),
(266,728,cs),
(156,728,o),
(98,684,o),
(98,601,cs),
(98,550,o),
(146,504,o),
(233,457,cs),
(296,423,ls),
(371,383,o),
(514,325,o),
(514,196,cs),
(514,40,o),
(364,-16,o),
(251,-16,cs),
(144,-16,o),
(54,24,o),
(18,43,c),
(18,188,ls),
(18,202,o),
(29,208,o),
(39,208,cs),
(45,208,o),
(52,205,o),
(54,200,cs),
(101,73,o),
(156,24,o),
(251,24,cs),
(365,24,o),
(451,81,o),
(451,167,cs),
(451,252,o)
);
}
);
};
backgroundImage = {
imagePath = "specimen-images/12pt-capS.jpg";
locked = 1;
pos = (-2,-223);
scale = (10.7,10.7);
};
layerId = m01;
shapes = (
{
closed = 1;
nodes = (
(349,314,o),
(277,346,cs),
(194,383,ls),
(108,421,o),
(24,502,o),
(24,597,cs),
(24,707,o),
(144,768,o),
(266,768,cs),
(364,768,o),
(442,728,o),
(474,711,c),
(474,576,ls),
(474,562,o),
(468,558,o),
(461,558,cs),
(454,558,o),
(448,562,o),
(444,573,cs),
(401,679,o),
(380,728,o),
(266,728,cs),
(156,728,o),
(98,684,o),
(98,601,cs),
(98,530,o),
(138,499,o),
(233,457,cs),
(316,420,ls),
(394,385,o),
(514,310,o),
(514,186,cs),
(514,15,o),
(364,-16,o),
(251,-16,cs),
(144,-16,o),
(54,24,o),
(18,43,c),
(18,188,ls),
(18,202,o),
(29,208,o),
(39,208,cs),
(45,208,o),
(53,205,o),
(54,200,cs),
(87,63,o),
(176,24,o),
(251,24,cs),
(348,24,o),
(451,75,o),
(451,167,cs),
(451,272,o)
);
}
);
width = 523;
},
{
background = {
shapes = (
{
closed = 1;
nodes = (
(169,409,o),
(31,467,o),
(31,573,cs),
(31,696,o),
(151,768,o),
(273,768,cs),
(359,768,o),
(451,728,o),
(483,711,c),
(483,576,ls),
(483,562,o),
(479,558,o),
(472,558,cs),
(465,558,o),
(461,562,o),
(457,573,cs),
(417,672,o),
(340,733,o),
(273,733,cs),
(172,733,o),
(105,663,o),
(105,591,cs),
(105,528,o),
(173,503,o),
(291,434,cs),
(396,373,o),
(512,324,o),
(512,201,cs),
(512,45,o),
(371,-16,o),
(258,-16,cs),
(151,-16,o),
(61,24,o),
(25,43,c),
(25,188,ls),
(25,202,o),
(36,208,o),
(46,208,cs),
(52,208,o),
(59,205,o),
(61,200,cs),
(105,81,o),
(112,24,o),
(258,24,cs),
(351,24,o),
(449,74,o),
(449,172,cs),
(449,263,o),
(315,332,o),
(263,359,c)
);
}
);
};
backgroundImage = {
imagePath = "specimen-images/12pt-capS.jpg";
locked = 1;
pos = (-2,-223);
scale = (10.7,10.7);
};
layerId = m002;
shapes = (
{
closed = 1;
nodes = (
(52,18,o),
(144,-23,o),
(251,-23,cs),
(364,-23,o),
(512,39,o),
(512,201,cs),
(512,325,o),
(368,397,o),
(297,432,cs),
(234,463,ls),
(137,511,o),
(100,547,o),
(100,591,cs),
(100,674,o),
(162,726,o),
(266,726,cs),
(370,726,o),
(400,673,o),
(442,570,cs),
(447,556,o),
(454,551,o),
(461,551,cs),
(468,551,o),
(476,557,o),
(476,576,cs),
(476,717,l),
(444,734,o),
(352,775,o),
(266,775,cs),
(144,775,o),
(22,702,o),
(22,573,cs),
(22,483,o),
(114,420,o),
(197,379,cs),
(260,348,ls),
(331,313,o),
(445,256,o),
(445,172,cs),
(445,80,o),
(344,31,o),
(251,31,cs),
(156,31,o),
(102,79,o),
(56,203,cs),
(53,210,o),
(47,215,o),
(39,215,cs),
(29,215,o),
(16,208,o),
(16,188,cs),
(16,37,l)
);
}
);
width = 523;
}
);
unicode = 83;
},
{
glyphname = T;
lastChange = "2025-03-18 18:09:52 +0000";
layers = (
{
backgroundImage = {
imagePath = "specimen-images/10pt-capT.jpg";
locked = 1;
pos = (-22,-343);
scale = (12.84,12.84);
};
hints = (
{
name = _corner.leftBottomSerif;
origin = (0,27);
type = Corner;
},
{
name = _corner.rightBottomSerif;
options = 1;
origin = (0,28);
type = Corner;
}
);
layerId = m01;
shapes = (
{
closed = 1;
nodes = (
(454,718,ls),
(484,718,o),
(521,688,o),
(569,627,cs),
(578,615,o),
(596,627,o),
(590,640,cs),
(575,673,o),
(566,709,o),
(559,746,cs),
(558,751,o),
(554,754,o),
(548,754,c),
(56,754,l),
(50,754,o),
(46,751,o),
(45,746,cs),
(38,709,o),
(29,673,o),
(14,640,cs),
(8,627,o),
(26,615,o),
(35,627,cs),
(83,688,o),
(120,718,o),
(150,718,cs),
(262,718,l),
(262,0,l),
(342,0,l),
(342,718,l)
);
}
);
width = 604;
},
{
backgroundImage = {
imagePath = "specimen-images/10pt-capT.jpg";
locked = 1;
pos = (-22,-343);
scale = (12.84,12.84);
};
hints = (
{
name = _corner.leftBottomSerif;
origin = (0,27);
type = Corner;
},
{
name = _corner.rightBottomSerif;
options = 1;
origin = (0,28);
type = Corner;
}
);
layerId = m002;
shapes = (
{
closed = 1;
nodes = (
(454,711,ls),
(485,711,o),
(521,681,o),
(567,623,cs),
(583,602,o),
(598,630,o),
(592,643,cs),
(577,676,o),
(568,711,o),
(561,747,cs),
(559,756,o),
(556,761,o),
(548,761,cs),
(56,761,ls),
(48,761,o),
(45,756,o),
(43,747,cs),
(36,711,o),
(27,676,o),
(12,643,cs),
(6,630,o),
(21,602,o),
(37,623,cs),
(83,681,o),
(119,711,o),
(150,711,cs),
(260,711,l),
(260,-7,l),
(344,-7,l),
(344,711,l)
);
}
);
width = 604;
}
);
unicode = 84;
},
{
glyphname = U;
lastChange = "2025-03-21 19:33:43 +0000";
layers = (
{
backgroundImage = {
imagePath = "specimen-images/10pt-capU.jpg";
locked = 1;
pos = (3,-327);
scale = (12.84,12.84);
};
hints = (
{
name = _corner.rightBottomSerif;
options = 1;
origin = (1,12);
scale = (1,-1);
type = Corner;
},
{
name = _corner.leftBottomSerif;
options = 1;
origin = (1,13);
scale = (-1,1);
type = Corner;
},
{
name = _corner.rightBottomSerif;
options = 1;
origin = (1,12);
scale = (1,-1);
type = Corner;
},
{
name = _corner.leftBottomSerif;
options = 1;
origin = (1,13);
scale = (-1,1);
type = Corner;
},
{
name = _corner.rightBottomSerif;
origin = (1,4);
type = Corner;
},
{
name = _corner.leftBottomSerif;
origin = (1,3);
type = Corner;
}
);
layerId = m01;
shapes = (
{
closed = 1;
nodes = (
);
},
{
closed = 1;
nodes = (
(531,-16,o),
(670,72,o),
(670,256,cs),
(670,752,l),
(624,752,l),
(624,256,ls),
(624,98,o),
(517,34,o),
(389,34,cs),
(261,34,o),
(188,98,o),
(188,256,cs),
(188,752,l),
(108,752,l),
(108,256,ls),
(108,72,o),
(247,-16,o),
(389,-16,cs)
);
}
);
width = 778;
},
{
backgroundImage = {
imagePath = "specimen-images/10pt-capU.jpg";
locked = 1;
pos = (3,-327);
scale = (12.84,12.84);
};
hints = (
{
name = _corner.rightBottomSerif;
options = 1;
origin = (0,15);
scale = (1,-1);
type = Corner;
},
{
name = _corner.leftBottomSerif;
options = 1;
origin = (0,16);
scale = (-1,1);
type = Corner;
},
{
name = _corner.rightBottomSerif;
options = 1;
origin = (0,6);
scale = (1,-1);
type = Corner;
},
{
name = _corner.leftBottomSerif;
options = 1;
origin = (0,7);
scale = (-1,1);
type = Corner;
}
);
layerId = m002;
shapes = (
{
closed = 1;
nodes = (
(106,66,o),
(247,-23,o),
(389,-23,cs),
(537,-23,o),
(695,64,o),
(695,266,cs),
(695,759,l),
(643,759,l),
(643,266,ls),
(643,106,o),
(524,32,o),
(404,32,cs),
(294,32,o),
(190,103,o),
(190,256,cs),
(190,759,l),
(106,759,l),
(106,256,ls)
);
}
);
width = 797;
}
);
unicode = 85;
},
{
glyphname = V;
lastChange = "2025-03-21 19:54:34 +0000";
layers = (
{
backgroundImage = {
imagePath = "specimen-images/10pt-capV.jpg";
locked = 1;
pos = (-35,-330);
scale = (12.84,12.84);
};
hints = (
{
name = _corner.leftBottomSerif;
origin = (0,0);
type = Corner;
},
{
name = _corner.rightBottomSerif;
options = 1;
origin = (0,1);
type = Corner;
},
{
name = _corner.rightBottomSerif;
origin = (0,4);
scale = (1,-1);
type = Corner;
},
{
name = _corner.leftBottomSerif;
options = 1;
origin = (0,5);
scale = (1,-1);
type = Corner;
},
{
name = _corner.leftBottomSerif;
origin = (1,0);
type = Corner;
},
{
name = _corner.rightBottomSerif;
options = 1;
origin = (1,1);
type = Corner;
},
{
name = _corner.rightBottomSerif;
origin = (1,4);
scale = (1,-1);
type = Corner;
},
{
name = _corner.leftBottomSerif;
options = 1;
origin = (1,5);
scale = (1,-1);
type = Corner;
}
);
layerId = m01;
shapes = (
{
closed = 1;
nodes = (
(621,752,l),
(570,752,l),
(347,46,l),
(373,46,l),
(142,752,l),
(58,752,l),
(300,9,ls),
(302,4,o),
(307,1,o),
(312,1,cs),
(371,0,ls),
(376,0,o),
(381,3,o),
(383,8,cs)
);
},
{
closed = 1;
nodes = (
(621,752,l),
(570,752,l),
(347,46,l),
(373,46,l),
(142,752,l),
(58,752,l),
(300,9,ls),
(302,4,o),
(307,1,o),
(312,1,cs),
(371,0,ls),
(376,0,o),
(381,3,o),
(383,8,cs)
);
}
);
width = 680;
},
{
backgroundImage = {
imagePath = "specimen-images/10pt-capV.jpg";
locked = 1;
pos = (-35,-330);
scale = (12.84,12.84);
};
hints = (
{
name = _corner.leftBottomSerif;
origin = (0,0);
type = Corner;
},
{
name = _corner.rightBottomSerif;
options = 1;
origin = (0,1);
type = Corner;
},
{
name = _corner.rightBottomSerif;
origin = (0,4);
scale = (1,-1);
type = Corner;
},
{
name = _corner.leftBottomSerif;
options = 1;
origin = (0,5);
scale = (1,-1);
type = Corner;
}
);
layerId = m002;
shapes = (
{
closed = 1;
nodes = (
(636,759,l),
(573,759,l),
(342,39,l),
(372,39,l),
(146,759,l),
(53,759,l),
(298,7,ls),
(301,-1,o),
(306,-6,o),
(312,-6,cs),
(371,-7,ls),
(377,-7,o),
(382,-2,o),
(385,6,cs)
);
}
);
width = 689;
}
);
metricRight = "=|";
unicode = 86;
},
{
glyphname = W;
lastChange = "2025-03-21 19:54:34 +0000";
layers = (
{
backgroundImage = {
imagePath = "specimen-images/10pt-capW.jpg";
locked = 1;
pos = (-2,-334);
scale = (12.84,12.84);
};
hints = (
{
name = _corner.leftBottomSerif;
origin = (0,0);
type = Corner;
},
{
name = _corner.rightBottomSerif;
options = 1;
origin = (0,1);
type = Corner;
},
{
name = _corner.rightBottomSerif;
origin = (0,4);
scale = (1,-1);
type = Corner;
},
{
name = _corner.leftBottomSerif;
options = 1;
origin = (0,5);
scale = (1,-1);
type = Corner;
},
{
name = _corner.rightBottomSerif;
origin = (1,3);
scale = (1,-1);
type = Corner;
},
{
name = _corner.leftBottomSerif;
options = 1;
origin = (1,4);
scale = (1,-1);
type = Corner;
}
);
layerId = m01;
shapes = (
{
closed = 1;
nodes = (
(934,752,l),
(883,752,l),
(660,46,l),
(701,46,l),
(470,752,l),
(386,752,l),
(628,9,ls),
(630,4,o),
(635,1,o),
(640,1,cs),
(684,0,ls),
(689,0,o),
(694,3,o),
(696,8,cs)
);
},
{
closed = 1;
nodes = (
(490,558,l),
(328,46,l),
(369,46,l),
(138,752,l),
(54,752,l),
(296,9,ls),
(298,4,o),
(303,1,o),
(308,1,cs),
(352,0,ls),
(357,0,o),
(362,3,o),
(364,8,cs),
(519,491,l)
);
}
);
width = 989;
},
{
backgroundImage = {
imagePath = "specimen-images/10pt-capW.jpg";
locked = 1;
pos = (-2,-334);
scale = (12.84,12.84);
};
hints = (
{
name = _corner.leftBottomSerif;
origin = (0,0);
type = Corner;
},
{
name = _corner.rightBottomSerif;
options = 1;
origin = (0,1);
type = Corner;
},
{
name = _corner.rightBottomSerif;
origin = (0,4);
scale = (1,-1);
type = Corner;
},
{
name = _corner.leftBottomSerif;
options = 1;
origin = (0,5);
scale = (1,-1);
type = Corner;
},
{
name = _corner.rightBottomSerif;
origin = (1,3);
scale = (1,-1);
type = Corner;
},
{
name = _corner.leftBottomSerif;
options = 1;
origin = (1,4);
scale = (1,-1);
type = Corner;
}
);
layerId = m002;
shapes = (
{
closed = 1;
nodes = (
(960,759,l),
(895,759,l),
(666,39,l),
(716,39,l),
(490,759,l),
(397,759,l),
(642,7,ls),
(645,-1,o),
(650,-6,o),
(656,-6,cs),
(695,-7,ls),
(701,-7,o),
(706,-2,o),
(709,6,cs)
);
},
{
closed = 1;
nodes = (
(500,603,l),
(319,39,l),
(369,39,l),
(143,759,l),
(49,759,l),
(294,7,ls),
(297,-1,o),
(302,-6,o),
(308,-6,cs),
(348,-7,ls),
(354,-7,o),
(359,-2,o),
(362,6,cs),
(532,514,l)
);
}
);
width = 1009;
}
);
metricRight = "=|";
unicode = 87;
},
{
glyphname = X;
lastChange = "2025-03-21 19:26:53 +0000";
layers = (
{
backgroundImage = {
imagePath = "specimen-images/10pt-capX.jpg";
locked = 1;
pos = (8,-332);
scale = (12.84,12.84);
};
hints = (
{
name = _corner.leftBottomSerif;
origin = (0,0);
type = Corner;
},
{
name = _corner.rightBottomSerif;
options = 1;
origin = (0,1);
type = Corner;
},
{
name = _corner.rightBottomSerif;
origin = (0,2);
scale = (1,-1);
type = Corner;
},
{
name = _corner.leftBottomSerif;
options = 1;
origin = (0,3);
scale = (-1,1);
type = Corner;
},
{
name = _corner.leftBottomSerif;
options = 1;
origin = (2,2);
scale = (-1,1);
type = Corner;
},
{
name = _corner.rightBottomSerif;
origin = (2,1);
scale = (-1,1);
type = Corner;
},
{
name = _corner.rightBottomSerif;
options = 1;
origin = (1,2);
scale = (-1,-1);
type = Corner;
},
{
name = _corner.leftBottomSerif;
origin = (1,1);
type = Corner;
}
);
layerId = m01;
shapes = (
{
closed = 1;
nodes = (
(565,0,l),
(663,0,l),
(193,752,l),
(97,752,l)
);
},
{
closed = 1;
nodes = (
(400,397,l),
(647,752,l),
(591,752,l),
(367,431,l)
);
},
{
closed = 1;
nodes = (
(358,432,l),
(56,0,l),
(115,0,l),
(392,397,l)
);
}
);
width = 711;
},
{
backgroundImage = {
imagePath = "specimen-images/10pt-capX.jpg";
locked = 1;
pos = (8,-332);
scale = (12.84,12.84);
};
hints = (
{
name = _corner.leftBottomSerif;
origin = (0,0);
type = Corner;
},
{
name = _corner.rightBottomSerif;
options = 1;
origin = (0,1);
type = Corner;
},
{
name = _corner.rightBottomSerif;
origin = (0,2);
scale = (1,-1);
type = Corner;
},
{
name = _corner.leftBottomSerif;
options = 1;
origin = (0,3);
scale = (-1,1);
type = Corner;
},
{
name = _corner.leftBottomSerif;
options = 1;
origin = (2,2);
scale = (-1,1);
type = Corner;
},
{
name = _corner.rightBottomSerif;
origin = (2,1);
scale = (-1,1);
type = Corner;
},
{
name = _corner.rightBottomSerif;
options = 1;
origin = (1,2);
scale = (-1,-1);
type = Corner;
},
{
name = _corner.leftBottomSerif;
origin = (1,1);
type = Corner;
}
);
layerId = m002;
shapes = (
{
closed = 1;
nodes = (
(565,-7,l),
(671,-7,l),
(188,759,l),
(89,759,l)
);
},
{
closed = 1;
nodes = (
(395,391,l),
(656,759,l),
(591,759,l),
(361,429,l)
);
},
{
closed = 1;
nodes = (
(359,436,l),
(47,-7,l),
(116,-7,l),
(396,398,l)
);
}
);
width = 711;
}
);
unicode = 88;
},
{
glyphname = Y;
lastChange = "2025-03-21 19:33:20 +0000";
layers = (
{
backgroundImage = {
imagePath = "specimen-images/10pt-capY.jpg";
pos = (2,-332);
scale = (12.84,12.84);
};
hints = (
{
name = _corner.leftBottomSerif;
origin = (0,0);
type = Corner;
},
{
name = _corner.rightBottomSerif;
options = 1;
origin = (0,1);
type = Corner;
},
{
name = _corner.rightBottomSerif;
origin = (0,4);
scale = (1,-1);
type = Corner;
},
{
name = _corner.leftBottomSerif;
options = 1;
origin = (0,5);
scale = (1,-1);
type = Corner;
},
{
name = _corner.leftBottomSerif;
origin = (1,1);
type = Corner;
},
{
name = _corner.rightBottomSerif;
options = 1;
origin = (1,2);
type = Corner;
}
);
layerId = m01;
shapes = (
{
closed = 1;
nodes = (
(595,752,l),
(543,752,l),
(344,356,l),
(366,356,l),
(147,752,l),
(48,752,l),
(299,311,l),
(374,310,l)
);
},
{
closed = 1;
nodes = (
(299,342,l),
(299,0,l),
(379,0,l),
(379,342,l)
);
}
);
width = 646;
},
{
backgroundImage = {
imagePath = "specimen-images/10pt-capY.jpg";
pos = (2,-332);
scale = (12.84,12.84);
};
hints = (
{
name = _corner.leftBottomSerif;
origin = (0,0);
type = Corner;
},
{
name = _corner.rightBottomSerif;
options = 1;
origin = (0,1);
type = Corner;
},
{
name = _corner.rightBottomSerif;
origin = (0,4);
scale = (1,-1);
type = Corner;
},
{
name = _corner.leftBottomSerif;
options = 1;
origin = (0,5);
scale = (1,-1);
type = Corner;
},
{
name = _corner.leftBottomSerif;
origin = (1,1);
type = Corner;
},
{
name = _corner.rightBottomSerif;
options = 1;
origin = (1,2);
type = Corner;
}
);
layerId = m002;
shapes = (
{
closed = 1;
nodes = (
(602,759,l),
(543,759,l),
(337,349,l),
(368,349,l),
(142,759,l),
(40,759,l),
(299,304,l),
(374,303,l)
);
},
{
closed = 1;
nodes = (
(297,349,l),
(297,-7,l),
(381,-7,l),
(381,349,l)
);
}
);
width = 646;
}
);
unicode = 89;
},
{
glyphname = Z;
lastChange = "2025-03-21 19:43:36 +0000";
layers = (
{
backgroundImage = {
imagePath = "specimen-images/10pt-capZ.jpg";
pos = (-8,-330);
scale = (12.84,12.84);
};
layerId = m01;
shapes = (
{
closed = 1;
nodes = (
(511,0,ls),
(517,0,o),
(521,3,o),
(522,8,cs),
(532,53,o),
(547,99,o),
(566,140,cs),
(572,153,o),
(554,165,o),
(545,153,cs),
(497,92,o),
(447,36,o),
(406,36,cs),
(119,36,l),
(531,752,l),
(118,752,ls),
(112,752,o),
(108,749,o),
(107,744,cs),
(100,707,o),
(91,671,o),
(76,638,cs),
(70,625,o),
(88,613,o),
(97,625,cs),
(145,686,o),
(182,716,o),
(226,716,cs),
(418,716,l),
(6,0,l)
);
}
);
width = 572;
},
{
backgroundImage = {
imagePath = "specimen-images/10pt-capZ.jpg";
pos = (-8,-330);
scale = (12.84,12.84);
};
layerId = m002;
shapes = (
{
closed = 1;
nodes = (
(511,-7,ls),
(519,-7,o),
(522,-2,o),
(524,7,cs),
(534,51,o),
(549,96,o),
(568,137,cs),
(574,150,o),
(559,178,o),
(543,157,cs),
(497,98,o),
(448,42,o),
(427,42,cs),
(130,42,l),
(547,731,ls),
(554,744,o),
(549,759,o),
(535,759,cs),
(118,759,ls),
(110,759,o),
(107,754,o),
(105,745,cs),
(98,709,o),
(89,674,o),
(74,641,cs),
(68,628,o),
(83,600,o),
(99,621,cs),
(145,679,o),
(182,709,o),
(212,709,cs),
(435,711,l),
(15,21,ls),
(8,8,o),
(12,-7,o),
(27,-7,cs)
);
}
);
width = 572;
}
);
unicode = 90;
},
{
glyphname = K.ss01;
lastChange = "2025-03-18 18:09:52 +0000";
layers = (
{
hints = (
{
name = _corner.leftBottomSerif;
origin = (0,1);
type = Corner;
},
{
name = _corner.rightBottomSerif;
options = 1;
origin = (0,2);
type = Corner;
},
{
name = _corner.rightBottomSerif;
origin = (1,1);
scale = (1,-1);
type = Corner;
},
{
name = _corner.leftBottomSerif;
options = 1;
origin = (1,2);
scale = (-1,1);
type = Corner;
},
{
name = _corner.leftBottomSerif;
origin = (2,0);
type = Corner;
},
{
name = _corner.rightBottomSerif;
origin = (2,1);
type = Corner;
},
{
name = _corner.rightBottomSerif;
options = 1;
origin = (2,2);
scale = (1,-1);
type = Corner;
},
{
name = _corner.leftBottomSerif;
options = 1;
origin = (2,3);
scale = (-1,1);
type = Corner;
}
);
layerId = m01;
shapes = (
{
closed = 1;
nodes = (
(298,423,l),
(586,0,l),
(680,0,l),
(342,459,l)
);
},
{
closed = 1;
nodes = (
(161,281,l),
(652,752,l),
(582,752,l),
(134,299,l)
);
},
{
closed = 1;
nodes = (
(115,0,l),
(195,0,l),
(195,752,l),
(115,752,l)
);
}
);
width = 716;
},
{
hints = (
{
name = _corner.leftBottomSerif;
origin = (0,1);
type = Corner;
},
{
name = _corner.rightBottomSerif;
options = 1;
origin = (0,2);
type = Corner;
},
{
name = _corner.rightBottomSerif;
origin = (1,1);
scale = (1,-1);
type = Corner;
},
{
name = _corner.leftBottomSerif;
options = 1;
origin = (1,2);
scale = (-1,1);
type = Corner;
},
{
name = _corner.leftBottomSerif;
origin = (2,0);
type = Corner;
},
{
name = _corner.rightBottomSerif;
origin = (2,1);
type = Corner;
},
{
name = _corner.rightBottomSerif;
options = 1;
origin = (2,2);
scale = (1,-1);
type = Corner;
},
{
name = _corner.leftBottomSerif;
options = 1;
origin = (2,3);
scale = (-1,1);
type = Corner;
}
);
layerId = m002;
shapes = (
{
closed = 1;
nodes = (
(292,425,l),
(586,-7,l),
(690,-7,l),
(342,465,l)
);
},
{
closed = 1;
nodes = (
(161,275,l),
(666,759,l),
(583,759,l),
(126,298,l)
);
},
{
closed = 1;
nodes = (
(113,-7,l),
(197,-7,l),
(197,759,l),
(113,759,l)
);
}
);
width = 716;
}
);
},
{
glyphname = R.ss01;
lastChange = "2025-03-18 18:09:52 +0000";
layers = (
{
hints = (
{
name = _corner.leftBottomSerif;
options = 1;
origin = (0,17);
scale = (-1,1);
type = Corner;
},
{
name = _corner.leftBottomSerif;
origin = (0,18);
type = Corner;
},
{
name = _corner.rightBottomSerif;
origin = (0,19);
type = Corner;
},
{
name = _corner.rightBottomSerif;
options = 1;
origin = (1,2);
type = Corner;
}
);
layerId = m01;
shapes = (
{
closed = 1;
nodes = (
(166,729,l),
(320,731,ls),
(431,732,o),
(507,663,o),
(507,537,cs),
(507,411,o),
(421,363,o),
(340,365,cs),
(157,368,l),
(157,331,l),
(340,331,ls),
(461,331,o),
(579,400,o),
(579,537,cs),
(579,684,o),
(461,763,o),
(320,762,cs),
(86,760,l),
(86,0,l),
(166,-1,l)
);
},
{
closed = 1;
nodes = (
(329,356,l),
(526,0,l),
(620,0,l),
(405,356,l)
);
}
);
width = 587;
},
{
hints = (
{
name = _corner.leftBottomSerif;
options = 1;
origin = (0,17);
scale = (-1,1);
type = Corner;
},
{
name = _corner.leftBottomSerif;
origin = (0,18);
type = Corner;
},
{
name = _corner.rightBottomSerif;
origin = (0,19);
type = Corner;
},
{
name = _corner.rightBottomSerif;
options = 1;
origin = (1,2);
type = Corner;
}
);
layerId = m002;
shapes = (
{
closed = 1;
nodes = (
(168,722,l),
(320,724,ls),
(431,725,o),
(505,658,o),
(505,537,cs),
(505,417,o),
(421,370,o),
(340,372,cs),
(155,375,l),
(155,324,l),
(340,324,ls),
(461,324,o),
(581,394,o),
(581,537,cs),
(581,690,o),
(461,770,o),
(320,769,cs),
(84,767,l),
(84,-7,l),
(168,-8,l)
);
},
{
closed = 1;
nodes = (
(322,363,l),
(526,-7,l),
(628,-7,l),
(405,363,l)
);
}
);
width = 587;
}
);
},
{
glyphname = a;
lastChange = "2025-03-21 19:57:01 +0000";
layers = (
{
backgroundImage = {
imagePath = "specimen-images/12pt-lowerA.jpg";
locked = 1;
pos = (-94,-338);
scale = (10.7,10.7);
};
layerId = m01;
shapes = (
{
closed = 1;
nodes = (
(350,1,l),
(386,1,o),
(404,-4,o),
(433,-4,c),
(454,-4,o),
(454,28,o),
(433,28,c),
(404,28,o),
(386,34,o),
(386,80,c),
(386,394,ls),
(386,475,o),
(292,505,o),
(229,505,cs),
(153,505,o),
(57,449,o),
(57,369,cs),
(57,344,o),
(73,329,o),
(97,329,cs),
(120,329,o),
(135,344,o),
(135,369,cs),
(135,381,o),
(127,389,o),
(127,401,cs),
(127,437,o),
(169,470,o),
(222,470,cs),
(276,470,o),
(311,445,o),
(311,383,cs),
(311,10,ls),
(311,4,o),
(315,0,o),
(321,0,cs)
);
},
{
closed = 1;
nodes = (
(325,109,l),
(261,59,o),
(220,35,o),
(177,35,cs),
(139,35,o),
(113,59,o),
(113,113,cs),
(113,169,o),
(139,199,o),
(181,225,cs),
(209,241,o),
(225,247,o),
(331,279,c),
(325,316,l),
(269,298,o),
(216,280,o),
(173,265,cs),
(88,236,o),
(31,183,o),
(31,96,cs),
(31,30,o),
(87,-15,o),
(143,-15,cs),
(225,-15,o),
(291,41,o),
(340,87,c)
);
}
);
width = 485;
},
{
backgroundImage = {
imagePath = "specimen-images/12pt-lowerA.jpg";
locked = 1;
pos = (-94,-338);
scale = (10.7,10.7);
};
layerId = m002;
shapes = (
{
closed = 1;
nodes = (
(350,-6,ls),
(368,-6,o),
(382,-7,o),
(396,-9,cs),
(407,-10,o),
(420,-11,o),
(433,-11,cs),
(456,-11,o),
(457,35,o),
(433,35,cs),
(403,35,o),
(388,40,o),
(388,80,cs),
(388,394,ls),
(388,482,o),
(292,512,o),
(229,512,cs),
(153,512,o),
(55,455,o),
(55,369,cs),
(55,339,o),
(73,322,o),
(97,322,cs),
(120,322,o),
(137,339,o),
(137,369,cs),
(137,377,o),
(135,383,o),
(133,388,cs),
(131,393,o),
(129,397,o),
(129,401,cs),
(129,431,o),
(169,463,o),
(222,463,cs),
(276,463,o),
(309,440,o),
(309,383,cs),
(309,10,ls),
(309,2,o),
(314,-7,o),
(321,-7,cs)
);
},
{
closed = 1;
nodes = (
(325,115,l),
(262,66,o),
(211,42,o),
(175,42,cs),
(139,42,o),
(115,64,o),
(115,113,cs),
(115,165,o),
(138,192,o),
(182,219,cs),
(208,234,o),
(225,240,o),
(334,273,c),
(326,323,l),
(270,305,o),
(218,288,o),
(172,272,cs),
(88,243,o),
(29,188,o),
(29,96,cs),
(29,32,o),
(87,-19,o),
(143,-19,cs),
(226,-19,o),
(294,37,o),
(345,86,c)
);
}
);
width = 485;
}
);
unicode = 97;
},
{
glyphname = b;
lastChange = "2025-03-22 12:51:34 +0000";
layers = (
{
backgroundImage = {
imagePath = "specimen-images/12pt-lowerB.jpg";
locked = 1;
pos = (2,-337);
scale = (10.7,10.79);
};
hints = (
{
name = _cap.flag;
origin = (0,8);
type = Cap;
}
);
layerId = m01;
shapes = (
{
closed = 1;
nodes = (
(76,752,l),
(76,9,l),
(76,-9,o),
(96,-4,o),
(103,7,cs),
(117,29,o),
(140,46,o),
(155,54,c),
(155,752,l)
);
},
{
closed = 1;
nodes = (
(174,16,o),
(221,-10,o),
(276,-10,cs),
(405,-10,o),
(502,101,o),
(502,249,c),
(502,397,o),
(413,504,o),
(284,504,cs),
(178,504,o),
(127,423,o),
(127,340,c),
(155,321,l),
(163,413,o),
(206,460,o),
(277,460,cs),
(361,460,o),
(418,401,o),
(418,249,cs),
(418,96,o),
(365,42,o),
(277,42,cs),
(221,42,o),
(174,61,o),
(142,126,c),
(128,86,l)
);
}
);
width = 535;
},
{
backgroundImage = {
imagePath = "specimen-images/12pt-lowerB.jpg";
locked = 1;
pos = (2,-337);
scale = (10.7,10.79);
};
hints = (
{
name = _cap.flag;
origin = (0,8);
type = Cap;
}
);
layerId = m002;
shapes = (
{
closed = 1;
nodes = (
(74,759,l),
(74,9,ls),
(74,-14,o),
(93,-16,o),
(105,3,cs),
(117,22,o),
(140,39,o),
(157,48,c),
(157,759,l)
);
},
{
closed = 1;
nodes = (
(167,6,o),
(221,-17,o),
(276,-17,cs),
(405,-17,o),
(504,97,o),
(504,249,cs),
(504,401,o),
(413,511,o),
(284,511,cs),
(176,511,o),
(123,423,o),
(125,335,c),
(156,313,l),
(162,405,o),
(204,453,o),
(277,453,cs),
(361,453,o),
(416,397,o),
(416,249,cs),
(416,101,o),
(365,49,o),
(277,49,cs),
(219,49,o),
(170,78,o),
(140,143,c),
(120,73,l)
);
}
);
width = 535;
}
);
unicode = 98;
},
{
glyphname = c;
lastChange = "2025-03-22 13:07:50 +0000";
layers = (
{
background = {
shapes = (
{
closed = 1;
nodes = (
(411,415,o),
(377,505,o),
(256,505,cs),
(127,505,o),
(33,386,o),
(33,252,cs),
(33,104,o),
(121,-13,o),
(250,-13,cs),
(322,-13,o),
(377,16,o),
(407,51,cs),
(430,78,o),
(399,104,o),
(375,79,cs),
(345,48,o),
(309,35,o),
(262,35,cs),
(169,35,o),
(119,96,o),
(119,252,cs),
(119,397,o),
(181,466,o),
(255,466,cs),
(300,466,o),
(331,437,o),
(331,397,cs),
(331,375,o),
(349,357,o),
(371,357,cs),
(393,357,o),
(411,375,o),
(411,397,cs)
);
}
);
};
backgroundImage = {
imagePath = "specimen-images/12pt-lowerC.jpg";
locked = 1;
pos = (-1,-345);
scale = (10.7,10.7);
};
layerId = m01;
shapes = (
{
closed = 1;
nodes = (
(322,-13,o),
(377,16,o),
(407,51,cs),
(430,78,o),
(399,104,o),
(375,79,cs),
(345,48,o),
(309,35,o),
(262,35,cs),
(169,35,o),
(119,96,o),
(119,252,cs),
(119,397,o),
(181,466,o),
(255,466,cs),
(300,466,o),
(331,437,o),
(331,397,cs),
(331,375,o),
(349,357,o),
(371,357,cs),
(393,357,o),
(411,375,o),
(411,397,cs),
(411,448,o),
(345,505,o),
(256,505,cs),
(127,505,o),
(33,386,o),
(33,252,cs),
(33,104,o),
(121,-13,o),
(250,-13,cs)
);
}
);
width = 444;
},
{
backgroundImage = {
imagePath = "specimen-images/12pt-lowerC.jpg";
locked = 1;
pos = (-1,-345);
scale = (10.7,10.7);
};
layerId = m002;
shapes = (
{
closed = 1;
nodes = (
(413,419,o),
(378,512,o),
(256,512,cs),
(127,512,o),
(31,390,o),
(31,252,cs),
(31,100,o),
(130,-20,o),
(260,-20,cs),
(332,-20,o),
(377,9,o),
(411,53,cs),
(433,82,o),
(404,124,o),
(373,88,cs),
(344,53,o),
(318,42,o),
(261,42,cs),
(220,42,o),
(121,62,o),
(121,252,cs),
(121,415,o),
(167,459,o),
(255,459,cs),
(300,459,o),
(329,432,o),
(329,397,cs),
(329,370,o),
(349,350,o),
(371,350,cs),
(393,350,o),
(413,370,o),
(413,397,cs)
);
}
);
width = 444;
}
);
unicode = 99;
},
{
glyphname = d;
lastChange = "2025-03-22 12:52:23 +0000";
layers = (
{
backgroundImage = {
imagePath = "specimen-images/12pt-lowerD.jpg";
locked = 1;
pos = (8,-343);
scale = (10.7,10.7);
};
hints = (
{
name = _corner.rightBottomSerif;
origin = (0,5);
type = Corner;
},
{
name = _cap.flag;
origin = (0,6);
type = Cap;
}
);
layerId = m01;
shapes = (
{
closed = 1;
nodes = (
(386,752,l),
(386,10,ls),
(386,4,o),
(390,0,o),
(396,0,cs),
(461,0,l),
(461,752,l)
);
},
{
closed = 1;
nodes = (
(419,172,l),
(399,118,o),
(341,39,o),
(255,39,cs),
(167,39,o),
(120,95,o),
(120,248,cs),
(120,400,o),
(177,454,o),
(261,454,cs),
(326,454,o),
(374,412,o),
(386,328,c),
(422,335,l),
(416,397,o),
(362,503,o),
(245,503,cs),
(133,503,o),
(36,396,o),
(36,248,c),
(36,100,o),
(127,-11,o),
(246,-11,cs),
(351,-11,o),
(407,92,o),
(439,144,c)
);
}
);
width = 568;
},
{
backgroundImage = {
imagePath = "specimen-images/12pt-lowerD.jpg";
locked = 1;
pos = (8,-343);
scale = (10.7,10.7);
};
hints = (
{
name = _corner.rightBottomSerif;
origin = (0,5);
type = Corner;
},
{
name = _cap.flag;
origin = (0,6);
type = Cap;
}
);
layerId = m002;
shapes = (
{
closed = 1;
nodes = (
(384,759,l),
(384,10,ls),
(384,2,o),
(388,-7,o),
(396,-7,cs),
(463,-7,l),
(463,759,l)
);
},
{
closed = 1;
nodes = (
(419,186,l),
(402,136,o),
(344,46,o),
(255,46,cs),
(167,46,o),
(122,99,o),
(122,248,cs),
(122,395,o),
(177,447,o),
(261,447,cs),
(328,447,o),
(375,405,o),
(385,321,c),
(424,329,l),
(422,392,o),
(367,510,o),
(245,510,cs),
(133,510,o),
(34,401,o),
(34,248,cs),
(34,96,o),
(127,-18,o),
(246,-18,cs),
(353,-18,o),
(410,91,o),
(443,144,c)
);
}
);
width = 568;
}
);
unicode = 100;
},
{
glyphname = e;
lastChange = "2025-03-22 13:06:27 +0000";
layers = (
{
backgroundImage = {
imagePath = "specimen-images/12pt-lowerE.jpg";
locked = 1;
pos = (-4,-333);
scale = (10.7,10.7);
};
hints = (
{
place = (325,23);
type = Stem;
}
);
layerId = m01;
shapes = (
{
closed = 1;
nodes = (
(33,104,o),
(121,-13,o),
(250,-13,cs),
(322,-13,o),
(377,16,o),
(407,51,cs),
(430,78,o),
(399,104,o),
(375,79,cs),
(345,48,o),
(309,35,o),
(262,35,cs),
(169,35,o),
(119,96,o),
(119,252,cs),
(120,413,o),
(169,462,o),
(246,462,cs),
(335,462,o),
(358,413,o),
(361,264,c),
(435,264,l),
(435,387,o),
(372,505,o),
(247,505,cs),
(120,505,o),
(35,391,o),
(33,252,cs)
);
},
{
closed = 1;
nodes = (
(112,264,l),
(372,264,l),
(372,299,l),
(112,299,l)
);
}
);
width = 468;
},
{
backgroundImage = {
imagePath = "specimen-images/12pt-lowerE.jpg";
locked = 1;
pos = (-4,-333);
scale = (10.7,10.7);
};
hints = (
{
place = (325,23);
type = Stem;
}
);
layerId = m002;
shapes = (
{
closed = 1;
nodes = (
(31,94,o),
(130,-20,o),
(259,-20,cs),
(331,-20,o),
(376,9,o),
(410,53,cs),
(432,82,o),
(403,124,o),
(372,88,cs),
(343,53,o),
(317,42,o),
(260,42,cs),
(214,42,o),
(118,61,o),
(118,246,cs),
(118,408,o),
(167,455,o),
(246,455,cs),
(336,455,o),
(357,408,o),
(359,257,c),
(437,257,l),
(439,385,o),
(374,512,o),
(247,512,cs),
(118,512,o),
(31,392,o),
(31,246,cs)
);
},
{
closed = 1;
nodes = (
(110,257,l),
(374,257,l),
(374,306,l),
(110,306,l)
);
}
);
width = 468;
}
);
unicode = 101;
},
{
glyphname = f;
lastChange = "2025-03-22 12:54:14 +0000";
layers = (
{
backgroundImage = {
imagePath = "specimen-images/12pt-lowerF.jpg";
locked = 1;
pos = (30,-340);
scale = (10.7,10.7);
};
hints = (
{
name = _corner.leftBottomSerif;
origin = (0,39);
type = Corner;
},
{
name = _corner.rightBottomSerif;
origin = (0,0);
type = Corner;
}
);
layerId = m01;
shapes = (
{
closed = 1;
nodes = (
(210,0,l),
(210,459,l),
(245,459,o),
(305,458,o),
(314,457,cs),
(337,455,o),
(338,498,o),
(314,496,cs),
(305,495,o),
(245,494,o),
(210,494,c),
(193,538,o),
(154,717,o),
(209,717,cs),
(241,717,o),
(231,691,o),
(246,671,cs),
(262,650,o),
(291,653,o),
(306,665,cs),
(321,678,o),
(323,703,o),
(307,724,cs),
(291,745,o),
(259,753,o),
(239,753,cs),
(177,753,o),
(135,712,o),
(135,642,cs),
(135,494,l),
(116,495,o),
(98,495,o),
(79,496,cs),
(55,497,o),
(56,456,o),
(79,457,cs),
(98,458,o),
(116,458,o),
(135,459,c),
(135,0,l)
);
}
);
width = 356;
},
{
backgroundImage = {
imagePath = "specimen-images/12pt-lowerF.jpg";
locked = 1;
pos = (30,-340);
scale = (10.7,10.7);
};
hints = (
{
name = _corner.leftBottomSerif;
origin = (0,39);
type = Corner;
},
{
name = _corner.rightBottomSerif;
origin = (0,0);
type = Corner;
},
{
name = _corner.leftBottomSerif;
origin = (0,48);
type = Corner;
}
);
layerId = m002;
shapes = (
{
closed = 1;
nodes = (
(212,-7,l),
(212,452,l),
(246,452,o),
(305,451,o),
(314,450,cs),
(339,448,o),
(340,505,o),
(314,503,cs),
(305,502,o),
(244,501,o),
(210,501,c),
(192,552,o),
(158,710,o),
(209,710,cs),
(228,710,o),
(231,704,o),
(235,691,cs),
(237,684,o),
(239,674,o),
(244,667,cs),
(264,641,o),
(290,646,o),
(307,660,cs),
(323,674,o),
(325,707,o),
(309,728,cs),
(289,754,o),
(251,760,o),
(220,760,cs),
(177,760,o),
(133,717,o),
(133,642,cs),
(133,501,l),
(125,501,o),
(115,502,o),
(107,502,cs),
(99,502,o),
(89,502,o),
(79,503,cs),
(53,504,o),
(54,449,o),
(79,450,cs),
(89,451,o),
(99,451,o),
(107,451,cs),
(115,451,o),
(125,452,o),
(133,452,c),
(133,-7,l)
);
}
);
width = 356;
}
);
unicode = 102;
},
{
glyphname = g;
lastChange = "2025-03-22 13:11:01 +0000";
layers = (
{
backgroundImage = {
imagePath = "specimen-images/12pt-lowerE.jpg";
locked = 1;
pos = (20,-328);
scale = (10.7,10.7);
};
layerId = m01;
shapes = (
{
closed = 1;
nodes = (
(379,136,o),
(471,219,o),
(471,321,cs),
(471,422,o),
(379,505,o),
(273,505,cs),
(167,505,o),
(75,422,o),
(75,321,cs),
(75,217,o),
(170,136,o),
(273,136,cs)
);
},
{
closed = 1;
nodes = (
(207,166,o),
(156,201,o),
(156,321,cs),
(156,438,o),
(207,474,o),
(274,474,cs),
(342,474,o),
(391,439,o),
(391,321,cs),
(391,200,o),
(342,166,o),
(274,166,cs)
);
},
{
closed = 1;
nodes = (
(268,-30,ls),
(366,-51,o),
(459,-71,o),
(459,-125,cs),
(459,-180,o),
(387,-221,o),
(274,-221,cs),
(191,-221,o),
(90,-184,o),
(92,-115,cs),
(94,-54,o),
(175,-27,o),
(224,0,c),
(188,12,l),
(126,-14,o),
(33,-46,o),
(33,-119,cs),
(33,-208,o),
(173,-254,o),
(270,-254,cs),
(367,-254,o),
(519,-217,o),
(519,-111,cs),
(519,-25,o),
(458,7,o),
(175,56,cs),
(102,69,o),
(116,87,o),
(211,166,c),
(176,183,l),
(96,127,o),
(65,92,o),
(65,64,cs),
(65,34,o),
(93,7,o),
(201,-16,cs)
);
},
{
closed = 1;
nodes = (
(536,434,o),
(553,450,o),
(553,469,cs),
(553,488,o),
(536,502,o),
(518,504,cs),
(470,510,o),
(431,482,o),
(403,444,c),
(423,424,l),
(428,434,o),
(436,448,o),
(458,448,cs),
(487,448,o),
(493,434,o),
(518,434,cs)
);
}
);
width = 566;
},
{
backgroundImage = {
imagePath = "specimen-images/12pt-lowerE.jpg";
locked = 1;
pos = (20,-328);
scale = (10.7,10.7);
};
layerId = m002;
shapes = (
{
closed = 1;
nodes = (
(379,129,o),
(473,214,o),
(473,321,cs),
(473,427,o),
(379,512,o),
(273,512,cs),
(167,512,o),
(73,427,o),
(73,321,cs),
(73,212,o),
(170,129,o),
(273,129,cs)
);
},
{
closed = 1;
nodes = (
(206,173,o),
(158,206,o),
(158,321,cs),
(158,434,o),
(207,467,o),
(274,467,cs),
(343,467,o),
(389,434,o),
(389,321,cs),
(389,205,o),
(343,173,o),
(274,173,cs)
);
},
{
closed = 1;
nodes = (
(268,-49,ls),
(425,-83,o),
(457,-98,o),
(457,-125,cs),
(457,-172,o),
(387,-214,o),
(274,-214,cs),
(191,-214,o),
(94,-177,o),
(94,-115,cs),
(94,-71,o),
(192,-25,o),
(239,2,c),
(188,19,l),
(126,-7,o),
(31,-47,o),
(31,-119,cs),
(31,-215,o),
(173,-261,o),
(270,-261,cs),
(367,-261,o),
(516,-227,o),
(516,-123,cs),
(516,-22,o),
(459,24,o),
(175,63,cs),
(109,72,o),
(116,81,o),
(221,168,c),
(176,190,l),
(96,134,o),
(63,97,o),
(63,64,cs),
(63,28,o),
(98,-14,o),
(201,-35,cs)
);
},
{
closed = 1;
nodes = (
(535,427,o),
(555,445,o),
(555,469,cs),
(555,493,o),
(536,509,o),
(518,511,cs),
(469,517,o),
(428,486,o),
(398,443,c),
(423,418,l),
(426,424,o),
(433,441,o),
(458,441,cs),
(473,441,o),
(481,438,o),
(490,434,cs),
(497,431,o),
(507,427,o),
(518,427,cs)
);
}
);
width = 566;
}
);
unicode = 103;
},
{
glyphname = h;
lastChange = "2025-03-22 13:14:46 +0000";
layers = (
{
background = {
hints = (
{
name = _corner.leftBottomSerif;
origin = (0,0);
type = Corner;
},
{
name = _corner.rightBottomSerif;
origin = (0,1);
type = Corner;
}
);
shapes = (
{
closed = 1;
nodes = (
(419,0,l),
(494,0,l),
(494,405,ls),
(494,477,o),
(454,505,o),
(373,505,cs),
(312,505,o),
(225,458,o),
(169,416,c),
(179,380,l),
(223,412,o),
(309,462,o),
(355,462,cs),
(399,462,o),
(419,427,o),
(419,380,cs)
);
}
);
};
hints = (
{
name = _corner.leftBottomSerif;
origin = (0,1);
type = Corner;
},
{
name = _corner.rightBottomSerif;
origin = (0,2);
type = Corner;
},
{
name = _cap.flag;
origin = (0,3);
type = Cap;
},
{
name = _corner.leftBottomSerif;
origin = (1,0);
type = Corner;
},
{
name = _corner.rightBottomSerif;
origin = (1,1);
type = Corner;
}
);
layerId = m01;
shapes = (
{
closed = 1;
nodes = (
(115,752,l),
(115,0,l),
(190,0,l),
(190,752,l)
);
},
{
closed = 1;
nodes = (
(418,0,l),
(493,0,l),
(493,405,ls),
(493,476,o),
(456,505,o),
(392,505,cs),
(308,505,o),
(216,454,o),
(160,412,c),
(178,380,l),
(230,421,o),
(308,462,o),
(354,462,cs),
(398,462,o),
(418,427,o),
(418,380,cs)
);
}
);
width = 605;
},
{
hints = (
{
name = _corner.leftBottomSerif;
origin = (0,1);
type = Corner;
},
{
name = _corner.rightBottomSerif;
origin = (0,2);
type = Corner;
},
{
name = _cap.flag;
origin = (0,3);
type = Cap;
},
{
name = _corner.leftBottomSerif;
origin = (1,0);
type = Corner;
},
{
name = _corner.rightBottomSerif;
origin = (1,1);
type = Corner;
}
);
layerId = m002;
shapes = (
{
closed = 1;
nodes = (
(113,759,l),
(113,-7,l),
(192,-7,l),
(192,759,l)
);
},
{
closed = 1;
nodes = (
(417,-7,l),
(496,-7,l),
(496,405,ls),
(496,483,o),
(454,512,o),
(373,512,cs),
(312,512,o),
(223,464,o),
(165,420,c),
(178,373,l),
(220,404,o),
(308,455,o),
(355,455,cs),
(399,455,o),
(417,424,o),
(417,380,cs)
);
}
);
width = 605;
}
);
unicode = 104;
},
{
glyphname = i;
lastChange = "2025-03-21 19:54:23 +0000";
layers = (
{
backgroundImage = {
imagePath = "specimen-images/12pt-lowerI.jpg";
pos = (18,-345);
scale = (10.7,10.7);
};
guides = (
{
pos = (11,-345);
},
{
angle = 270;
pos = (43,14);
}
);
layerId = m01;
shapes = (
{
closed = 1;
nodes = (
(177,598,o),
(199,620,o),
(199,654,cs),
(199,688,o),
(177,709,o),
(144,709,cs),
(110,709,o),
(88,688,o),
(88,654,cs),
(88,620,o),
(110,598,o),
(144,598,cs)
);
},
{
closed = 1;
nodes = (
(115,511,l),
(115,0,l),
(190,0,l),
(190,511,l)
);
}
);
width = 306;
},
{
backgroundImage = {
imagePath = "specimen-images/12pt-lowerI.jpg";
pos = (18,-345);
scale = (10.7,10.7);
};
guides = (
{
pos = (11,-345);
},
{
angle = 270;
pos = (43,14);
}
);
hints = (
{
name = _corner.leftBottomSerif;
origin = (1,1);
type = Corner;
},
{
name = _corner.rightBottomSerif;
origin = (1,2);
type = Corner;
},
{
name = _cap.flag;
origin = (1,3);
type = Cap;
}
);
layerId = m002;
shapes = (
{
closed = 1;
nodes = (
(177,591,o),
(201,615,o),
(201,654,cs),
(201,693,o),
(177,716,o),
(144,716,cs),
(110,716,o),
(86,693,o),
(86,654,cs),
(86,615,o),
(110,591,o),
(144,591,cs)
);
},
{
closed = 1;
nodes = (
(113,518,l),
(113,-7,l),
(192,-7,l),
(192,518,l)
);
}
);
width = 306;
}
);
unicode = 105;
},
{
glyphname = j;
lastChange = "2025-03-21 19:54:23 +0000";
layers = (
{
background = {
hints = (
{
name = _cap.flag;
origin = (0,0);
type = Cap;
}
);
shapes = (
{
closed = 1;
nodes = (
(196,505,l),
(121,505,l),
(121,-140,ls),
(121,-182,o),
(128,-237,o),
(96,-237,cs),
(70,-237,o),
(78,-212,o),
(71,-200,cs),
(66,-189,o),
(55,-181,o),
(43,-181,cs),
(25,-181,o),
(10,-197,o),
(10,-218,cs),
(10,-257,o),
(64,-264,o),
(95,-264,cs),
(135,-264,o),
(196,-236,o),
(196,-140,cs)
);
}
);
};
backgroundImage = {
imagePath = "specimen-images/12pt-lowerJ.jpg";
locked = 1;
pos = (-10,-355);
scale = (10.7,10.7);
};
layerId = m01;
shapes = (
{
closed = 1;
nodes = (
(189,505,l),
(114,505,l),
(114,-140,ls),
(114,-223,o),
(110,-237,o),
(89,-237,cs),
(63,-237,o),
(70,-213,o),
(64,-200,cs),
(59,-189,o),
(48,-181,o),
(36,-181,cs),
(18,-181,o),
(3,-197,o),
(3,-218,cs),
(3,-257,o),
(57,-264,o),
(88,-264,cs),
(128,-264,o),
(189,-236,o),
(189,-140,cs)
);
},
{
closed = 1;
nodes = (
(177,597,o),
(199,619,o),
(199,653,cs),
(199,687,o),
(177,708,o),
(144,708,cs),
(110,708,o),
(88,687,o),
(88,653,cs),
(88,619,o),
(110,597,o),
(144,597,cs)
);
}
);
width = 276;
},
{
background = {
hints = (
{
name = _cap.flag;
origin = (0,0);
type = Cap;
}
);
shapes = (
{
closed = 1;
nodes = (
(196,505,l),
(121,505,l),
(121,-140,ls),
(121,-182,o),
(128,-237,o),
(96,-237,cs),
(70,-237,o),
(78,-212,o),
(71,-200,cs),
(66,-189,o),
(55,-181,o),
(43,-181,cs),
(25,-181,o),
(10,-197,o),
(10,-218,cs),
(10,-257,o),
(64,-264,o),
(95,-264,cs),
(135,-264,o),
(196,-236,o),
(196,-140,cs)
);
}
);
};
backgroundImage = {
imagePath = "specimen-images/12pt-lowerJ.jpg";
locked = 1;
pos = (-10,-355);
scale = (10.7,10.7);
};
hints = (
{
name = _cap.flag;
origin = (0,0);
type = Cap;
}
);
layerId = m002;
shapes = (
{
closed = 1;
nodes = (
(191,512,l),
(112,512,l),
(112,-140,ls),
(112,-221,o),
(109,-230,o),
(89,-230,cs),
(73,-230,o),
(71,-224,o),
(69,-212,cs),
(68,-207,o),
(68,-201,o),
(66,-197,cs),
(59,-182,o),
(48,-174,o),
(36,-174,cs),
(18,-174,o),
(1,-192,o),
(1,-218,cs),
(1,-265,o),
(56,-271,o),
(88,-271,cs),
(127,-271,o),
(191,-242,o),
(191,-140,cs)
);
},
{
closed = 1;
nodes = (
(177,590,o),
(201,614,o),
(201,653,cs),
(201,692,o),
(177,715,o),
(144,715,cs),
(110,715,o),
(86,692,o),
(86,653,cs),
(86,614,o),
(110,590,o),
(144,590,cs)
);
}
);
width = 276;
}
);
unicode = 106;
},
{
glyphname = k;
lastChange = "2025-03-18 18:09:52 +0000";
layers = (
{
background = {
hints = (
{
name = _corner.leftBottomSerif;
type = Corner;
},
{
name = _corner.rightBottomSerif;
type = Corner;
},
{
name = _cap.flag;
type = Cap;
},
{
name = _corner.leftBottomSerif;
type = Corner;
},
{
name = _corner.rightBottomSerif;
options = 1;
type = Corner;
},
{
name = _corner.leftBottomSerif;
type = Corner;
},
{
name = _corner.rightBottomSerif;
type = Corner;
},
{
name = _cap.flag;
type = Cap;
},
{
name = _corner.leftBottomSerif;
type = Corner;
},
{
name = _corner.rightBottomSerif;
options = 1;
type = Corner;
},
{
name = _corner.leftBottomSerif;
origin = (0,1);
type = Corner;
},
{
name = _corner.rightBottomSerif;
origin = (0,2);
type = Corner;
},
{
name = _cap.flag;
origin = (0,3);
type = Cap;
},
{
name = _corner.leftBottomSerif;
origin = (1,1);
type = Corner;
},
{
name = _corner.rightBottomSerif;
options = 1;
origin = (1,2);
type = Corner;
}
);
shapes = (
{
closed = 1;
nodes = (
(122,752,l),
(122,0,l),
(197,0,l),
(197,752,l)
);
},
{
closed = 1;
nodes = (
(279,282,l),
(435,0,l),
(517,0,l),
(334,331,l)
);
},
{
closed = 1;
nodes = (
(503,495,o),
(473,491,o),
(443,491,cs),
(412,491,o),
(381,495,o),
(361,495,c),
(340,495,o),
(340,463,o),
(361,463,cs),
(400,463,o),
(426,453,o),
(392,423,c),
(154,210,l),
(184,188,l),
(441,422,ls),
(476,453,o),
(484,463,o),
(523,463,cs),
(543,463,o),
(542,495,o),
(522,495,cs)
);
}
);
};
backgroundImage = {
imagePath = "specimen-images/12pt-lowerK.jpg";
locked = 1;
pos = (10,-331);
scale = (10.7,10.7);
};
hints = (
{
name = _corner.leftBottomSerif;
origin = (0,1);
type = Corner;
},
{
name = _corner.rightBottomSerif;
origin = (0,2);
type = Corner;
},
{
name = _cap.flag;
origin = (0,3);
type = Cap;
},
{
name = _corner.leftBottomSerif;
origin = (1,1);
type = Corner;
},
{
name = _corner.rightBottomSerif;
options = 1;
origin = (1,2);
type = Corner;
}
);
layerId = m01;
shapes = (
{
closed = 1;
nodes = (
(115,752,l),
(115,0,l),
(190,0,l),
(190,752,l)
);
},
{
closed = 1;
nodes = (
(272,282,l),
(428,0,l),
(510,0,l),
(327,331,l)
);
},
{
closed = 1;
nodes = (
(496,495,o),
(466,491,o),
(436,491,cs),
(405,491,o),
(374,495,o),
(354,495,c),
(333,495,o),
(333,463,o),
(354,463,cs),
(393,463,o),
(418,454,o),
(352,394,cs),
(147,210,l),
(177,188,l),
(409,399,ls),
(469,453,o),
(481,463,o),
(516,463,cs),
(536,463,o),
(535,495,o),
(515,495,cs)
);
}
);
width = 596;
},
{
background = {
hints = (
{
name = _corner.leftBottomSerif;
type = Corner;
},
{
name = _corner.rightBottomSerif;
type = Corner;
},
{
name = _cap.flag;
type = Cap;
},
{
name = _corner.leftBottomSerif;
type = Corner;
},
{
name = _corner.rightBottomSerif;
options = 1;
type = Corner;
},
{
name = _corner.leftBottomSerif;
type = Corner;
},
{
name = _corner.rightBottomSerif;
type = Corner;
},
{
name = _cap.flag;
type = Cap;
},
{
name = _corner.leftBottomSerif;
type = Corner;
},
{
name = _corner.rightBottomSerif;
options = 1;
type = Corner;
},
{
name = _corner.leftBottomSerif;
origin = (0,1);
type = Corner;
},
{
name = _corner.rightBottomSerif;
origin = (0,2);
type = Corner;
},
{
name = _cap.flag;
origin = (0,3);
type = Cap;
},
{
name = _corner.leftBottomSerif;
origin = (1,1);
type = Corner;
},
{
name = _corner.rightBottomSerif;
options = 1;
origin = (1,2);
type = Corner;
}
);
shapes = (
{
closed = 1;
nodes = (
(122,752,l),
(122,0,l),
(197,0,l),
(197,752,l)
);
},
{
closed = 1;
nodes = (
(279,282,l),
(435,0,l),
(517,0,l),
(334,331,l)
);
},
{
closed = 1;
nodes = (
(503,495,o),
(473,491,o),
(443,491,cs),
(412,491,o),
(381,495,o),
(361,495,c),
(340,495,o),
(340,463,o),
(361,463,cs),
(400,463,o),
(426,453,o),
(392,423,c),
(154,210,l),
(184,188,l),
(441,422,ls),
(476,453,o),
(484,463,o),
(523,463,cs),
(543,463,o),
(542,495,o),
(522,495,cs)
);
}
);
};
backgroundImage = {
imagePath = "specimen-images/12pt-lowerK.jpg";
locked = 1;
pos = (10,-331);
scale = (10.7,10.7);
};
hints = (
{
name = _corner.leftBottomSerif;
origin = (0,1);
type = Corner;
},
{
name = _corner.rightBottomSerif;
origin = (0,2);
type = Corner;
},
{
name = _cap.flag;
origin = (0,3);
type = Cap;
},
{
name = _corner.leftBottomSerif;
origin = (1,1);
type = Corner;
},
{
name = _corner.rightBottomSerif;
options = 1;
origin = (1,2);
type = Corner;
}
);
layerId = m002;
shapes = (
{
closed = 1;
nodes = (
(113,759,l),
(113,-7,l),
(192,-7,l),
(192,759,l)
);
},
{
closed = 1;
nodes = (
(267,284,l),
(428,-7,l),
(517,-7,l),
(327,337,l)
);
},
{
closed = 1;
nodes = (
(507,502,o),
(497,501,o),
(484,500,cs),
(470,499,o),
(452,498,o),
(436,498,cs),
(420,498,o),
(401,499,o),
(386,500,cs),
(373,501,o),
(362,502,o),
(354,502,cs),
(331,502,o),
(330,456,o),
(354,456,cs),
(395,456,o),
(409,452,o),
(351,399,cs),
(139,209,l),
(177,182,l),
(410,394,ls),
(469,447,o),
(480,456,o),
(516,456,cs),
(539,456,o),
(537,502,o),
(515,502,cs)
);
}
);
width = 596;
}
);
unicode = 107;
},
{
glyphname = l;
lastChange = "2025-03-19 16:19:22 +0000";
layers = (
{
hints = (
{
name = _corner.leftBottomSerif;
origin = (0,1);
type = Corner;
},
{
name = _corner.rightBottomSerif;
origin = (0,2);
type = Corner;
},
{
name = _cap.flag;
origin = (0,3);
type = Cap;
},
{
name = _cap.flag;
origin = (0,3);
target = (0,1);
type = Cap;
}
);
layerId = m01;
shapes = (
{
closed = 1;
nodes = (
(115,752,l),
(115,0,l),
(190,0,l),
(190,752,l)
);
}
);
width = 306;
},
{
hints = (
{
name = _corner.leftBottomSerif;
origin = (0,1);
type = Corner;
},
{
name = _corner.rightBottomSerif;
origin = (0,2);
type = Corner;
},
{
name = _cap.flag;
origin = (0,3);
type = Cap;
},
{
name = _cap.flag;
origin = (0,3);
target = (0,1);
type = Cap;
}
);
layerId = m002;
shapes = (
{
closed = 1;
nodes = (
(113,759,l),
(113,-7,l),
(192,-7,l),
(192,759,l)
);
}
);
width = 306;
}
);
unicode = 108;
},
{
glyphname = m;
lastChange = "2025-03-18 18:09:52 +0000";
layers = (
{
background = {
hints = (
{
name = _corner.leftBottomSerif;
type = Corner;
},
{
name = _corner.rightBottomSerif;
type = Corner;
},
{
name = _cap.flag;
type = Cap;
},
{
name = _corner.leftBottomSerif;
type = Corner;
},
{
name = _corner.rightBottomSerif;
type = Corner;
},
{
name = _corner.leftBottomSerif;
type = Corner;
},
{
name = _corner.rightBottomSerif;
type = Corner;
},
{
name = _corner.leftBottomSerif;
origin = (0,0);
type = Corner;
},
{
name = _corner.rightBottomSerif;
origin = (0,1);
type = Corner;
}
);
shapes = (
{
closed = 1;
nodes = (
(683,0,l),
(758,0,l),
(758,405,l),
(758,477,o),
(744,505,o),
(663,505,cs),
(602,505,o),
(489,447,o),
(433,416,c),
(443,383,l),
(471,397,o),
(498,411,o),
(527,425,cs),
(552,437,o),
(618,462,o),
(641,462,cs),
(685,462,o),
(683,427,o),
(683,380,c)
);
}
);
};
backgroundImage = {
imagePath = "specimen-images/12pt-lowerM.jpg";
pos = (14,-331);
scale = (10.7,10.7);
};
hints = (
{
name = _corner.leftBottomSerif;
origin = (0,1);
type = Corner;
},
{
name = _corner.rightBottomSerif;
origin = (0,2);
type = Corner;
},
{
name = _cap.flag;
origin = (0,3);
type = Cap;
},
{
name = _corner.leftBottomSerif;
origin = (2,0);
type = Corner;
},
{
name = _corner.rightBottomSerif;
origin = (2,1);
type = Corner;
},
{
name = _corner.leftBottomSerif;
origin = (3,0);
type = Corner;
},
{
name = _corner.rightBottomSerif;
origin = (3,1);
type = Corner;
}
);
layerId = m01;
shapes = (
{
closed = 1;
nodes = (
(119,504,l),
(119,0,l),
(190,0,l),
(190,504,l)
);
},
{
closed = 0;
nodes = (
(463,407,l),
(463,408,l)
);
},
{
closed = 1;
nodes = (
(394,0,l),
(469,0,l),
(469,405,l),
(469,477,o),
(455,505,o),
(374,505,cs),
(313,505,o),
(200,447,o),
(144,416,c),
(154,383,l),
(182,397,o),
(209,411,o),
(238,425,cs),
(263,437,o),
(329,462,o),
(352,462,cs),
(385,462,o),
(394,448,o),
(394,380,cs)
);
},
{
closed = 1;
nodes = (
(676,0,l),
(751,0,l),
(751,405,l),
(751,477,o),
(737,505,o),
(656,505,cs),
(595,505,o),
(482,447,o),
(426,416,c),
(436,383,l),
(464,397,o),
(491,411,o),
(520,425,cs),
(545,437,o),
(611,462,o),
(634,462,cs),
(667,462,o),
(676,448,o),
(676,380,cs)
);
}
);
width = 862;
},
{
background = {
hints = (
{
name = _corner.leftBottomSerif;
type = Corner;
},
{
name = _corner.rightBottomSerif;
type = Corner;
},
{
name = _cap.flag;
type = Cap;
},
{
name = _corner.leftBottomSerif;
type = Corner;
},
{
name = _corner.rightBottomSerif;
type = Corner;
},
{
name = _corner.leftBottomSerif;
type = Corner;
},
{
name = _corner.rightBottomSerif;
type = Corner;
},
{
name = _corner.leftBottomSerif;
origin = (0,0);
type = Corner;
},
{
name = _corner.rightBottomSerif;
origin = (0,1);
type = Corner;
}
);
shapes = (
{
closed = 1;
nodes = (
(683,0,l),
(758,0,l),
(758,405,l),
(758,477,o),
(744,505,o),
(663,505,cs),
(602,505,o),
(489,447,o),
(433,416,c),
(443,383,l),
(471,397,o),
(498,411,o),
(527,425,cs),
(552,437,o),
(618,462,o),
(641,462,cs),
(685,462,o),
(683,427,o),
(683,380,c)
);
}
);
};
backgroundImage = {
imagePath = "specimen-images/12pt-lowerM.jpg";
pos = (14,-331);
scale = (10.7,10.7);
};
hints = (
{
name = _corner.leftBottomSerif;
origin = (0,1);
type = Corner;
},
{
name = _corner.rightBottomSerif;
origin = (0,2);
type = Corner;
},
{
name = _cap.flag;
origin = (0,3);
type = Cap;
},
{
name = _corner.leftBottomSerif;
origin = (2,0);
type = Corner;
},
{
name = _corner.rightBottomSerif;
origin = (2,1);
type = Corner;
},
{
name = _corner.leftBottomSerif;
origin = (3,0);
type = Corner;
},
{
name = _corner.rightBottomSerif;
origin = (3,1);
type = Corner;
}
);
layerId = m002;
shapes = (
{
closed = 1;
nodes = (
(117,511,l),
(117,-7,l),
(192,-7,l),
(192,511,l)
);
},
{
closed = 0;
nodes = (
(465,407,l),
(465,408,l)
);
},
{
closed = 1;
nodes = (
(392,-7,l),
(471,-7,l),
(471,405,ls),
(471,481,o),
(456,512,o),
(374,512,cs),
(313,512,o),
(196,452,o),
(140,421,c),
(154,376,l),
(160,379,o),
(173,386,o),
(183,391,cs),
(201,400,o),
(218,409,o),
(239,419,cs),
(262,430,o),
(329,455,o),
(352,455,cs),
(385,455,o),
(392,444,o),
(392,380,cs)
);
},
{
closed = 1;
nodes = (
(674,-7,l),
(753,-7,l),
(753,405,ls),
(753,481,o),
(738,512,o),
(656,512,cs),
(595,512,o),
(478,452,o),
(422,421,c),
(436,376,l),
(442,379,o),
(455,386,o),
(465,391,cs),
(483,400,o),
(500,409,o),
(521,419,cs),
(544,430,o),
(611,455,o),
(634,455,cs),
(667,455,o),
(674,444,o),
(674,380,cs)
);
}
);
width = 862;
}
);
unicode = 109;
},
{
glyphname = n;
lastChange = "2025-03-18 18:09:52 +0000";
layers = (
{
anchors = (
{
name = bottom;
pos = (325,0);
}
);
backgroundImage = {
imagePath = "specimen-images/12pt-lowerN.jpg";
locked = 1;
pos = (32,-326);
scale = (10.7,10.7);
};
hints = (
{
name = _corner.leftBottomSerif;
origin = (1,1);
type = Corner;
},
{
name = _corner.rightBottomSerif;
origin = (1,2);
type = Corner;
},
{
name = _corner.leftBottomSerif;
origin = (0,0);
type = Corner;
},
{
name = _corner.rightBottomSerif;
origin = (0,1);
type = Corner;
},
{
name = _cap.flag;
origin = (1,3);
type = Cap;
}
);
layerId = m01;
shapes = (
{
closed = 1;
nodes = (
(419,0,l),
(494,0,l),
(494,405,ls),
(494,477,o),
(454,505,o),
(373,505,cs),
(312,505,o),
(225,458,o),
(169,416,c),
(179,380,l),
(223,412,o),
(309,462,o),
(355,462,cs),
(399,462,o),
(419,427,o),
(419,380,cs)
);
},
{
closed = 1;
nodes = (
(115,504,l),
(115,0,l),
(190,0,l),
(190,504,l)
);
},
{
closed = 0;
nodes = (
(459,407,l),
(459,408,l)
);
}
);
width = 605;
},
{
anchors = (
{
name = bottom;
pos = (317,0);
}
);
associatedMasterId = m01;
backgroundImage = {
imagePath = "specimen-images/12pt-lowerN.jpg";
locked = 1;
pos = (17,-326);
scale = (10.7,10.7);
};
hints = (
{
name = _corner.leftBottomSerif;
origin = (1,1);
type = Corner;
},
{
name = _corner.rightBottomSerif;
origin = (1,2);
type = Corner;
},
{
name = _corner.leftBottomSerif;
origin = (0,0);
type = Corner;
},
{
name = _corner.rightBottomSerif;
origin = (0,1);
type = Corner;
},
{
name = _cap.flag;
origin = (1,3);
type = Cap;
}
);
layerId = "F39141E2-E0CB-49EB-B3B8-3495E401360D";
name = "Mar 8, 25 at 21:14";
shapes = (
{
closed = 1;
nodes = (
(411,0,l),
(486,0,l),
(486,408,l),
(486,480,o),
(472,508,o),
(400,508,cs),
(330,508,o),
(217,450,o),
(161,419,c),
(171,386,l),
(199,400,o),
(226,414,o),
(255,428,cs),
(280,440,o),
(319,454,o),
(342,454,cs),
(364,454,o),
(382,447,o),
(395,432,c),
(404,421,o),
(411,411,o),
(411,383,c)
);
},
{
closed = 1;
nodes = (
(107,504,l),
(107,0,l),
(182,0,l),
(182,504,l)
);
},
{
closed = 0;
nodes = (
(451,407,l),
(451,408,l)
);
}
);
width = 591;
},
{
anchors = (
{
name = bottom;
pos = (325,0);
}
);
backgroundImage = {
imagePath = "specimen-images/12pt-lowerN.jpg";
locked = 1;
pos = (32,-326);
scale = (10.7,10.7);
};
hints = (
{
name = _corner.leftBottomSerif;
origin = (1,1);
type = Corner;
},
{
name = _corner.rightBottomSerif;
origin = (1,2);
type = Corner;
},
{
name = _corner.leftBottomSerif;
origin = (0,0);
type = Corner;
},
{
name = _corner.rightBottomSerif;
origin = (0,1);
type = Corner;
},
{
name = _cap.flag;
origin = (1,3);
type = Cap;
}
);
layerId = m002;
shapes = (
{
closed = 1;
nodes = (
(417,-7,l),
(496,-7,l),
(496,405,ls),
(496,483,o),
(454,512,o),
(373,512,cs),
(312,512,o),
(223,464,o),
(165,420,c),
(178,373,l),
(220,404,o),
(308,455,o),
(355,455,cs),
(399,455,o),
(417,424,o),
(417,380,cs)
);
},
{
closed = 1;
nodes = (
(113,511,l),
(113,-7,l),
(192,-7,l),
(192,511,l)
);
},
{
closed = 0;
nodes = (
(461,407,l),
(461,408,l)
);
}
);
width = 605;
},
{
anchors = (
{
name = bottom;
pos = (317,0);
}
);
associatedMasterId = m002;
backgroundImage = {
imagePath = "specimen-images/12pt-lowerN.jpg";
locked = 1;
pos = (17,-326);
scale = (10.7,10.7);
};
hints = (
{
name = _corner.leftBottomSerif;
origin = (1,1);
type = Corner;
},
{
name = _corner.rightBottomSerif;
origin = (1,2);
type = Corner;
},
{
name = _corner.leftBottomSerif;
origin = (0,0);
type = Corner;
},
{
name = _corner.rightBottomSerif;
origin = (0,1);
type = Corner;
},
{
name = _cap.flag;
origin = (1,3);
type = Cap;
}
);
layerId = "5B944F92-E33D-4C00-853D-1241C623FB01";
name = "Mar 8, 25 at 21:14";
shapes = (
{
closed = 1;
nodes = (
(411,0,l),
(486,0,l),
(486,408,l),
(486,480,o),
(472,508,o),
(400,508,cs),
(330,508,o),
(217,450,o),
(161,419,c),
(171,386,l),
(199,400,o),
(226,414,o),
(255,428,cs),
(280,440,o),
(319,454,o),
(342,454,cs),
(364,454,o),
(382,447,o),
(395,432,c),
(404,421,o),
(411,411,o),
(411,383,c)
);
},
{
closed = 1;
nodes = (
(107,504,l),
(107,0,l),
(182,0,l),
(182,504,l)
);
},
{
closed = 0;
nodes = (
(451,407,l),
(451,408,l)
);
}
);
width = 591;
}
);
unicode = 110;
},
{
glyphname = o;
lastChange = "2025-03-19 16:19:22 +0000";
layers = (
{
backgroundImage = {
imagePath = "specimen-images/12pt-lowerO.jpg";
locked = 1;
pos = (-7,-326);
scale = (10.7,10.7);
};
layerId = m01;
shapes = (
{
closed = 1;
nodes = (
(414,74,o),
(342,29,o),
(267,29,cs),
(192,29,o),
(120,74,o),
(120,246,cs),
(120,418,o),
(192,460,o),
(267,460,cs),
(342,460,o),
(414,418,o),
(414,246,cs)
);
},
{
closed = 1;
nodes = (
(33,99,o),
(139,-16,o),
(267,-16,cs),
(395,-16,o),
(501,99,o),
(501,246,cs),
(501,393,o),
(395,505,o),
(267,505,cs),
(139,505,o),
(33,393,o),
(33,246,cs)
);
}
);
width = 534;
},
{
backgroundImage = {
imagePath = "specimen-images/12pt-lowerO.jpg";
locked = 1;
pos = (-7,-326);
scale = (10.7,10.7);
};
layerId = m002;
shapes = (
{
closed = 1;
nodes = (
(412,79,o),
(343,36,o),
(267,36,cs),
(191,36,o),
(122,79,o),
(122,246,cs),
(122,413,o),
(191,453,o),
(267,453,cs),
(343,453,o),
(412,413,o),
(412,246,cs)
);
},
{
closed = 1;
nodes = (
(31,94,o),
(139,-23,o),
(267,-23,cs),
(395,-23,o),
(503,94,o),
(503,246,cs),
(503,398,o),
(395,512,o),
(267,512,cs),
(139,512,o),
(31,398,o),
(31,246,cs)
);
}
);
width = 534;
}
);
metricRight = "=|";
unicode = 111;
},
{
glyphname = p;
lastChange = "2025-03-22 12:53:55 +0000";
layers = (
{
backgroundImage = {
imagePath = "specimen-images/12pt-lowerP.jpg";
locked = 1;
pos = (20,-335);
scale = (10.7,10.7);
};
guides = (
{
angle = 244.7223;
pos = (136,376);
}
);
hints = (
{
name = _cap.flag;
origin = (0,20);
type = Cap;
}
);
layerId = m01;
shapes = (
{
closed = 1;
nodes = (
(106,504,l),
(106,-174,ls),
(106,-220,o),
(88,-227,o),
(49,-227,cs),
(29,-227,o),
(29,-257,o),
(49,-257,cs),
(88,-257,o),
(109,-253,o),
(143,-253,cs),
(179,-253,o),
(218,-257,o),
(257,-257,c),
(278,-257,o),
(278,-226,o),
(257,-226,cs),
(218,-226,o),
(180,-226,o),
(180,-174,cs),
(180,504,l)
);
},
{
closed = 1;
nodes = (
(190,14,o),
(246,-16,o),
(301,-16,cs),
(430,-16,o),
(527,98,o),
(527,246,c),
(527,394,o),
(440,505,o),
(311,505,cs),
(205,505,o),
(152,423,o),
(152,340,c),
(180,321,l),
(188,413,o),
(241,460,o),
(312,460,cs),
(396,460,o),
(443,398,o),
(443,246,cs),
(443,93,o),
(390,34,o),
(302,34,cs),
(246,34,o),
(194,58,o),
(165,123,c),
(148,77,l)
);
}
);
width = 559;
},
{
backgroundImage = {
imagePath = "specimen-images/12pt-lowerP.jpg";
locked = 1;
pos = (20,-335);
scale = (10.7,10.7);
};
guides = (
{
angle = 244.7223;
pos = (136,376);
}
);
hints = (
{
name = _cap.flag;
origin = (0,20);
type = Cap;
},
{
name = _cap.flag;
origin = (0,26);
type = Cap;
}
);
layerId = m002;
shapes = (
{
closed = 1;
nodes = (
(104,511,l),
(104,-174,ls),
(104,-214,o),
(88,-220,o),
(49,-220,cs),
(26,-220,o),
(27,-264,o),
(49,-264,cs),
(68,-264,o),
(85,-263,o),
(99,-262,cs),
(113,-261,o),
(127,-260,o),
(143,-260,cs),
(160,-260,o),
(179,-261,o),
(198,-262,cs),
(217,-263,o),
(238,-264,o),
(257,-264,cs),
(280,-264,o),
(281,-219,o),
(257,-219,cs),
(218,-219,o),
(182,-219,o),
(182,-174,cs),
(182,511,l)
);
},
{
closed = 1;
nodes = (
(192,6,o),
(246,-17,o),
(301,-17,cs),
(430,-17,o),
(529,97,o),
(529,249,cs),
(529,401,o),
(440,512,o),
(311,512,cs),
(203,512,o),
(148,423,o),
(150,335,c),
(181,313,l),
(187,406,o),
(239,453,o),
(312,453,cs),
(396,453,o),
(441,397,o),
(441,249,cs),
(441,101,o),
(390,49,o),
(302,49,cs),
(244,49,o),
(195,78,o),
(165,143,c),
(145,73,l)
);
}
);
width = 559;
}
);
unicode = 112;
},
{
glyphname = q;
lastChange = "2025-03-22 12:53:34 +0000";
layers = (
{
backgroundImage = {
imagePath = "specimen-images/12pt-lowerQ.jpg";
locked = 1;
pos = (5,-333);
scale = (10.7,10.7);
};
hints = (
{
name = _corner.leftBottomSerif;
options = 1;
origin = (0,1);
scale = (1,-1);
type = Corner;
},
{
name = _corner.leftBottomSerif;
origin = (0,0);
type = Corner;
}
);
layerId = m01;
shapes = (
{
closed = 1;
nodes = (
(382,-254,l),
(457,-254,l),
(457,404,l),
(457,438,o),
(461,467,o),
(461,485,c),
(461,501,o),
(456,504,o),
(444,504,c),
(429,504,o),
(413,491,o),
(396,478,c),
(373,460,o),
(346,457,o),
(335,457,c),
(382,399,l)
);
},
{
closed = 1;
nodes = (
(416,175,l),
(396,121,o),
(338,35,o),
(252,35,cs),
(164,35,o),
(117,96,o),
(117,249,cs),
(117,401,o),
(174,456,o),
(258,456,cs),
(323,456,o),
(371,416,o),
(383,332,c),
(419,339,l),
(413,401,o),
(359,505,o),
(242,505,cs),
(130,505,o),
(33,397,o),
(33,249,c),
(33,101,o),
(124,-15,o),
(243,-15,cs),
(348,-15,o),
(404,88,o),
(436,140,c)
);
}
);
width = 527;
},
{
backgroundImage = {
imagePath = "specimen-images/12pt-lowerQ.jpg";
locked = 1;
pos = (5,-333);
scale = (10.7,10.7);
};
hints = (
{
name = _corner.leftBottomSerif;
options = 1;
origin = (0,1);
scale = (1,-1);
type = Corner;
},
{
name = _corner.leftBottomSerif;
origin = (0,0);
type = Corner;
}
);
layerId = m002;
shapes = (
{
closed = 1;
nodes = (
(380,-261,l),
(459,-261,l),
(459,404,ls),
(459,422,o),
(460,442,o),
(461,456,cs),
(462,468,o),
(463,478,o),
(463,485,cs),
(463,506,o),
(456,511,o),
(444,511,cs),
(430,511,o),
(413,498,o),
(395,484,cs),
(373,467,o),
(346,464,o),
(335,464,c),
(333,453,l),
(380,395,l)
);
},
{
closed = 1;
nodes = (
(416,190,l),
(399,140,o),
(341,50,o),
(252,50,cs),
(164,50,o),
(119,103,o),
(119,252,cs),
(119,399,o),
(174,449,o),
(258,449,cs),
(325,449,o),
(372,409,o),
(382,325,c),
(421,333,l),
(419,396,o),
(364,512,o),
(242,512,cs),
(130,512,o),
(31,405,o),
(31,252,cs),
(31,100,o),
(124,-14,o),
(243,-14,cs),
(350,-14,o),
(407,95,o),
(440,148,c)
);
}
);
width = 527;
}
);
unicode = 113;
},
{
glyphname = r;
lastChange = "2025-03-18 18:09:52 +0000";
layers = (
{
backgroundImage = {
imagePath = "specimen-images/12pt-lowerR.jpg";
locked = 1;
pos = (30,-334);
scale = (10.7,10.7);
};
hints = (
{
name = _corner.leftBottomSerif;
origin = (0,1);
type = Corner;
},
{
name = _corner.rightBottomSerif;
origin = (0,2);
type = Corner;
},
{
name = _cap.flag;
origin = (0,3);
type = Cap;
}
);
layerId = m01;
shapes = (
{
closed = 1;
nodes = (
(115,504,l),
(115,0,l),
(190,0,l),
(190,504,l)
);
},
{
closed = 1;
nodes = (
(359,410,o),
(371,439,o),
(371,463,cs),
(371,486,o),
(352,505,o),
(329,505,cs),
(298,505,o),
(270,492,o),
(250,478,cs),
(224,460,o),
(207,438,o),
(184,408,c),
(184,376,l),
(207,399,o),
(225,413,o),
(252,424,cs),
(283,436,o),
(292,410,o),
(329,410,cs)
);
}
);
width = 389;
},
{
backgroundImage = {
imagePath = "specimen-images/12pt-lowerR.jpg";
locked = 1;
pos = (30,-334);
scale = (10.7,10.7);
};
hints = (
{
name = _corner.leftBottomSerif;
origin = (0,1);
type = Corner;
},
{
name = _corner.rightBottomSerif;
origin = (0,2);
type = Corner;
},
{
name = _cap.flag;
origin = (0,3);
type = Cap;
}
);
layerId = m002;
shapes = (
{
closed = 1;
nodes = (
(113,511,l),
(113,-7,l),
(192,-7,l),
(192,511,l)
);
},
{
closed = 1;
nodes = (
(359,403,o),
(373,436,o),
(373,463,cs),
(373,491,o),
(352,512,o),
(329,512,cs),
(299,512,o),
(272,500,o),
(249,484,cs),
(224,467,o),
(206,443,o),
(182,412,c),
(182,368,l),
(204,390,o),
(223,405,o),
(253,417,cs),
(268,423,o),
(280,419,o),
(291,414,cs),
(301,409,o),
(314,403,o),
(329,403,cs)
);
}
);
width = 389;
}
);
unicode = 114;
},
{
glyphname = s;
lastChange = "2025-03-19 15:51:05 +0000";
layers = (
{
background = {
shapes = (
{
closed = 1;
nodes = (
(162,233,o),
(110,264,cs),
(68,289,o),
(45,333,o),
(45,376,cs),
(45,472,o),
(135,505,o),
(205,505,cs),
(271,505,o),
(325,479,o),
(347,468,c),
(347,367,ls),
(347,360,o),
(341,356,o),
(336,356,cs),
(330,356,o),
(324,360,o),
(323,367,cs),
(310,422,o),
(262,470,o),
(193,470,cs),
(142,470,o),
(99,442,o),
(99,402,cs),
(99,366,o),
(114,349,o),
(153,329,cs),
(212,298,o),
(249,278,o),
(284,257,cs),
(335,226,o),
(381,198,o),
(381,137,cs),
(381,32,o),
(280,-16,o),
(196,-16,cs),
(123,-16,o),
(71,14,o),
(46,27,c),
(46,138,ls),
(46,147,o),
(54,151,o),
(61,151,cs),
(65,151,o),
(69,149,o),
(71,146,cs),
(103,76,o),
(131,22,o),
(208,22,cs),
(257,22,o),
(325,45,o),
(325,104,cs),
(325,142,o),
(286,163,o),
(248,185,cs),
(215,202,o)
);
}
);
};
backgroundImage = {
imagePath = "specimen-images/12pt-lowerS.jpg";
locked = 1;
pos = (18,-336);
scale = (10.7,10.7);
};
layerId = m01;
shapes = (
{
closed = 1;
nodes = (
(318,160,o),
(217,204,o),
(180,220,cs),
(162,228,ls),
(110,251,o),
(38,294,o),
(38,376,cs),
(38,472,o),
(128,505,o),
(198,505,cs),
(264,505,o),
(318,479,o),
(340,468,c),
(340,367,ls),
(340,360,o),
(334,356,o),
(329,356,cs),
(323,356,o),
(317,360,o),
(316,367,cs),
(303,422,o),
(255,470,o),
(186,470,cs),
(135,470,o),
(92,442,o),
(92,402,cs),
(92,344,o),
(155,315,o),
(197,296,cs),
(215,288,ls),
(263,267,o),
(374,218,o),
(374,137,cs),
(374,32,o),
(273,-16,o),
(189,-16,cs),
(116,-16,o),
(64,14,o),
(39,27,c),
(39,138,ls),
(39,147,o),
(47,151,o),
(54,151,cs),
(58,151,o),
(62,149,o),
(64,146,cs),
(96,76,o),
(124,23,o),
(201,23,cs),
(275,23,o),
(318,57,o),
(318,104,cs)
);
}
);
width = 403;
},
{
associatedMasterId = m01;
backgroundImage = {
imagePath = "specimen-images/12pt-lowerS.jpg";
locked = 1;
pos = (12,-336);
scale = (10.7,10.7);
};
layerId = "CE4735F0-D95C-42DD-B14C-6ADB4FC847E9";
name = "Feb 26, 25 at 09:46";
shapes = (
{
closed = 1;
nodes = (
(40,142,ls),
(40,156,o),
(51,169,o),
(55,160,cs),
(66,136,o),
(77,97,o),
(109,68,cs),
(132,47,o),
(154,34,o),
(200,34,cs),
(249,34,o),
(322,51,o),
(322,110,cs),
(322,169,o),
(255,188,o),
(192,220,cs),
(103,265,o),
(49,288,o),
(49,376,cs),
(49,464,o),
(130,504,o),
(194,504,cs),
(250,504,o),
(308,470,o),
(338,449,c),
(338,366,ls),
(338,352,o),
(326,356,o),
(323,366,cs),
(317,385,o),
(307,408,o),
(280,431,cs),
(262,446,o),
(240,459,o),
(194,459,cs),
(130,459,o),
(103,433,o),
(103,395,cs),
(103,344,o),
(157,332,o),
(217,297,cs),
(287,256,o),
(375,219,o),
(375,133,cs),
(375,28,o),
(278,-11,o),
(200,-11,cs),
(127,-11,o),
(65,18,o),
(40,31,c)
);
}
);
width = 399;
},
{
associatedMasterId = m01;
backgroundImage = {
imagePath = "specimen-images/12pt-lowerS.jpg";
locked = 1;
pos = (12,-336);
scale = (10.7,10.7);
};
layerId = "C02F5396-6023-4723-860F-4A7102BF87D8";
name = "Feb 26, 25 at 10:30";
shapes = (
{
closed = 1;
nodes = (
(40,142,ls),
(40,156,o),
(51,169,o),
(55,160,cs),
(66,136,o),
(77,97,o),
(109,68,cs),
(132,47,o),
(154,34,o),
(200,34,cs),
(249,34,o),
(322,51,o),
(322,110,cs),
(322,169,o),
(255,188,o),
(192,220,cs),
(103,265,o),
(49,288,o),
(49,376,cs),
(49,464,o),
(130,504,o),
(194,504,cs),
(250,504,o),
(308,470,o),
(338,449,c),
(338,366,ls),
(338,352,o),
(326,356,o),
(323,366,cs),
(317,385,o),
(307,408,o),
(280,431,cs),
(262,446,o),
(240,459,o),
(194,459,cs),
(130,459,o),
(103,433,o),
(103,395,cs),
(103,344,o),
(157,332,o),
(217,297,cs),
(287,256,o),
(375,219,o),
(375,133,cs),
(375,28,o),
(278,-11,o),
(200,-11,cs),
(127,-11,o),
(65,18,o),
(40,31,c)
);
},
{
closed = 1;
nodes = (
(40,142,ls),
(40,156,o),
(51,169,o),
(55,160,cs),
(66,136,o),
(77,97,o),
(109,68,cs),
(132,47,o),
(154,34,o),
(200,34,cs),
(249,34,o),
(322,51,o),
(322,110,cs),
(322,169,o),
(255,188,o),
(192,220,cs),
(103,265,o),
(49,288,o),
(49,376,cs),
(49,464,o),
(130,504,o),
(194,504,cs),
(250,504,o),
(308,470,o),
(338,449,c),
(338,366,ls),
(338,352,o),
(326,356,o),
(323,366,cs),
(317,385,o),
(307,408,o),
(280,431,cs),
(262,446,o),
(240,459,o),
(194,459,cs),
(130,459,o),
(103,433,o),
(103,395,cs),
(103,344,o),
(157,332,o),
(217,297,cs),
(287,256,o),
(375,219,o),
(375,133,cs),
(375,28,o),
(278,-11,o),
(200,-11,cs),
(127,-11,o),
(65,18,o),
(40,31,c)
);
}
);
width = 399;
},
{
background = {
shapes = (
{
closed = 1;
nodes = (
(162,233,o),
(110,264,cs),
(68,289,o),
(45,333,o),
(45,376,cs),
(45,472,o),
(135,505,o),
(205,505,cs),
(271,505,o),
(325,479,o),
(347,468,c),
(347,367,ls),
(347,360,o),
(341,356,o),
(336,356,cs),
(330,356,o),
(324,360,o),
(323,367,cs),
(310,422,o),
(262,470,o),
(193,470,cs),
(142,470,o),
(99,442,o),
(99,402,cs),
(99,366,o),
(114,349,o),
(153,329,cs),
(212,298,o),
(249,278,o),
(284,257,cs),
(335,226,o),
(381,198,o),
(381,137,cs),
(381,32,o),
(280,-16,o),
(196,-16,cs),
(123,-16,o),
(71,14,o),
(46,27,c),
(46,138,ls),
(46,147,o),
(54,151,o),
(61,151,cs),
(65,151,o),
(69,149,o),
(71,146,cs),
(103,76,o),
(131,22,o),
(208,22,cs),
(257,22,o),
(325,45,o),
(325,104,cs),
(325,142,o),
(286,163,o),
(248,185,cs),
(215,202,o)
);
}
);
};
backgroundImage = {
imagePath = "specimen-images/12pt-lowerS.jpg";
locked = 1;
pos = (18,-336);
scale = (10.7,10.7);
};
layerId = m002;
shapes = (
{
closed = 1;
nodes = (
(64,7,o),
(116,-23,o),
(189,-23,cs),
(273,-23,o),
(376,26,o),
(376,137,cs),
(376,221,o),
(262,273,o),
(216,294,cs),
(198,302,ls),
(154,321,o),
(94,350,o),
(94,402,cs),
(94,436,o),
(135,463,o),
(186,463,cs),
(255,463,o),
(302,417,o),
(314,366,c),
(315,357,o),
(321,349,o),
(329,349,cs),
(336,349,o),
(342,357,o),
(342,367,cs),
(342,474,l),
(320,485,o),
(264,512,o),
(198,512,cs),
(128,512,o),
(36,478,o),
(36,376,cs),
(36,288,o),
(111,244,o),
(161,222,cs),
(179,214,ls),
(223,195,o),
(316,152,o),
(316,104,cs),
(316,63,o),
(275,30,o),
(201,30,cs),
(123,30,o),
(97,81,o),
(66,149,c),
(63,154,o),
(60,158,o),
(54,158,cs),
(45,158,o),
(37,151,o),
(37,138,cs),
(37,21,l)
);
}
);
width = 403;
},
{
associatedMasterId = m002;
backgroundImage = {
imagePath = "specimen-images/12pt-lowerS.jpg";
locked = 1;
pos = (12,-336);
scale = (10.7,10.7);
};
layerId = "66834235-6537-4491-9296-8F950A7FD62E";
name = "Feb 26, 25 at 09:46";
shapes = (
{
closed = 1;
nodes = (
(40,142,ls),
(40,156,o),
(51,169,o),
(55,160,cs),
(66,136,o),
(77,97,o),
(109,68,cs),
(132,47,o),
(154,34,o),
(200,34,cs),
(249,34,o),
(322,51,o),
(322,110,cs),
(322,169,o),
(255,188,o),
(192,220,cs),
(103,265,o),
(49,288,o),
(49,376,cs),
(49,464,o),
(130,504,o),
(194,504,cs),
(250,504,o),
(308,470,o),
(338,449,c),
(338,366,ls),
(338,352,o),
(326,356,o),
(323,366,cs),
(317,385,o),
(307,408,o),
(280,431,cs),
(262,446,o),
(240,459,o),
(194,459,cs),
(130,459,o),
(103,433,o),
(103,395,cs),
(103,344,o),
(157,332,o),
(217,297,cs),
(287,256,o),
(375,219,o),
(375,133,cs),
(375,28,o),
(278,-11,o),
(200,-11,cs),
(127,-11,o),
(65,18,o),
(40,31,c)
);
}
);
width = 399;
},
{
associatedMasterId = m002;
backgroundImage = {
imagePath = "specimen-images/12pt-lowerS.jpg";
locked = 1;
pos = (12,-336);
scale = (10.7,10.7);
};
layerId = "96422863-8B08-4FCC-A9DD-5245D17AD21D";
name = "Feb 26, 25 at 10:30";
shapes = (
{
closed = 1;
nodes = (
(40,142,ls),
(40,156,o),
(51,169,o),
(55,160,cs),
(66,136,o),
(77,97,o),
(109,68,cs),
(132,47,o),
(154,34,o),
(200,34,cs),
(249,34,o),
(322,51,o),
(322,110,cs),
(322,169,o),
(255,188,o),
(192,220,cs),
(103,265,o),
(49,288,o),
(49,376,cs),
(49,464,o),
(130,504,o),
(194,504,cs),
(250,504,o),
(308,470,o),
(338,449,c),
(338,366,ls),
(338,352,o),
(326,356,o),
(323,366,cs),
(317,385,o),
(307,408,o),
(280,431,cs),
(262,446,o),
(240,459,o),
(194,459,cs),
(130,459,o),
(103,433,o),
(103,395,cs),
(103,344,o),
(157,332,o),
(217,297,cs),
(287,256,o),
(375,219,o),
(375,133,cs),
(375,28,o),
(278,-11,o),
(200,-11,cs),
(127,-11,o),
(65,18,o),
(40,31,c)
);
},
{
closed = 1;
nodes = (
(40,142,ls),
(40,156,o),
(51,169,o),
(55,160,cs),
(66,136,o),
(77,97,o),
(109,68,cs),
(132,47,o),
(154,34,o),
(200,34,cs),
(249,34,o),
(322,51,o),
(322,110,cs),
(322,169,o),
(255,188,o),
(192,220,cs),
(103,265,o),
(49,288,o),
(49,376,cs),
(49,464,o),
(130,504,o),
(194,504,cs),
(250,504,o),
(308,470,o),
(338,449,c),
(338,366,ls),
(338,352,o),
(326,356,o),
(323,366,cs),
(317,385,o),
(307,408,o),
(280,431,cs),
(262,446,o),
(240,459,o),
(194,459,cs),
(130,459,o),
(103,433,o),
(103,395,cs),
(103,344,o),
(157,332,o),
(217,297,cs),
(287,256,o),
(375,219,o),
(375,133,cs),
(375,28,o),
(278,-11,o),
(200,-11,cs),
(127,-11,o),
(65,18,o),
(40,31,c)
);
}
);
width = 399;
}
);
unicode = 115;
},
{
glyphname = t;
lastChange = "2025-03-18 18:09:52 +0000";
layers = (
{
backgroundImage = {
imagePath = "specimen-images/12pt-lowerT.jpg";
locked = 1;
pos = (2,-334);
scale = (10.7,10.7);
};
layerId = m01;
shapes = (
{
closed = 1;
nodes = (
(99,21,o),
(133,-16,o),
(208,-16,cs),
(275,-16,o),
(297,40,o),
(299,48,cs),
(305,67,o),
(294,78,o),
(284,66,cs),
(276,57,o),
(259,31,o),
(216,31,cs),
(173,31,o),
(174,70,o),
(174,104,cs),
(174,458,l),
(209,458,o),
(269,457,o),
(278,456,cs),
(301,454,o),
(302,497,o),
(278,495,cs),
(269,494,o),
(209,493,o),
(174,493,c),
(174,683,ls),
(174,716,o),
(130,716,o),
(130,683,cs),
(130,603,o),
(144,495,o),
(16,495,cs),
(-8,495,o),
(-7,455,o),
(16,456,cs),
(99,459,l),
(99,104,ls)
);
},
{
closed = 0;
nodes = (
(88,36,l)
);
}
);
width = 344;
},
{
backgroundImage = {
imagePath = "specimen-images/12pt-lowerT.jpg";
locked = 1;
pos = (2,-334);
scale = (10.7,10.7);
};
layerId = m002;
shapes = (
{
closed = 1;
nodes = (
(97,16,o),
(133,-23,o),
(208,-23,cs),
(276,-23,o),
(298,35,o),
(301,46,cs),
(308,68,o),
(296,87,o),
(282,71,cs),
(275,63,o),
(259,38,o),
(216,38,cs),
(175,38,o),
(176,69,o),
(176,104,cs),
(176,451,l),
(210,451,o),
(269,450,o),
(278,449,cs),
(303,447,o),
(304,504,o),
(278,502,cs),
(269,501,o),
(210,500,o),
(176,500,c),
(176,683,ls),
(176,725,o),
(128,725,o),
(128,683,cs),
(128,601,o),
(142,502,o),
(16,502,cs),
(-11,502,o),
(-9,448,o),
(16,449,cs),
(97,452,l),
(97,104,ls)
);
}
);
width = 344;
}
);
unicode = 116;
},
{
glyphname = u;
lastChange = "2025-03-18 18:09:52 +0000";
layers = (
{
backgroundImage = {
imagePath = "specimen-images/12pt-lowerU.jpg";
pos = (41,-331);
scale = (10.7,10.7);
};
hints = (
{
name = _corner.rightBottomSerif;
origin = (0,0);
type = Corner;
},
{
name = _cap.flag;
origin = (0,1);
type = Cap;
},
{
name = _cap.flag;
origin = (2,0);
type = Cap;
}
);
layerId = m01;
shapes = (
{
closed = 1;
nodes = (
(474,0,l),
(474,505,l),
(399,505,l),
(399,-3,l)
);
},
{
closed = 0;
nodes = (
(126,81,l),
(126,80,l)
);
},
{
closed = 1;
nodes = (
(180,505,l),
(105,505,l),
(105,84,l),
(105,12,o),
(119,-16,o),
(200,-16,cs),
(261,-16,o),
(374,42,o),
(430,73,c),
(420,106,l),
(392,92,o),
(365,78,o),
(336,64,cs),
(311,52,o),
(245,27,o),
(222,27,cs),
(178,27,o),
(180,62,o),
(180,109,c)
);
}
);
width = 590;
},
{
backgroundImage = {
imagePath = "specimen-images/12pt-lowerU.jpg";
pos = (41,-331);
scale = (10.7,10.7);
};
hints = (
{
name = _corner.rightBottomSerif;
origin = (0,0);
type = Corner;
},
{
name = _cap.flag;
origin = (0,1);
type = Cap;
},
{
name = _cap.flag;
origin = (2,0);
type = Cap;
}
);
layerId = m002;
shapes = (
{
closed = 1;
nodes = (
(476,-7,l),
(476,512,l),
(397,512,l),
(397,-10,l)
);
},
{
closed = 0;
nodes = (
(124,81,l),
(124,80,l)
);
},
{
closed = 1;
nodes = (
(182,512,l),
(103,512,l),
(103,84,ls),
(103,8,o),
(118,-23,o),
(200,-23,cs),
(261,-23,o),
(378,37,o),
(434,68,c),
(420,113,l),
(414,110,o),
(401,103,o),
(391,98,cs),
(373,89,o),
(356,80,o),
(335,70,cs),
(312,59,o),
(245,34,o),
(222,34,cs),
(180,34,o),
(182,61,o),
(182,109,cs)
);
}
);
width = 590;
}
);
unicode = 117;
},
{
glyphname = v;
lastChange = "2025-03-18 18:09:52 +0000";
layers = (
{
backgroundImage = {
imagePath = "specimen-images/12pt-lowerV.jpg";
locked = 1;
pos = (7,-331);
scale = (10.7,10.7);
};
hints = (
{
name = _corner.rightBottomSerif;
options = 1;
origin = (0,12);
type = Corner;
},
{
name = _corner.leftBottomSerif;
origin = (0,11);
type = Corner;
},
{
name = _corner.rightBottomSerif;
options = 1;
origin = (0,9);
type = Corner;
},
{
name = _corner.leftBottomSerif;
origin = (0,8);
type = Corner;
}
);
layerId = m01;
shapes = (
{
closed = 1;
nodes = (
(236,12,ls),
(239,4,o),
(245,0,o),
(253,0,cs),
(289,0,ls),
(297,0,o),
(303,4,o),
(306,12,cs),
(489,494,l),
(440,494,l),
(287,76,l),
(134,494,l),
(54,494,l)
);
}
);
width = 541;
},
{
backgroundImage = {
imagePath = "specimen-images/12pt-lowerV.jpg";
locked = 1;
pos = (7,-331);
scale = (10.7,10.7);
};
hints = (
{
name = _corner.rightBottomSerif;
options = 1;
origin = (0,12);
type = Corner;
},
{
name = _corner.leftBottomSerif;
origin = (0,11);
type = Corner;
},
{
name = _corner.rightBottomSerif;
options = 1;
origin = (0,9);
type = Corner;
},
{
name = _corner.leftBottomSerif;
origin = (0,8);
type = Corner;
}
);
layerId = m002;
shapes = (
{
closed = 1;
nodes = (
(234,10,ls),
(238,-1,o),
(243,-7,o),
(253,-7,cs),
(289,-7,ls),
(299,-7,o),
(304,-1,o),
(308,10,cs),
(494,501,l),
(440,501,l),
(287,84,l),
(134,501,l),
(49,501,l)
);
}
);
width = 541;
}
);
unicode = 118;
},
{
glyphname = w;
lastChange = "2025-03-18 18:09:52 +0000";
layers = (
{
backgroundImage = {
imagePath = "specimen-images/12pt-lowerW.jpg";
locked = 1;
pos = (18,-331);
scale = (10.7,10.7);
};
hints = (
{
name = _corner.leftBottomSerif;
origin = (1,2);
type = Corner;
},
{
name = _corner.rightBottomSerif;
options = 1;
origin = (1,3);
type = Corner;
},
{
name = _corner.leftBottomSerif;
origin = (1,2);
type = Corner;
},
{
name = _corner.rightBottomSerif;
options = 1;
origin = (1,3);
type = Corner;
},
{
name = _corner.leftBottomSerif;
origin = (0,8);
type = Corner;
},
{
name = _corner.rightBottomSerif;
options = 1;
origin = (0,9);
type = Corner;
},
{
name = _corner.leftBottomSerif;
origin = (0,11);
type = Corner;
},
{
name = _corner.rightBottomSerif;
options = 1;
origin = (0,12);
type = Corner;
}
);
layerId = m01;
shapes = (
{
closed = 1;
nodes = (
(504,12,ls),
(507,3,o),
(513,0,o),
(521,0,cs),
(555,0,ls),
(563,0,o),
(569,3,o),
(572,12,cs),
(743,494,l),
(696,494,l),
(555,76,l),
(414,494,l),
(333,494,l)
);
},
{
closed = 1;
nodes = (
(400,388,l),
(287,76,l),
(134,494,l),
(54,494,l),
(235,12,ls),
(238,3,o),
(244,0,o),
(252,0,cs),
(283,0,ls),
(291,0,o),
(297,3,o),
(300,12,cs),
(428,353,l)
);
}
);
width = 796;
},
{
backgroundImage = {
imagePath = "specimen-images/12pt-lowerW.jpg";
locked = 1;
pos = (18,-331);
scale = (10.7,10.7);
};
hints = (
{
name = _corner.leftBottomSerif;
origin = (1,2);
type = Corner;
},
{
name = _corner.rightBottomSerif;
options = 1;
origin = (1,3);
type = Corner;
},
{
name = _corner.leftBottomSerif;
origin = (1,2);
type = Corner;
},
{
name = _corner.rightBottomSerif;
options = 1;
origin = (1,3);
type = Corner;
},
{
name = _corner.leftBottomSerif;
origin = (0,8);
type = Corner;
},
{
name = _corner.rightBottomSerif;
options = 1;
origin = (0,9);
type = Corner;
},
{
name = _corner.leftBottomSerif;
origin = (0,11);
type = Corner;
},
{
name = _corner.rightBottomSerif;
options = 1;
origin = (0,12);
type = Corner;
}
);
layerId = m002;
shapes = (
{
closed = 1;
nodes = (
(502,10,ls),
(506,-2,o),
(511,-7,o),
(521,-7,cs),
(555,-7,ls),
(565,-7,o),
(570,-2,o),
(574,10,cs),
(748,501,l),
(696,501,l),
(555,84,l),
(414,501,l),
(328,501,l)
);
},
{
closed = 1;
nodes = (
(400,395,l),
(287,84,l),
(134,501,l),
(49,501,l),
(233,10,ls),
(237,-2,o),
(242,-7,o),
(252,-7,cs),
(283,-7,ls),
(293,-7,o),
(298,-2,o),
(302,10,cs),
(432,355,l)
);
}
);
width = 796;
}
);
unicode = 119;
},
{
glyphname = x;
lastChange = "2025-03-18 18:09:52 +0000";
layers = (
{
backgroundImage = {
imagePath = "specimen-images/12pt-lowerX.jpg";
locked = 1;
pos = (5,-331);
scale = (10.7,10.7);
};
hints = (
{
name = _corner.leftBottomSerif;
origin = (0,0);
type = Corner;
},
{
name = _corner.rightBottomSerif;
options = 1;
origin = (0,1);
type = Corner;
},
{
name = _corner.leftBottomSerif;
origin = (0,2);
type = Corner;
},
{
name = _corner.rightBottomSerif;
options = 1;
origin = (0,3);
type = Corner;
},
{
name = _corner.rightBottomSerif;
origin = (1,1);
scale = (-1,1);
type = Corner;
},
{
name = _corner.rightBottomSerif;
options = 1;
origin = (1,2);
type = Corner;
},
{
name = _corner.rightBottomSerif;
origin = (2,1);
scale = (-1,1);
type = Corner;
},
{
name = _corner.rightBottomSerif;
options = 1;
origin = (2,2);
type = Corner;
}
);
layerId = m01;
shapes = (
{
closed = 1;
nodes = (
(147,494,l),
(58,494,l),
(396,0,l),
(484,0,l)
);
},
{
closed = 1;
nodes = (
(294,243,l),
(477,494,l),
(415,494,l),
(254,262,l)
);
},
{
closed = 1;
nodes = (
(236,251,l),
(45,0,l),
(112,0,l),
(277,227,l)
);
}
);
width = 533;
},
{
backgroundImage = {
imagePath = "specimen-images/12pt-lowerX.jpg";
locked = 1;
pos = (5,-331);
scale = (10.7,10.7);
};
hints = (
{
name = _corner.leftBottomSerif;
origin = (0,0);
type = Corner;
},
{
name = _corner.rightBottomSerif;
options = 1;
origin = (0,1);
type = Corner;
},
{
name = _corner.leftBottomSerif;
origin = (0,2);
type = Corner;
},
{
name = _corner.rightBottomSerif;
options = 1;
origin = (0,3);
type = Corner;
},
{
name = _corner.rightBottomSerif;
origin = (1,1);
scale = (-1,1);
type = Corner;
},
{
name = _corner.rightBottomSerif;
options = 1;
origin = (1,2);
type = Corner;
},
{
name = _corner.rightBottomSerif;
origin = (2,1);
scale = (-1,1);
type = Corner;
},
{
name = _corner.rightBottomSerif;
options = 1;
origin = (2,2);
type = Corner;
}
);
layerId = m002;
shapes = (
{
closed = 1;
nodes = (
(147,501,l),
(49,501,l),
(396,-7,l),
(493,-7,l)
);
},
{
closed = 1;
nodes = (
(294,236,l),
(487,501,l),
(415,501,l),
(247,259,l)
);
},
{
closed = 1;
nodes = (
(236,258,l),
(35,-7,l),
(112,-7,l),
(284,230,l)
);
}
);
width = 533;
}
);
unicode = 120;
},
{
glyphname = y;
lastChange = "2025-03-18 18:09:52 +0000";
layers = (
{
backgroundImage = {
imagePath = "specimen-images/12pt-lowerY.jpg";
locked = 1;
pos = (20,-342);
scale = (10.7,10.7);
};
hints = (
{
name = _corner.leftBottomSerif;
origin = (0,12);
type = Corner;
},
{
name = _corner.rightBottomSerif;
options = 1;
origin = (0,13);
type = Corner;
},
{
name = _corner.leftBottomSerif;
origin = (1,2);
type = Corner;
},
{
name = _corner.rightBottomSerif;
options = 1;
origin = (1,3);
type = Corner;
}
);
layerId = m01;
shapes = (
{
closed = 1;
nodes = (
(65,-164,o),
(45,-158,o),
(22,-176,cs),
(-3,-196,o),
(-2,-228,o),
(18,-245,cs),
(38,-262,o),
(51,-269,o),
(94,-269,cs),
(156,-269,o),
(210,-249,o),
(244,-169,cs),
(526,494,l),
(464,494,l),
(220,-124,l),
(182,-200,o),
(169,-217,o),
(137,-217,c),
(96,-217,o),
(98,-192,o),
(83,-179,cs)
);
},
{
closed = 1;
nodes = (
(298,50,l),
(305,86,l),
(152,494,l),
(73,494,l),
(275,-48,l)
);
}
);
width = 581;
},
{
backgroundImage = {
imagePath = "specimen-images/12pt-lowerY.jpg";
locked = 1;
pos = (20,-342);
scale = (10.7,10.7);
};
hints = (
{
name = _corner.leftBottomSerif;
origin = (0,12);
type = Corner;
},
{
name = _corner.rightBottomSerif;
options = 1;
origin = (0,13);
type = Corner;
},
{
name = _corner.leftBottomSerif;
origin = (1,2);
type = Corner;
},
{
name = _corner.rightBottomSerif;
options = 1;
origin = (1,3);
type = Corner;
}
);
layerId = m002;
shapes = (
{
closed = 1;
nodes = (
(64,-157,o),
(46,-151,o),
(21,-171,cs),
(-6,-192,o),
(-3,-233,o),
(17,-250,cs),
(39,-269,o),
(51,-276,o),
(94,-276,cs),
(156,-276,o),
(210,-257,o),
(246,-172,cs),
(532,501,l),
(464,501,l),
(218,-121,l),
(181,-195,o),
(169,-210,o),
(137,-210,cs),
(110,-210,o),
(101,-199,o),
(95,-189,cs),
(92,-184,o),
(88,-177,o),
(84,-174,cs)
);
},
{
closed = 1;
nodes = (
(300,49,l),
(307,87,l),
(152,501,l),
(68,501,l),
(275,-56,l)
);
}
);
width = 581;
}
);
unicode = 121;
},
{
glyphname = z;
lastChange = "2025-03-18 18:15:15 +0000";
layers = (
{
background = {
shapes = (
{
closed = 1;
nodes = (
(187,459,ls),
(172,459,o),
(139,437,o),
(91,376,cs),
(83,365,o),
(57,376,o),
(64,389,cs),
(86,430,o),
(94,441,o),
(108,485,cs),
(110,490,o),
(111,494,o),
(116,494,cs),
(434,494,l),
(129,32,l),
(324,36,ls),
(339,36,o),
(372,57,o),
(420,118,cs),
(428,129,o),
(454,118,o),
(447,105,cs),
(425,64,o),
(417,53,o),
(403,9,cs),
(401,4,o),
(400,0,o),
(395,0,cs),
(33,0,l),
(33,24,l),
(329,470,l),
(333,459,l)
);
}
);
};
backgroundImage = {
imagePath = "specimen-images/12pt-lowerZ.jpg";
locked = 1;
pos = (41,-332);
scale = (10.7,10.7);
};
layerId = m01;
shapes = (
{
closed = 0;
nodes = (
(329,470,l),
(329,470,l)
);
},
{
closed = 1;
nodes = (
(187,459,ls),
(172,459,o),
(139,437,o),
(91,376,cs),
(83,365,o),
(57,376,o),
(64,389,cs),
(86,430,o),
(94,441,o),
(108,485,cs),
(110,490,o),
(111,494,o),
(116,494,cs),
(412,494,ls),
(424,494,o),
(429,487,o),
(422,476,cs),
(129,32,l),
(324,36,ls),
(339,36,o),
(372,57,o),
(420,118,cs),
(428,129,o),
(454,118,o),
(447,105,cs),
(425,64,o),
(417,53,o),
(403,9,cs),
(401,4,o),
(400,0,o),
(395,0,cs),
(39,0,ls),
(27,0,o),
(22,7,o),
(29,18,cs),
(329,470,l),
(333,459,l)
);
}
);
width = 471;
},
{
background = {
shapes = (
{
closed = 1;
nodes = (
(187,459,ls),
(172,459,o),
(139,437,o),
(91,376,cs),
(83,365,o),
(57,376,o),
(64,389,cs),
(86,430,o),
(94,441,o),
(108,485,cs),
(110,490,o),
(111,494,o),
(116,494,cs),
(434,494,l),
(129,32,l),
(324,36,ls),
(339,36,o),
(372,57,o),
(420,118,cs),
(428,129,o),
(454,118,o),
(447,105,cs),
(425,64,o),
(417,53,o),
(403,9,cs),
(401,4,o),
(400,0,o),
(395,0,cs),
(33,0,l),
(33,24,l),
(329,470,l),
(333,459,l)
);
}
);
};
backgroundImage = {
imagePath = "specimen-images/12pt-lowerZ.jpg";
locked = 1;
pos = (41,-332);
scale = (10.7,10.7);
};
layerId = m002;
shapes = (
{
closed = 1;
nodes = (
(395,0,ls),
(396,0,o),
(397,0,o),
(397,0,c),
(400,0,o),
(401,4,o),
(403,9,cs),
(414,44,o),
(422,59,o),
(437,87,cs),
(439,90,o),
(445,101,o),
(447,105,cs),
(455,121,o),
(427,127,o),
(420,118,cs),
(372,57,o),
(338,36,o),
(324,36,cs),
(129,32,l),
(434,494,l),
(116,494,ls),
(115,494,o),
(114,494,o),
(114,494,c),
(111,494,o),
(110,490,o),
(108,485,cs),
(97,450,o),
(89,435,o),
(74,407,cs),
(72,404,o),
(66,393,o),
(64,389,cs),
(56,373,o),
(84,367,o),
(91,376,cs),
(139,437,o),
(172,459,o),
(187,459,cs),
(328,459,l),
(326,465,l),
(17,0,l)
);
},
{
closed = 0;
nodes = (
(329,470,l),
(329,470,l)
);
}
);
width = 471;
}
);
unicode = 122;
},
{
glyphname = zero;
lastChange = "2025-03-18 18:15:34 +0000";
layers = (
{
backgroundImage = {
imagePath = "specimen-images/12pt-num0.jpg";
locked = 1;
pos = (10,-216);
scale = (10.7,10.7);
};
layerId = m01;
shapes = (
{
closed = 1;
nodes = (
(97,-14,o),
(33,192,o),
(33,377,cs),
(33,562,o),
(97,768,o),
(279,768,cs),
(461,768,o),
(525,562,o),
(525,377,cs),
(525,192,o),
(461,-14,o),
(279,-14,cs)
);
},
{
closed = 1;
nodes = (
(118,214,o),
(137,26,o),
(279,26,cs),
(421,26,o),
(440,214,o),
(440,377,cs),
(440,540,o),
(421,728,o),
(279,728,cs),
(137,728,o),
(118,540,o),
(118,377,cs)
);
}
);
width = 558;
},
{
backgroundImage = {
imagePath = "specimen-images/12pt-num0.jpg";
locked = 1;
pos = (10,-216);
scale = (10.7,10.7);
};
layerId = m002;
shapes = (
{
closed = 1;
nodes = (
(461,-14,o),
(525,192,o),
(525,377,cs),
(525,562,o),
(461,768,o),
(279,768,cs),
(97,768,o),
(33,562,o),
(33,377,cs),
(33,192,o),
(97,-14,o),
(279,-14,cs)
);
},
{
closed = 1;
nodes = (
(137,26,o),
(118,214,o),
(118,377,cs),
(118,540,o),
(137,728,o),
(279,728,cs),
(421,728,o),
(440,540,o),
(440,377,cs),
(440,214,o),
(421,26,o),
(279,26,cs)
);
}
);
width = 558;
}
);
unicode = 48;
},
{
glyphname = one;
lastChange = "2025-03-18 18:09:52 +0000";
layers = (
{
backgroundImage = {
imagePath = "specimen-images/12pt-num1.jpg";
locked = 1;
pos = (-22,-333);
scale = (10.7,10.7);
};
guides = (
{
angle = 270;
pos = (33,692);
}
);
hints = (
{
name = _corner.leftBottomSerif;
type = Corner;
},
{
name = _corner.rightBottomSerif;
type = Corner;
},
{
name = _corner.rightBottomSerif;
options = 1;
scale = (1,-1);
type = Corner;
},
{
name = _corner.leftBottomSerif;
options = 1;
scale = (-1,1);
type = Corner;
}
);
layerId = m01;
shapes = (
{
closed = 1;
nodes = (
(152,84,l),
(150,38,o),
(87,32,o),
(48,32,c),
(38,32,o),
(33,24,o),
(33,16,cs),
(33,8,o),
(38,0,o),
(48,0,c),
(87,0,o),
(152,5,o),
(186,5,c),
(186,5,ls),
(221,5,o),
(293,0,o),
(332,0,c),
(343,0,o),
(348,8,o),
(348,16,cs),
(348,24,o),
(343,32,o),
(332,32,c),
(293,32,o),
(230,42,o),
(230,88,c),
(230,652,l),
(230,686,o),
(230,715,o),
(230,736,c),
(230,749,o),
(224,752,o),
(214,752,c),
(194,752,o),
(183,739,o),
(166,726,c),
(143,708,o),
(61,708,o),
(50,708,c),
(39,708,o),
(33,699,o),
(33,692,c),
(33,686,o),
(39,677,o),
(50,677,c),
(133,677,o),
(155,686,o),
(155,597,c)
);
}
);
width = 380;
},
{
backgroundImage = {
imagePath = "specimen-images/12pt-num1.jpg";
locked = 1;
pos = (-22,-333);
scale = (10.7,10.7);
};
guides = (
{
angle = 270;
pos = (33,692);
}
);
hints = (
{
name = _corner.leftBottomSerif;
type = Corner;
},
{
name = _corner.rightBottomSerif;
type = Corner;
},
{
name = _corner.rightBottomSerif;
options = 1;
scale = (1,-1);
type = Corner;
},
{
name = _corner.leftBottomSerif;
options = 1;
scale = (-1,1);
type = Corner;
}
);
layerId = m002;
shapes = (
{
closed = 1;
nodes = (
(150,84,l),
(148,45,o),
(87,39,o),
(48,39,cs),
(38,39,o),
(31,28,o),
(31,16,cs),
(31,4,o),
(38,-7,o),
(48,-7,cs),
(67,-7,o),
(95,-6,o),
(122,-4,cs),
(145,-3,o),
(170,-2,o),
(186,-2,c),
(186,5,l),
(186,5,l),
(186,-2,l),
(203,-2,o),
(230,-3,o),
(255,-4,cs),
(284,-6,o),
(313,-7,o),
(332,-7,cs),
(343,-7,o),
(350,4,o),
(350,16,cs),
(350,28,o),
(343,39,o),
(332,39,cs),
(294,39,o),
(232,49,o),
(232,88,cs),
(232,652,ls),
(232,686,o),
(232,715,o),
(232,736,cs),
(232,751,o),
(226,759,o),
(214,759,cs),
(199,759,o),
(186,749,o),
(174,739,cs),
(172,737,o),
(169,735,o),
(165,732,cs),
(146,717,o),
(62,715,o),
(50,715,cs),
(37,715,o),
(31,701,o),
(31,692,cs),
(31,684,o),
(37,670,o),
(50,670,cs),
(132,670,o),
(153,679,o),
(153,597,cs)
);
}
);
width = 380;
}
);
unicode = 49;
},
{
glyphname = two;
lastChange = "2025-03-18 18:09:52 +0000";
layers = (
{
backgroundImage = {
imagePath = "specimen-images/10pt-num2.jpg";
locked = 1;
pos = (-106,-287);
scale = (12.84,12.84);
};
layerId = m01;
shapes = (
{
closed = 1;
nodes = (
(415,0,l),
(424,30,l),
(441,61,o),
(447,65,o),
(466,100,cs),
(475,118,o),
(447,133,o),
(437,114,cs),
(419,80,o),
(412,80,o),
(366,80,cs),
(133,80,l),
(273,214,o),
(462,403,o),
(462,544,cs),
(462,546,ls),
(462,690,o),
(363,768,o),
(235,768,cs),
(234,768,ls),
(36,768,o),
(9,602,o),
(61,483,cs),
(95,406,o),
(184,478,o),
(137,517,cs),
(100,548,o),
(80,580,o),
(80,612,cs),
(80,676,o),
(147,723,o),
(237,723,cs),
(296,723,o),
(377,681,o),
(377,545,cs),
(377,320,o),
(98,129,o),
(23,18,cs),
(16,8,o),
(22,0,o),
(34,0,cs)
);
}
);
width = 488;
},
{
backgroundImage = {
imagePath = "specimen-images/10pt-num2.jpg";
locked = 1;
pos = (-106,-287);
scale = (12.84,12.84);
};
layerId = m002;
shapes = (
{
closed = 1;
nodes = (
(415,-7,l),
(425,26,l),
(432,39,o),
(439,49,o),
(445,58,cs),
(452,69,o),
(457,77,o),
(468,97,cs),
(478,117,o),
(451,147,o),
(435,117,cs),
(419,87,o),
(412,87,o),
(366,87,cs),
(147,87,l),
(284,219,o),
(464,403,o),
(464,544,cs),
(464,546,ls),
(464,695,o),
(363,775,o),
(235,775,cs),
(234,775,ls),
(33,775,o),
(7,599,o),
(59,480,cs),
(98,392,o),
(188,481,o),
(138,522,cs),
(100,554,o),
(82,583,o),
(82,612,cs),
(82,670,o),
(147,716,o),
(237,716,cs),
(297,716,o),
(375,675,o),
(375,545,cs),
(375,387,o),
(227,240,o),
(124,136,cs),
(81,93,o),
(44,56,o),
(21,22,cs),
(14,12,o),
(18,-7,o),
(34,-7,cs)
);
}
);
width = 488;
}
);
unicode = 50;
},
{
glyphname = three;
lastChange = "2025-03-18 18:09:52 +0000";
layers = (
{
backgroundImage = {
imagePath = "specimen-images/10pt-num3.jpg";
locked = 1;
pos = (-10,-285);
scale = (12.84,12.84);
};
layerId = m01;
shapes = (
{
closed = 1;
nodes = (
(359,-16,o),
(499,70,o),
(499,207,cs),
(499,308,o),
(422,378,o),
(334,405,c),
(407,435,o),
(459,510,o),
(459,587,cs),
(459,693,o),
(359,767,o),
(238,767,cs),
(162,767,o),
(66,711,o),
(66,615,cs),
(66,592,o),
(82,572,o),
(106,572,cs),
(129,572,o),
(144,592,o),
(144,615,cs),
(144,640,o),
(136,651,o),
(136,663,cs),
(136,699,o),
(178,734,o),
(238,734,cs),
(309,734,o),
(377,712,o),
(377,587,cs),
(377,462,o),
(310,419,o),
(239,419,cs),
(210,419,ls),
(201,419,o),
(195,413,o),
(195,404,cs),
(195,401,ls),
(195,392,o),
(201,386,o),
(210,386,cs),
(239,386,ls),
(310,386,o),
(417,362,o),
(417,207,cs),
(417,52,o),
(310,17,o),
(239,17,cs),
(137,17,o),
(64,107,o),
(98,162,cs),
(104,172,o),
(118,173,o),
(125,184,cs),
(138,205,o),
(134,226,o),
(114,238,cs),
(93,250,o),
(72,246,o),
(59,224,cs),
(-5,120,o),
(105,-16,o),
(249,-16,cs)
);
}
);
width = 539;
},
{
backgroundImage = {
imagePath = "specimen-images/10pt-num3.jpg";
locked = 1;
pos = (-10,-285);
scale = (12.84,12.84);
};
layerId = m002;
shapes = (
{
closed = 1;
nodes = (
(359,-23,o),
(501,64,o),
(501,207,cs),
(501,306,o),
(430,376,o),
(351,406,c),
(415,440,o),
(461,512,o),
(461,587,cs),
(461,699,o),
(359,774,o),
(238,774,cs),
(162,774,o),
(64,717,o),
(64,615,cs),
(64,588,o),
(82,565,o),
(106,565,cs),
(129,565,o),
(146,589,o),
(146,615,cs),
(146,631,o),
(143,642,o),
(141,650,cs),
(139,656,o),
(138,661,o),
(138,663,cs),
(138,692,o),
(178,727,o),
(238,727,cs),
(309,727,o),
(375,707,o),
(375,587,cs),
(375,467,o),
(311,426,o),
(239,426,cs),
(210,426,ls),
(199,426,o),
(193,416,o),
(193,404,cs),
(193,401,ls),
(193,389,o),
(199,379,o),
(210,379,cs),
(239,379,ls),
(309,379,o),
(415,357,o),
(415,207,cs),
(415,57,o),
(310,24,o),
(239,24,cs),
(141,24,o),
(67,105,o),
(100,158,cs),
(101,160,o),
(108,164,o),
(112,166,cs),
(119,170,o),
(122,172,o),
(127,180,cs),
(141,203,o),
(135,232,o),
(115,244,cs),
(92,257,o),
(73,255,o),
(57,228,cs),
(-9,120,o),
(104,-23,o),
(249,-23,cs)
);
}
);
width = 539;
}
);
unicode = 51;
},
{
glyphname = four;
lastChange = "2025-03-18 18:09:52 +0000";
layers = (
{
backgroundImage = {
imagePath = "specimen-images/10pt-num4.jpg";
locked = 1;
pos = (12,-283);
scale = (12.84,12.84);
};
hints = (
{
name = _corner.leftBottomSerif;
origin = (0,9);
type = Corner;
},
{
name = _corner.rightBottomSerif;
origin = (0,10);
type = Corner;
}
);
layerId = m01;
shapes = (
{
closed = 1;
nodes = (
(48,281,ls),
(45,275,o),
(43,269,o),
(43,262,cs),
(43,247,ls),
(43,238,o),
(49,232,o),
(58,232,cs),
(304,232,l),
(304,0,l),
(384,0,l),
(384,232,l),
(473,232,ls),
(482,232,o),
(488,238,o),
(488,247,cs),
(488,257,ls),
(488,266,o),
(482,272,o),
(473,272,cs),
(384,272,l),
(384,737,ls),
(384,746,o),
(378,752,o),
(369,752,cs),
(316,752,ls),
(308,752,o),
(302,749,o),
(298,741,cs)
);
},
{
closed = 1;
nodes = (
(304,687,l),
(304,272,l),
(78,272,l)
);
}
);
width = 501;
},
{
backgroundImage = {
imagePath = "specimen-images/10pt-num4.jpg";
locked = 1;
pos = (12,-283);
scale = (12.84,12.84);
};
hints = (
{
name = _corner.leftBottomSerif;
origin = (0,9);
type = Corner;
},
{
name = _corner.rightBottomSerif;
origin = (0,10);
type = Corner;
}
);
layerId = m002;
shapes = (
{
closed = 1;
nodes = (
(46,284,ls),
(44,280,o),
(41,271,o),
(41,262,cs),
(41,247,ls),
(41,235,o),
(47,225,o),
(58,225,cs),
(302,225,l),
(302,-7,l),
(386,-7,l),
(386,225,l),
(473,225,ls),
(484,225,o),
(490,235,o),
(490,247,cs),
(490,257,ls),
(490,269,o),
(484,279,o),
(473,279,cs),
(386,279,l),
(386,737,ls),
(386,749,o),
(380,759,o),
(369,759,cs),
(316,759,ls),
(306,759,o),
(301,754,o),
(296,744,cs)
);
},
{
closed = 1;
nodes = (
(302,677,l),
(302,279,l),
(85,279,l)
);
}
);
width = 501;
}
);
unicode = 52;
},
{
glyphname = five;
lastChange = "2025-03-18 18:09:52 +0000";
layers = (
{
backgroundImage = {
imagePath = "specimen-images/12pt-num5.jpg";
locked = 1;
pos = (7,-330);
scale = (10.7,10.7);
};
layerId = m01;
shapes = (
{
closed = 1;
nodes = (
(230,-14,ls),
(378,-13,o),
(487,105,o),
(487,239,cs),
(487,387,o),
(393,504,o),
(264,504,cs),
(208,504,o),
(163,490,o),
(132,462,c),
(138,672,l),
(411,672,l),
(420,702,l),
(437,733,o),
(443,737,o),
(462,772,c),
(471,790,o),
(443,805,o),
(433,786,c),
(415,752,o),
(408,752,o),
(362,752,c),
(120,752,ls),
(111,752,o),
(105,746,o),
(105,737,cs),
(95,422,ls),
(95,413,o),
(100,407,o),
(108,405,cs),
(128,400,ls),
(136,398,o),
(142,400,o),
(148,407,cs),
(178,445,o),
(216,459,o),
(265,459,cs),
(307,459,o),
(402,418,o),
(402,240,c),
(402,84,o),
(304,30,o),
(232,31,cs),
(148,32,o),
(23,86,o),
(107,197,cs),
(144,245,o),
(66,300,o),
(43,221,cs),
(9,102,o),
(81,-13,o),
(229,-14,cs)
);
}
);
width = 522;
},
{
backgroundImage = {
imagePath = "specimen-images/12pt-num5.jpg";
locked = 1;
pos = (7,-330);
scale = (10.7,10.7);
};
layerId = m002;
shapes = (
{
closed = 1;
nodes = (
(230,-21,ls),
(378,-20,o),
(489,100,o),
(489,239,cs),
(489,391,o),
(393,511,o),
(264,511,cs),
(212,511,o),
(168,499,o),
(134,470,c),
(140,665,l),
(411,665,l),
(421,698,l),
(428,711,o),
(435,721,o),
(441,730,cs),
(448,741,o),
(453,749,o),
(464,769,cs),
(474,789,o),
(447,819,o),
(431,789,cs),
(415,759,o),
(408,759,o),
(362,759,cs),
(120,759,ls),
(109,759,o),
(103,748,o),
(103,737,cs),
(93,422,ls),
(93,412,o),
(99,400,o),
(108,398,cs),
(128,393,ls),
(136,391,o),
(141,392,o),
(150,403,cs),
(177,437,o),
(216,452,o),
(265,452,cs),
(308,452,o),
(400,412,o),
(400,240,cs),
(400,90,o),
(304,37,o),
(232,38,cs),
(148,39,o),
(29,87,o),
(109,193,cs),
(148,244,o),
(68,316,o),
(41,223,cs),
(7,104,o),
(78,-20,o),
(229,-21,cs)
);
}
);
width = 522;
}
);
unicode = 53;
},
{
glyphname = six;
lastChange = "2025-03-19 01:10:11 +0000";
layers = (
{
backgroundImage = {
imagePath = "specimen-images/10pt-num6.jpg";
locked = 1;
pos = (-17,-277);
scale = (12.84,12.84);
};
layerId = m01;
shapes = (
{
closed = 1;
nodes = (
(404,64,o),
(322,29,o),
(257,29,cs),
(192,29,o),
(109,69,o),
(109,241,cs),
(109,294,o),
(109,337,o),
(120,367,c),
(160,415,o),
(212,440,o),
(257,440,cs),
(322,440,o),
(404,408,o),
(404,236,cs)
);
},
{
closed = 1;
nodes = (
(11,-16,o),
(257,-16,cs),
(375,-16,o),
(491,89,o),
(491,236,cs),
(491,383,o),
(375,485,o),
(257,485,cs),
(204,485,o),
(154,457,o),
(113,420,c),
(116,510,o),
(134,569,o),
(143,606,cs),
(172,723,o),
(252,725,o),
(291,717,cs),
(352,705,o),
(324,676,o),
(361,641,cs),
(407,597,o),
(487,646,o),
(410,713,cs),
(363,754,o),
(308,756,o),
(259,756,cs),
(150,756,o),
(80,670,o),
(42,491,cs),
(6,320,o)
);
},
{
closed = 0;
nodes = (
(31,383,l)
);
}
);
width = 521;
},
{
backgroundImage = {
imagePath = "specimen-images/10pt-num6.jpg";
locked = 1;
pos = (-17,-277);
scale = (12.84,12.84);
};
layerId = m002;
shapes = (
{
closed = 1;
nodes = (
(402,70,o),
(323,36,o),
(257,36,cs),
(191,36,o),
(111,75,o),
(111,241,cs),
(111,292,o),
(111,332,o),
(121,362,c),
(159,408,o),
(212,433,o),
(257,433,cs),
(323,433,o),
(402,402,o),
(402,236,cs)
);
},
{
closed = 1;
nodes = (
(31,85,o),
(139,-23,o),
(257,-23,cs),
(375,-23,o),
(493,84,o),
(493,236,cs),
(493,388,o),
(375,492,o),
(257,492,cs),
(206,492,o),
(157,465,o),
(115,428,c),
(119,513,o),
(132,568,o),
(145,604,cs),
(175,686,o),
(242,731,o),
(300,710,cs),
(337,697,o),
(341,685,o),
(346,669,cs),
(350,656,o),
(355,640,o),
(370,626,cs),
(424,574,o),
(497,642,o),
(421,708,cs),
(371,752,o),
(316,763,o),
(269,763,cs),
(160,763,o),
(72,677,o),
(40,492,cs),
(28,421,o),
(24,336,o),
(31,236,c)
);
}
);
width = 521;
}
);
unicode = 54;
},
{
glyphname = seven;
lastChange = "2025-03-18 18:09:52 +0000";
layers = (
{
backgroundImage = {
imagePath = "specimen-images/10pt-num7.jpg";
locked = 1;
pos = (-15,-279);
scale = (12.84,12.84);
};
layerId = m01;
shapes = (
{
closed = 1;
nodes = (
(132,672,l),
(86,672,o),
(79,672,o),
(61,638,c),
(51,619,o),
(23,634,o),
(32,652,c),
(51,687,o),
(57,691,o),
(74,722,c),
(79,739,ls),
(81,747,o),
(88,752,o),
(96,752,cs),
(465,752,ls),
(477,752,o),
(482,744,o),
(475,734,cs),
(332,522,o),
(228,285,o),
(205,14,cs),
(204,5,o),
(199,0,o),
(190,0,cs),
(107,0,ls),
(97,0,o),
(92,6,o),
(95,17,cs),
(155,237,o),
(242,460,o),
(389,672,c)
);
}
);
width = 490;
},
{
backgroundImage = {
imagePath = "specimen-images/10pt-num7.jpg";
locked = 1;
pos = (-15,-279);
scale = (12.84,12.84);
};
layerId = m002;
shapes = (
{
closed = 1;
nodes = (
(132,679,ls),
(86,679,o),
(79,679,o),
(59,641,cs),
(55,633,o),
(27,635,o),
(34,649,cs),
(42,664,o),
(50,677,o),
(56,686,cs),
(62,695,o),
(66,701,o),
(75,718,c),
(81,737,ls),
(82,741,o),
(88,745,o),
(96,745,cs),
(465,745,ls),
(477,745,o),
(478,745,o),
(473,738,cs),
(331,527,o),
(226,287,o),
(203,15,cs),
(202,9,o),
(199,7,o),
(190,7,cs),
(107,7,ls),
(97,7,o),
(95,8,o),
(97,15,cs),
(158,238,o),
(246,463,o),
(398,679,c)
);
}
);
width = 490;
}
);
unicode = 55;
},
{
glyphname = eight;
lastChange = "2025-03-18 18:09:52 +0000";
layers = (
{
backgroundImage = {
imagePath = "specimen-images/10pt-num8.jpg";
locked = 1;
pos = (-28,-276);
scale = (12.84,12.84);
};
layerId = m01;
shapes = (
{
closed = 1;
nodes = (
(399,-16,o),
(483,103,o),
(483,193,cs),
(483,297,o),
(428,351,o),
(328,425,c),
(419,473,o),
(455,530,o),
(455,600,cs),
(455,673,o),
(367,767,o),
(264,767,cs),
(151,767,o),
(60,673,o),
(60,600,cs),
(60,504,o),
(141,456,o),
(192,411,c),
(82,337,o),
(30,297,o),
(30,193,cs),
(30,101,o),
(119,-16,o),
(259,-16,cs)
);
},
{
closed = 1;
nodes = (
(150,24,o),
(99,119,o),
(99,193,c),
(99,304,o),
(164,345,o),
(231,383,c),
(299,338,o),
(418,285,o),
(418,190,cs),
(418,126,o),
(368,24,o),
(259,24,cs)
);
},
{
closed = 1;
nodes = (
(226,484,o),
(130,545,o),
(130,612,cs),
(130,687,o),
(195,727,o),
(264,727,cs),
(333,727,o),
(387,687,o),
(387,612,cs),
(387,541,o),
(366,492,o),
(283,447,c)
);
}
);
width = 513;
},
{
backgroundImage = {
imagePath = "specimen-images/10pt-num8.jpg";
locked = 1;
pos = (-28,-276);
scale = (12.84,12.84);
};
layerId = m002;
shapes = (
{
closed = 1;
nodes = (
(399,-23,o),
(485,99,o),
(485,193,cs),
(485,298,o),
(430,355,o),
(338,424,c),
(422,471,o),
(457,529,o),
(457,600,cs),
(457,678,o),
(367,774,o),
(264,774,cs),
(151,774,o),
(58,677,o),
(58,600,cs),
(58,518,o),
(112,470,o),
(165,427,cs),
(170,423,o),
(178,417,o),
(184,412,c),
(80,342,o),
(28,299,o),
(28,193,cs),
(28,96,o),
(119,-23,o),
(259,-23,cs)
);
},
{
closed = 1;
nodes = (
(150,31,o),
(101,122,o),
(101,193,cs),
(101,298,o),
(162,337,o),
(231,376,c),
(243,368,o),
(255,362,o),
(268,354,cs),
(334,314,o),
(416,263,o),
(416,190,cs),
(416,130,o),
(368,31,o),
(259,31,cs)
);
},
{
closed = 1;
nodes = (
(224,492,o),
(132,551,o),
(132,612,cs),
(132,681,o),
(195,720,o),
(264,720,cs),
(333,720,o),
(385,682,o),
(385,612,cs),
(385,544,o),
(366,499,o),
(283,454,c)
);
}
);
width = 513;
}
);
unicode = 56;
},
{
glyphname = nine;
lastChange = "2025-03-19 01:11:03 +0000";
layers = (
{
backgroundImage = {
imagePath = "specimen-images/10pt-num9.jpg";
pos = (-25,-283);
scale = (12.9,12.9);
};
layerId = m01;
shapes = (
{
closed = 1;
nodes = (
(99,688,o),
(181,723,o),
(246,723,cs),
(311,723,o),
(394,683,o),
(394,511,cs),
(394,458,o),
(394,415,o),
(383,385,c),
(343,337,o),
(291,312,o),
(246,312,cs),
(181,312,o),
(99,344,o),
(99,516,cs)
);
},
{
closed = 1;
nodes = (
(492,768,o),
(246,768,cs),
(128,768,o),
(12,663,o),
(12,516,cs),
(12,369,o),
(128,267,o),
(246,267,cs),
(299,267,o),
(349,295,o),
(390,332,c),
(387,242,o),
(369,183,o),
(360,146,cs),
(331,29,o),
(251,27,o),
(212,35,cs),
(151,47,o),
(179,76,o),
(142,111,cs),
(96,155,o),
(16,106,o),
(93,39,cs),
(140,-2,o),
(195,-4,o),
(244,-4,cs),
(353,-4,o),
(423,82,o),
(461,261,cs),
(497,432,o)
);
},
{
closed = 0;
nodes = (
(472,369,l)
);
}
);
width = 507;
},
{
backgroundImage = {
imagePath = "specimen-images/10pt-num9.jpg";
pos = (6,-283);
scale = (12.9,12.9);
};
layerId = m002;
width = 686;
}
);
unicode = 57;
},
{
glyphname = period;
lastChange = "2025-03-18 18:09:52 +0000";
layers = (
{
layerId = m01;
shapes = (
{
closed = 1;
nodes = (
(117,-12,o),
(142,13,o),
(142,48,cs),
(142,84,o),
(117,107,o),
(83,107,cs),
(48,107,o),
(23,84,o),
(23,48,cs),
(23,13,o),
(48,-12,o),
(83,-12,cs)
);
}
);
width = 165;
},
{
layerId = m002;
shapes = (
{
closed = 1;
nodes = (
(117,-19,o),
(144,8,o),
(144,48,cs),
(144,89,o),
(117,114,o),
(83,114,cs),
(47,114,o),
(21,89,o),
(21,48,cs),
(21,8,o),
(48,-19,o),
(83,-19,cs)
);
}
);
width = 165;
}
);
unicode = 46;
},
{
glyphname = comma;
lastChange = "2025-03-18 18:09:52 +0000";
layers = (
{
backgroundImage = {
imagePath = "specimen-images/comma.tif";
locked = 1;
pos = (-160,-447);
scale = (9.0082,9.0082);
};
layerId = m01;
shapes = (
{
closed = 1;
nodes = (
(62,-175,o),
(102,-168,o),
(134,-121,cs),
(155,-90,o),
(175,-29,o),
(165,48,cs),
(161,81,o),
(138,107,o),
(106,107,cs),
(73,107,o),
(46,81,o),
(46,56,cs),
(46,12,o),
(96,15,o),
(106,-14,cs),
(127,-75,o),
(88,-133,o),
(39,-148,cs),
(19,-154,o),
(27,-186,o),
(53,-178,cs)
);
}
);
width = 201;
},
{
backgroundImage = {
imagePath = "specimen-images/comma.tif";
locked = 1;
pos = (-160,-447);
scale = (9.0082,9.0082);
};
layerId = m002;
shapes = (
{
closed = 1;
nodes = (
(62,-182,o),
(101,-176,o),
(136,-125,cs),
(156,-95,o),
(177,-29,o),
(167,49,cs),
(163,85,o),
(138,114,o),
(106,114,cs),
(73,114,o),
(44,85,o),
(44,56,cs),
(44,26,o),
(62,14,o),
(78,5,cs),
(90,-2,o),
(101,-7,o),
(104,-16,cs),
(124,-74,o),
(88,-126,o),
(38,-141,cs),
(15,-148,o),
(24,-194,o),
(54,-185,cs)
);
}
);
width = 201;
}
);
unicode = 44;
},
{
glyphname = colon;
lastChange = "2025-03-18 18:09:52 +0000";
layers = (
{
layerId = m01;
shapes = (
{
closed = 1;
nodes = (
(117,-12,o),
(142,13,o),
(142,48,cs),
(142,84,o),
(117,107,o),
(83,107,cs),
(48,107,o),
(23,84,o),
(23,48,cs),
(23,13,o),
(48,-12,o),
(83,-12,cs)
);
},
{
closed = 1;
nodes = (
(117,348,o),
(142,373,o),
(142,408,cs),
(142,444,o),
(117,467,o),
(83,467,cs),
(48,467,o),
(23,444,o),
(23,408,cs),
(23,373,o),
(48,348,o),
(83,348,cs)
);
}
);
width = 165;
},
{
layerId = m002;
shapes = (
{
closed = 1;
nodes = (
(117,-19,o),
(144,8,o),
(144,48,cs),
(144,89,o),
(117,114,o),
(83,114,cs),
(47,114,o),
(21,89,o),
(21,48,cs),
(21,8,o),
(48,-19,o),
(83,-19,cs)
);
},
{
closed = 1;
nodes = (
(117,341,o),
(144,368,o),
(144,408,cs),
(144,449,o),
(117,474,o),
(83,474,cs),
(47,474,o),
(21,449,o),
(21,408,cs),
(21,368,o),
(48,341,o),
(83,341,cs)
);
}
);
width = 165;
}
);
unicode = 58;
},
{
glyphname = semicolon;
lastChange = "2025-03-18 18:09:52 +0000";
layers = (
{
layerId = m01;
shapes = (
{
closed = 1;
nodes = (
(40,-175,o),
(80,-168,o),
(112,-121,cs),
(133,-90,o),
(153,-29,o),
(143,48,cs),
(142,56,ls),
(138,88,o),
(114,107,o),
(83,107,cs),
(48,107,o),
(23,84,o),
(23,48,cs),
(23,13,o),
(48,-12,o),
(83,-12,c),
(84,-14,ls),
(105,-75,o),
(66,-133,o),
(17,-148,cs),
(-3,-154,o),
(5,-186,o),
(31,-178,cs)
);
},
{
closed = 1;
nodes = (
(117,348,o),
(142,373,o),
(142,408,cs),
(142,444,o),
(117,467,o),
(83,467,cs),
(48,467,o),
(23,444,o),
(23,408,cs),
(23,373,o),
(48,348,o),
(83,348,cs)
);
},
{
closed = 1;
nodes = (
(117,348,o),
(142,373,o),
(142,408,cs),
(142,444,o),
(117,467,o),
(83,467,cs),
(48,467,o),
(23,444,o),
(23,408,cs),
(23,373,o),
(48,348,o),
(83,348,cs)
);
}
);
width = 196;
},
{
layerId = m002;
shapes = (
{
closed = 1;
nodes = (
(40,-182,o),
(79,-176,o),
(114,-125,cs),
(134,-95,o),
(155,-29,o),
(145,49,cs),
(144,57,ls),
(139,95,o),
(114,114,o),
(83,114,cs),
(47,114,o),
(21,89,o),
(21,48,cs),
(21,8,o),
(49,-19,o),
(83,-19,c),
(82,-17,ls),
(102,-74,o),
(66,-126,o),
(16,-141,cs),
(-7,-148,o),
(2,-194,o),
(32,-185,cs)
);
},
{
closed = 1;
nodes = (
(117,341,o),
(144,368,o),
(144,408,cs),
(144,449,o),
(117,474,o),
(83,474,cs),
(47,474,o),
(21,449,o),
(21,408,cs),
(21,368,o),
(48,341,o),
(83,341,cs)
);
},
{
closed = 1;
nodes = (
(117,341,o),
(144,368,o),
(144,408,cs),
(144,449,o),
(117,474,o),
(83,474,cs),
(47,474,o),
(21,449,o),
(21,408,cs),
(21,368,o),
(48,341,o),
(83,341,cs)
);
}
);
width = 196;
}
);
unicode = 59;
},
{
glyphname = hyphen;
lastChange = "2025-03-18 18:09:52 +0000";
layers = (
{
layerId = m01;
shapes = (
{
closed = 1;
nodes = (
(23,242,ls),
(23,236,o),
(27,232,o),
(33,232,cs),
(293,232,ls),
(299,232,o),
(303,236,o),
(303,242,cs),
(303,279,ls),
(303,285,o),
(299,289,o),
(293,289,cs),
(33,289,ls),
(27,289,o),
(23,285,o),
(23,279,cs)
);
}
);
width = 326;
},
{
layerId = m002;
shapes = (
{
closed = 1;
nodes = (
(21,242,ls),
(21,234,o),
(25,225,o),
(33,225,cs),
(293,225,ls),
(301,225,o),
(305,234,o),
(305,242,cs),
(305,279,ls),
(305,287,o),
(301,296,o),
(293,296,cs),
(33,296,ls),
(25,296,o),
(21,287,o),
(21,279,cs)
);
}
);
width = 326;
}
);
unicode = 45;
},
{
export = 0;
glyphname = _cap.flag;
lastChange = "2025-03-18 18:09:52 +0000";
layers = (
{
anchors = (
{
name = origin;
pos = (187,505);
}
);
layerId = m01;
shapes = (
{
closed = 0;
nodes = (
(187,405,ls),
(187,439,o),
(187,468,o),
(187,489,cs),
(187,502,o),
(181,505,o),
(171,505,cs),
(156,505,o),
(140,492,o),
(123,479,cs),
(100,461,o),
(68,458,o),
(57,458,cs),
(46,458,o),
(40,449,o),
(40,442,cs),
(40,436,o),
(46,427,o),
(57,427,cs),
(96,427,o),
(112,416,o),
(112,380,cs)
);
}
);
width = 241;
},
{
anchors = (
{
name = origin;
pos = (187,505);
}
);
layerId = m002;
shapes = (
{
closed = 0;
nodes = (
(189,405,l),
(189,439,o),
(189,468,o),
(189,489,cs),
(189,504,o),
(184,512,o),
(171,512,cs),
(157,512,o),
(140,499,o),
(122,485,cs),
(102,469,o),
(69,465,o),
(57,465,cs),
(44,465,o),
(38,451,o),
(38,442,cs),
(38,434,o),
(44,420,o),
(57,420,cs),
(96,420,o),
(110,410,o),
(110,380,c)
);
}
);
width = 241;
}
);
},
{
export = 0;
glyphname = _corner.leftBottomSerif;
lastChange = "2025-03-18 18:12:44 +0000";
layers = (
{
anchors = (
{
name = left;
pos = (122,48);
},
{
name = origin;
pos = (124,0);
},
{
name = right;
pos = (158,0);
}
);
layerId = m01;
shapes = (
{
closed = 0;
nodes = (
(122,80,l),
(122,34,o),
(104,28,o),
(65,28,cs),
(45,28,o),
(45,-4,o),
(65,-4,c),
(104,-4,o),
(124,1,o),
(158,1,c)
);
}
);
width = 158;
},
{
anchors = (
{
name = left;
pos = (122,48);
},
{
name = origin;
pos = (124,0);
},
{
name = right;
pos = (158,0);
}
);
layerId = m002;
shapes = (
{
closed = 0;
nodes = (
(118,88,l),
(118,48,o),
(102,43,o),
(63,43,cs),
(40,43,o),
(41,-3,o),
(63,-3,cs),
(82,-3,o),
(98,-2,o),
(113,0,cs),
(126,1,o),
(139,2,o),
(158,2,c)
);
}
);
width = 158;
}
);
},
{
export = 0;
glyphname = _corner.rightBottomSerif;
lastChange = "2025-03-18 18:12:49 +0000";
layers = (
{
anchors = (
{
name = left;
},
{
name = origin;
pos = (36,0);
},
{
name = right;
pos = (36,45);
}
);
layerId = m01;
shapes = (
{
closed = 0;
nodes = (
(0,1,l),
(36,1,o),
(54,-4,o),
(93,-4,c),
(114,-4,o),
(114,28,o),
(93,28,cs),
(54,28,o),
(36,34,o),
(36,80,c)
);
}
);
width = 159;
},
{
anchors = (
{
name = left;
},
{
name = origin;
pos = (36,0);
},
{
name = right;
pos = (36,45);
}
);
layerId = m002;
shapes = (
{
closed = 0;
nodes = (
(0,2,l),
(21,2,o),
(34,1,o),
(46,0,cs),
(61,-2,o),
(76,-3,o),
(95,-3,cs),
(118,-3,o),
(119,43,o),
(95,43,cs),
(56,43,o),
(40,48,o),
(40,88,c)
);
}
);
width = 159;
}
);
},
{
glyphname = adore.stencil;
lastChange = "2025-03-18 18:09:52 +0000";
layers = (
{
hints = (
{
name = _corner.rightBottomSerif;
origin = (3,0);
type = Corner;
},
{
name = _cap.flag;
origin = (3,1);
type = Cap;
},
{
name = _corner.leftBottomSerif;
origin = (6,3);
type = Corner;
},
{
name = _corner.rightBottomSerif;
origin = (6,0);
type = Corner;
},
{
name = _cap.flag;
origin = (6,1);
type = Cap;
},
{
name = _corner.rightBottomSerif;
origin = (0,0);
scale = (1,-1);
type = Corner;
},
{
name = _corner.leftBottomSerif;
options = 1;
origin = (0,1);
scale = (1,-1);
type = Corner;
},
{
name = _corner.leftBottomSerif;
origin = (11,4);
type = Corner;
},
{
name = _corner.rightBottomSerif;
options = 1;
origin = (11,5);
type = Corner;
}
);
layerId = m01;
shapes = (
{
closed = 1;
nodes = (
(581,50,l),
(662,50,l),
(446,711,ls),
(427,770,o),
(420,812,o),
(390,812,cs),
(372,812,o),
(366,801,o),
(356,790,cs),
(351,783,o),
(350,777,o),
(352,769,cs)
);
},
{
closed = 1;
nodes = (
(437,292,ls),
(448,292,o),
(452,299,o),
(449,309,cs),
(446,319,ls),
(443,328,o),
(437,331,o),
(429,331,cs),
(310,331,ls),
(302,331,o),
(296,328,o),
(293,319,cs),
(290,309,ls),
(287,299,o),
(291,292,o),
(302,292,cs)
);
},
{
closed = 1;
nodes = (
(952,40,o),
(978,49,o),
(1003,64,cs),
(1009,67,o),
(1011,72,o),
(1011,78,cs),
(1011,94,ls),
(1011,104,o),
(1005,107,o),
(997,102,cs),
(975,88,o),
(951,79,o),
(927,79,cs),
(839,79,o),
(791,146,o),
(791,299,cs),
(791,451,o),
(849,515,o),
(933,515,cs),
(956,515,o),
(977,510,o),
(997,499,cs),
(1005,494,o),
(1011,498,o),
(1011,507,cs),
(1011,523,ls),
(1011,529,o),
(1009,534,o),
(1003,537,cs),
(983,548,o),
(960,554,o),
(934,554,cs),
(805,554,o),
(711,447,o),
(711,299,c),
(711,151,o),
(799,40,o),
(928,40,cs)
);
},
{
closed = 1;
nodes = (
(1136,50,l),
(1136,802,l),
(1061,802,l),
(1061,60,ls),
(1061,54,o),
(1065,50,o),
(1071,50,cs)
);
},
{
closed = 1;
nodes = (
(1426,38,o),
(1427,38,o),
(1427,38,c),
(1427,77,l),
(1427,77,o),
(1427,77,o),
(1427,77,cs),
(1354,86,o),
(1300,142,o),
(1300,296,cs),
(1300,440,o),
(1347,499,o),
(1414,513,cs),
(1422,515,o),
(1427,520,o),
(1427,529,cs),
(1427,542,l),
(1427,550,o),
(1423,554,o),
(1415,553,cs),
(1328,545,o),
(1220,443,o),
(1220,296,cs),
(1220,160,o),
(1310,53,o),
(1425,38,cs)
);
},
{
closed = 1;
nodes = (
(1477,38,o),
(1478,38,o),
(1479,38,cs),
(1594,53,o),
(1684,160,o),
(1684,296,cs),
(1684,433,o),
(1592,537,o),
(1490,552,cs),
(1482,554,o),
(1477,549,o),
(1477,541,cs),
(1477,526,ls),
(1477,519,o),
(1480,515,o),
(1487,513,cs),
(1546,497,o),
(1604,433,o),
(1604,296,cs),
(1604,142,o),
(1550,86,o),
(1477,77,cs),
(1477,77,o),
(1477,77,o),
(1477,77,c),
(1477,38,l)
);
},
{
closed = 1;
nodes = (
(1865,50,l),
(1865,554,l),
(1790,554,l),
(1790,50,l)
);
},
{
closed = 1;
nodes = (
(2027,470,o),
(2046,489,o),
(2046,513,cs),
(2046,536,o),
(2027,555,o),
(2004,555,cs),
(1973,555,o),
(1945,542,o),
(1925,528,c),
(1923,526,ls),
(1918,522,o),
(1915,518,o),
(1915,512,cs),
(1915,494,ls),
(1915,486,o),
(1919,481,o),
(1927,484,cs),
(1927,484,l),
(1947,489,o),
(1978,471,o),
(2004,470,cs)
);
},
{
closed = 1;
nodes = (
(2335,37,o),
(2387,74,o),
(2425,117,cs),
(2440,133,o),
(2418,158,o),
(2402,141,cs),
(2357,95,o),
(2303,83,o),
(2263,83,c),
(2209,83,o),
(2122,101,o),
(2122,292,cs),
(2122,432,o),
(2157,491,o),
(2216,507,cs),
(2222,509,o),
(2226,513,o),
(2226,520,cs),
(2226,540,ls),
(2226,548,o),
(2222,552,o),
(2214,551,cs),
(2120,542,o),
(2040,421,o),
(2040,293,cs),
(2040,145,o),
(2134,37,o),
(2263,37,cs)
);
},
{
closed = 1;
nodes = (
(2303,321,ls),
(2310,321,o),
(2315,326,o),
(2315,333,cs),
(2315,344,ls),
(2315,351,o),
(2310,356,o),
(2303,356,cs),
(2116,356,l),
(2116,321,l)
);
},
{
closed = 1;
nodes = (
(2427,321,ls),
(2435,321,o),
(2439,325,o),
(2438,333,cs),
(2431,444,o),
(2372,536,o),
(2289,550,cs),
(2281,552,o),
(2276,547,o),
(2276,539,cs),
(2276,509,l),
(2276,509,o),
(2276,509,o),
(2276,509,cs),
(2339,499,o),
(2360,442,o),
(2365,333,cs),
(2365,325,o),
(2370,321,o),
(2377,321,cs)
);
},
{
closed = 1;
nodes = (
(333,672,ls),
(329,686,o),
(319,686,o),
(314,672,cs),
(98,50,l),
(153,50,l),
(346,614,ls),
(348,621,o),
(348,627,o),
(346,634,cs)
);
}
);
width = 2482;
},
{
hints = (
{
name = _corner.rightBottomSerif;
origin = (3,0);
type = Corner;
},
{
name = _cap.flag;
origin = (3,1);
type = Cap;
},
{
name = _corner.leftBottomSerif;
origin = (6,3);
type = Corner;
},
{
name = _corner.rightBottomSerif;
origin = (6,0);
type = Corner;
},
{
name = _cap.flag;
origin = (6,1);
type = Cap;
},
{
name = _corner.rightBottomSerif;
origin = (0,0);
scale = (1,-1);
type = Corner;
},
{
name = _corner.leftBottomSerif;
options = 1;
origin = (0,1);
scale = (1,-1);
type = Corner;
},
{
name = _corner.leftBottomSerif;
origin = (11,4);
type = Corner;
},
{
name = _corner.rightBottomSerif;
options = 1;
origin = (11,5);
type = Corner;
}
);
layerId = m002;
shapes = (
{
closed = 1;
nodes = (
(581,43,l),
(667,43,l),
(448,713,ls),
(444,725,o),
(442,732,o),
(440,740,cs),
(426,785,o),
(415,819,o),
(390,819,cs),
(375,819,o),
(367,809,o),
(359,800,cs),
(358,799,o),
(356,796,o),
(354,794,cs),
(349,787,o),
(348,776,o),
(350,767,c)
);
},
{
closed = 1;
nodes = (
(437,285,ls),
(451,285,o),
(455,298,o),
(451,311,cs),
(448,321,ls),
(444,333,o),
(439,338,o),
(429,338,cs),
(310,338,ls),
(300,338,o),
(295,333,o),
(291,321,cs),
(288,311,ls),
(284,298,o),
(288,285,o),
(302,285,cs)
);
},
{
closed = 1;
nodes = (
(952,33,o),
(977,42,o),
(1004,58,cs),
(1010,61,o),
(1013,69,o),
(1013,78,cs),
(1013,94,ls),
(1013,108,o),
(1009,116,o),
(996,108,cs),
(977,96,o),
(951,86,o),
(927,86,cs),
(839,86,o),
(793,150,o),
(793,299,cs),
(793,447,o),
(849,508,o),
(933,508,cs),
(956,508,o),
(978,503,o),
(996,493,cs),
(1009,485,o),
(1013,494,o),
(1013,507,cs),
(1013,523,ls),
(1013,532,o),
(1010,540,o),
(1004,543,cs),
(982,555,o),
(960,561,o),
(934,561,cs),
(805,561,o),
(709,451,o),
(709,299,cs),
(709,147,o),
(799,33,o),
(928,33,cs)
);
},
{
closed = 1;
nodes = (
(1138,43,l),
(1138,809,l),
(1059,809,l),
(1059,60,ls),
(1059,52,o),
(1063,43,o),
(1071,43,cs)
);
},
{
closed = 1;
nodes = (
(1425,31,o),
(1426,31,o),
(1427,31,c),
(1429,38,l),
(1429,77,l),
(1427,77,l),
(1427,77,o),
(1427,77,o),
(1427,77,c),
(1427,84,l),
(1354,93,o),
(1302,146,o),
(1302,296,cs),
(1302,436,o),
(1347,492,o),
(1414,506,cs),
(1423,508,o),
(1429,518,o),
(1429,529,cs),
(1429,542,ls),
(1429,552,o),
(1425,561,o),
(1415,560,cs),
(1328,552,o),
(1218,448,o),
(1218,296,cs),
(1218,156,o),
(1310,46,o),
(1425,31,c)
);
},
{
closed = 1;
nodes = (
(1477,31,l),
(1478,31,o),
(1479,31,o),
(1479,31,c),
(1594,46,o),
(1686,156,o),
(1686,296,cs),
(1686,437,o),
(1592,544,o),
(1490,559,c),
(1478,562,o),
(1475,551,o),
(1475,541,cs),
(1475,526,ls),
(1475,517,o),
(1479,508,o),
(1486,506,cs),
(1546,490,o),
(1602,429,o),
(1602,296,cs),
(1602,146,o),
(1550,93,o),
(1477,84,c),
(1477,77,l),
(1477,77,o),
(1477,77,o),
(1477,77,c),
(1475,77,l),
(1475,38,l)
);
},
{
closed = 1;
nodes = (
(1867,43,l),
(1867,561,l),
(1788,561,l),
(1788,43,l)
);
},
{
closed = 1;
nodes = (
(2026,463,o),
(2048,484,o),
(2048,513,cs),
(2048,541,o),
(2027,562,o),
(2004,562,cs),
(1974,562,o),
(1946,549,o),
(1924,533,cs),
(1922,531,ls),
(1917,527,o),
(1913,520,o),
(1913,512,cs),
(1913,494,ls),
(1913,485,o),
(1916,473,o),
(1928,477,c),
(1927,484,l),
(1927,484,l),
(1927,477,l),
(1939,480,o),
(1952,476,o),
(1968,471,cs),
(1979,468,o),
(1994,463,o),
(2004,463,cs)
);
},
{
closed = 1;
nodes = (
(2335,30,o),
(2386,67,o),
(2426,112,cs),
(2443,130,o),
(2422,168,o),
(2401,146,cs),
(2358,102,o),
(2304,90,o),
(2263,90,cs),
(2208,90,o),
(2124,107,o),
(2124,292,cs),
(2124,429,o),
(2157,484,o),
(2217,500,cs),
(2223,502,o),
(2228,511,o),
(2228,520,cs),
(2228,540,ls),
(2228,550,o),
(2224,559,o),
(2214,558,cs),
(2120,549,o),
(2038,425,o),
(2038,293,cs),
(2038,141,o),
(2134,30,o),
(2263,30,cs)
);
},
{
closed = 1;
nodes = (
(2303,314,ls),
(2312,314,o),
(2317,323,o),
(2317,333,cs),
(2317,344,ls),
(2317,354,o),
(2312,363,o),
(2303,363,cs),
(2114,363,l),
(2114,314,l)
);
},
{
closed = 1;
nodes = (
(2427,314,ls),
(2438,314,o),
(2441,325,o),
(2440,334,cs),
(2433,447,o),
(2372,543,o),
(2289,557,cs),
(2277,560,o),
(2274,549,o),
(2274,539,cs),
(2274,509,l),
(2276,509,l),
(2276,509,o),
(2276,509,o),
(2276,509,c),
(2276,502,l),
(2339,492,o),
(2358,440,o),
(2363,333,cs),
(2363,323,o),
(2368,314,o),
(2377,314,cs)
);
},
{
closed = 1;
nodes = (
(335,674,ls),
(329,695,o),
(319,694,o),
(312,674,cs),
(93,43,l),
(153,43,l),
(348,612,ls),
(350,619,o),
(350,629,o),
(348,636,cs)
);
}
);
width = 2482;
}
);
},
{
glyphname = adore.wedge;
lastChange = "2025-03-18 18:09:52 +0000";
layers = (
{
layerId = m01;
shapes = (
{
closed = 1;
nodes = (
(152,0,l),
(410,689,l),
(384,689,l),
(603,0,l),
(684,0,l),
(437,752,l),
(390,715,l),
(117,0,l)
);
},
{
closed = 1;
nodes = (
(117,0,l),
(136,48,l),
(57,8,l),
(57,0,l)
);
},
{
closed = 1;
nodes = (
(243,0,l),
(243,8,l),
(170,48,l),
(152,0,l)
);
},
{
closed = 1;
nodes = (
(603,0,l),
(588,48,l),
(512,8,l),
(512,0,l)
);
},
{
closed = 1;
nodes = (
(539,242,l),
(539,281,l),
(226,281,l),
(226,242,l)
);
},
{
closed = 1;
nodes = (
(744,0,l),
(744,8,l),
(668,48,l),
(684,0,l)
);
},
{
closed = 1;
nodes = (
(437,684,l),
(437,752,l),
(292,692,l),
(292,684,l)
);
},
{
closed = 1;
nodes = (
(1007,-1,o),
(1080,64,o),
(1122,111,c),
(1107,151,l),
(1073,93,o),
(1004,20,o),
(940,20,cs),
(854,20,o),
(804,91,o),
(804,249,cs),
(804,406,o),
(864,474,o),
(946,474,cs),
(1008,474,o),
(1060,430,o),
(1098,333,c),
(1123,346,l),
(1091,413,o),
(1045,495,o),
(947,495,cs),
(816,495,o),
(724,391,o),
(724,249,cs),
(724,107,o),
(810,-1,o),
(941,-1,cs)
);
},
{
closed = 1;
nodes = (
(1219,0,l),
(1219,8,l),
(1149,48,l),
(1149,0,l)
);
},
{
closed = 1;
nodes = (
(1219,0,l),
(1219,8,l),
(1149,48,l),
(1149,0,l)
);
},
{
closed = 1;
nodes = (
(1088,376,l),
(1088,149,l)
);
},
{
closed = 1;
nodes = (
(1149,0,l),
(1149,743,l),
(1004,683,l),
(1004,675,l),
(1074,675,l),
(1074,0,l)
);
},
{
closed = 1;
nodes = (
(1595,-5,o),
(1697,105,o),
(1697,246,cs),
(1697,387,o),
(1595,497,o),
(1465,497,cs),
(1335,497,o),
(1233,387,o),
(1233,246,cs),
(1233,105,o),
(1335,-5,o),
(1465,-5,cs)
);
},
{
closed = 1;
nodes = (
(1383,16,o),
(1313,67,o),
(1313,246,cs),
(1313,425,o),
(1383,476,o),
(1465,476,cs),
(1547,476,o),
(1617,425,o),
(1617,246,cs),
(1617,67,o),
(1547,16,o),
(1465,16,cs)
);
},
{
closed = 1;
nodes = (
(1803,0,l),
(1803,48,l),
(1733,8,l),
(1733,0,l)
);
},
{
closed = 0;
nodes = (
(1733,8,l),
(1803,48,l)
);
},
{
closed = 1;
nodes = (
(1948,0,l),
(1948,8,l),
(1878,48,l),
(1878,0,l)
);
},
{
closed = 0;
nodes = (
(1948,8,l),
(1878,48,l)
);
},
{
closed = 1;
nodes = (
(1878,0,l),
(1878,495,l),
(1803,449,l),
(1803,0,l)
);
},
{
closed = 1;
nodes = (
(1878,427,l),
(1878,495,l),
(1733,435,l),
(1733,427,l)
);
},
{
closed = 1;
nodes = (
(1898,418,o),
(1916,437,o),
(1940,443,cs),
(1952,446,o),
(1964,441,o),
(1981,436,cs),
(1992,433,o),
(2005,429,o),
(2017,429,cs),
(2042,429,o),
(2059,446,o),
(2059,463,cs),
(2059,479,o),
(2042,496,o),
(2017,496,cs),
(1984,496,o),
(1955,483,o),
(1938,471,cs),
(1908,450,o),
(1892,429,o),
(1872,403,c),
(1872,392,l)
);
},
{
closed = 1;
nodes = (
(2351,-4,o),
(2404,33,o),
(2439,73,c),
(2425,85,l),
(2375,34,o),
(2314,24,o),
(2277,24,cs),
(2224,24,o),
(2136,44,o),
(2136,242,cs),
(2136,414,o),
(2189,470,o),
(2264,470,cs),
(2350,470,o),
(2375,418,o),
(2379,280,c),
(2453,280,l),
(2450,394,o),
(2389,495,o),
(2265,495,cs),
(2134,495,o),
(2054,379,o),
(2054,243,cs),
(2054,101,o),
(2146,-4,o),
(2277,-4,cs)
);
},
{
closed = 1;
nodes = (
(2390,280,l),
(2390,297,l),
(2130,297,l),
(2130,280,l)
);
}
);
width = 2495;
},
{
layerId = m002;
shapes = (
{
closed = 1;
nodes = (
(152,-7,l),
(415,696,l),
(379,696,l),
(603,-7,l),
(689,-7,l),
(437,759,l),
(389,721,l),
(112,-7,l)
);
},
{
closed = 1;
nodes = (
(117,-7,l),
(143,58,l),
(55,14,l),
(55,-7,l)
);
},
{
closed = 1;
nodes = (
(245,-7,l),
(245,14,l),
(170,55,l),
(147,-7,l)
);
},
{
closed = 1;
nodes = (
(608,-7,l),
(588,55,l),
(510,14,l),
(510,-7,l)
);
},
{
closed = 1;
nodes = (
(541,235,l),
(541,288,l),
(224,288,l),
(224,235,l)
);
},
{
closed = 1;
nodes = (
(746,-7,l),
(746,14,l),
(662,58,l),
(684,-7,l)
);
},
{
closed = 1;
nodes = (
(439,677,l),
(439,760,l),
(290,698,l),
(290,677,l)
);
},
{
closed = 1;
nodes = (
(1007,-8,o),
(1082,59,o),
(1126,109,c),
(1107,158,l),
(1076,103,o),
(1006,27,o),
(940,27,cs),
(854,27,o),
(806,95,o),
(806,249,cs),
(806,402,o),
(864,467,o),
(946,467,cs),
(1009,467,o),
(1061,423,o),
(1098,326,c),
(1128,342,l),
(1095,412,o),
(1048,502,o),
(947,502,cs),
(816,502,o),
(722,396,o),
(722,249,cs),
(722,103,o),
(810,-8,o),
(941,-8,cs)
);
},
{
closed = 1;
nodes = (
(1221,-7,l),
(1221,14,l),
(1147,56,l),
(1147,-7,l)
);
},
{
closed = 1;
nodes = (
(1221,-7,l),
(1221,14,l),
(1147,56,l),
(1147,-7,l)
);
},
{
closed = 1;
nodes = (
(1090,149,l),
(1090,376,l),
(1086,376,l),
(1086,149,l)
);
},
{
closed = 1;
nodes = (
(1151,-7,l),
(1151,751,l),
(1002,689,l),
(1002,668,l),
(1072,668,l),
(1072,-7,l)
);
},
{
closed = 1;
nodes = (
(1595,-12,o),
(1699,100,o),
(1699,246,cs),
(1699,392,o),
(1595,504,o),
(1465,504,cs),
(1335,504,o),
(1231,392,o),
(1231,246,cs),
(1231,100,o),
(1335,-12,o),
(1465,-12,cs)
);
},
{
closed = 1;
nodes = (
(1382,23,o),
(1315,72,o),
(1315,246,cs),
(1315,420,o),
(1382,469,o),
(1465,469,cs),
(1548,469,o),
(1615,420,o),
(1615,246,cs),
(1615,72,o),
(1548,23,o),
(1465,23,cs)
);
},
{
closed = 1;
nodes = (
(1805,-7,l),
(1805,56,l),
(1731,14,l),
(1731,-7,l)
);
},
{
closed = 0;
nodes = (
(1734,2,l),
(1804,42,l)
);
},
{
closed = 1;
nodes = (
(1950,-7,l),
(1950,14,l),
(1876,56,l),
(1876,-7,l)
);
},
{
closed = 0;
nodes = (
(1949,14,l),
(1879,54,l)
);
},
{
closed = 1;
nodes = (
(1880,-7,l),
(1880,503,l),
(1801,454,l),
(1801,-7,l)
);
},
{
closed = 1;
nodes = (
(1880,420,l),
(1880,503,l),
(1731,441,l),
(1731,420,l)
);
},
{
closed = 1;
nodes = (
(1896,410,o),
(1915,430,o),
(1940,436,cs),
(1949,438,o),
(1960,436,o),
(1973,432,cs),
(1976,431,o),
(1980,429,o),
(1980,429,c),
(1992,426,o),
(2005,422,o),
(2017,422,cs),
(2042,422,o),
(2061,441,o),
(2061,463,cs),
(2061,484,o),
(2042,503,o),
(2017,503,cs),
(1984,503,o),
(1957,491,o),
(1937,477,cs),
(1907,456,o),
(1891,434,o),
(1870,407,c),
(1870,384,l)
);
},
{
closed = 1;
nodes = (
(2354,-11,o),
(2408,30,o),
(2445,74,c),
(2425,91,l),
(2379,43,o),
(2316,31,o),
(2277,31,cs),
(2223,31,o),
(2138,50,o),
(2138,242,cs),
(2138,410,o),
(2188,463,o),
(2264,463,cs),
(2351,463,o),
(2374,412,o),
(2377,273,c),
(2455,273,l),
(2454,394,o),
(2392,502,o),
(2265,502,cs),
(2134,502,o),
(2052,383,o),
(2052,243,cs),
(2052,97,o),
(2146,-11,o),
(2277,-11,cs)
);
},
{
closed = 1;
nodes = (
(2392,273,l),
(2392,304,l),
(2128,304,l),
(2128,273,l)
);
}
);
width = 2495;
}
);
},
{
glyphname = adore.raw.001;
lastChange = "2025-03-18 18:09:52 +0000";
layers = (
{
layerId = m01;
shapes = (
{
closed = 1;
nodes = (
(362,1,l),
(398,1,o),
(416,-4,o),
(455,-4,c),
(476,-4,o),
(476,28,o),
(455,28,c),
(416,28,o),
(398,34,o),
(398,80,c),
(398,394,ls),
(398,475,o),
(304,505,o),
(241,505,cs),
(165,505,o),
(69,449,o),
(69,369,cs),
(69,344,o),
(85,329,o),
(109,329,cs),
(132,329,o),
(147,344,o),
(147,369,cs),
(147,381,o),
(139,389,o),
(139,401,cs),
(139,437,o),
(181,470,o),
(234,470,cs),
(288,470,o),
(323,445,o),
(323,383,cs),
(323,10,ls),
(323,4,o),
(327,0,o),
(333,0,cs)
);
},
{
closed = 1;
nodes = (
(337,109,l),
(273,59,o),
(222,35,o),
(187,32,cs),
(151,29,o),
(125,59,o),
(125,113,cs),
(125,169,o),
(151,199,o),
(193,225,cs),
(226,245,o),
(264,255,o),
(343,279,c),
(337,316,l),
(281,298,o),
(228,280,o),
(185,265,cs),
(100,236,o),
(43,183,o),
(43,96,cs),
(43,37,o),
(99,-16,o),
(155,-17,cs),
(232,-19,o),
(303,41,o),
(352,87,c)
);
},
{
closed = 0;
nodes = (
(228,244,l),
(231,237,o),
(227,252,o),
(229,245,cs)
);
},
{
closed = 1;
nodes = (
(872,376,l),
(872,149,l)
);
},
{
closed = 1;
nodes = (
(848,10,ls),
(848,4,o),
(852,0,o),
(858,0,cs),
(887,1,l),
(923,1,o),
(941,-4,o),
(980,-4,c),
(1001,-4,o),
(1001,28,o),
(980,28,c),
(941,28,o),
(923,34,o),
(923,80,c),
(923,652,l),
(923,686,o),
(923,715,o),
(923,736,c),
(923,749,o),
(917,752,o),
(907,752,c),
(892,752,o),
(876,739,o),
(859,726,c),
(836,708,o),
(804,705,o),
(793,705,c),
(782,705,o),
(776,696,o),
(776,689,c),
(776,683,o),
(782,674,o),
(793,674,c),
(832,674,o),
(848,663,o),
(848,627,c)
);
},
{
closed = 1;
nodes = (
(881,155,l),
(849,101,o),
(780,29,o),
(714,29,cs),
(626,29,o),
(578,96,o),
(578,249,cs),
(578,401,o),
(636,465,o),
(720,465,cs),
(785,465,o),
(838,420,o),
(874,326,c),
(902,340,l),
(868,412,o),
(821,504,o),
(721,504,cs),
(592,504,o),
(498,397,o),
(498,249,c),
(498,101,o),
(586,-10,o),
(715,-10,cs),
(780,-10,o),
(853,56,o),
(898,108,c)
);
},
{
closed = 1;
nodes = (
(1403,74,o),
(1336,25,o),
(1251,25,cs),
(1166,25,o),
(1099,74,o),
(1099,246,cs),
(1099,418,o),
(1166,467,o),
(1251,467,cs),
(1336,467,o),
(1403,418,o),
(1403,246,cs)
);
},
{
closed = 1;
nodes = (
(1019,99,o),
(1123,-14,o),
(1251,-14,cs),
(1379,-14,o),
(1483,99,o),
(1483,246,cs),
(1483,393,o),
(1379,506,o),
(1251,506,cs),
(1123,506,o),
(1019,393,o),
(1019,246,cs)
);
},
{
closed = 1;
nodes = (
(1585,80,l),
(1583,34,o),
(1566,28,o),
(1527,28,c),
(1507,28,o),
(1507,-4,o),
(1527,-4,c),
(1566,-4,o),
(1586,1,o),
(1620,1,c),
(1623,2,l),
(1659,1,o),
(1677,-3,o),
(1716,-3,c),
(1737,-3,o),
(1737,29,o),
(1716,29,c),
(1677,29,o),
(1659,35,o),
(1659,81,c),
(1659,404,l),
(1659,438,o),
(1659,467,o),
(1659,488,c),
(1659,501,o),
(1653,504,o),
(1643,504,c),
(1628,504,o),
(1612,491,o),
(1595,478,c),
(1572,460,o),
(1540,457,o),
(1529,457,c),
(1518,457,o),
(1512,448,o),
(1512,441,c),
(1512,435,o),
(1518,426,o),
(1529,426,c),
(1568,426,o),
(1584,415,o),
(1584,379,c)
);
},
{
closed = 1;
nodes = (
(1821,420,o),
(1840,439,o),
(1840,463,cs),
(1840,486,o),
(1821,505,o),
(1798,505,cs),
(1767,505,o),
(1739,492,o),
(1719,478,cs),
(1693,460,o),
(1676,438,o),
(1653,408,c),
(1653,386,l),
(1676,409,o),
(1693,427,o),
(1721,434,cs),
(1741,439,o),
(1772,421,o),
(1798,420,c)
);
},
{
closed = 1;
nodes = (
(2268,387,o),
(2205,497,o),
(2080,497,cs),
(1951,497,o),
(1869,378,o),
(1869,236,cs),
(1869,88,o),
(1963,-20,o),
(2092,-20,cs),
(2164,-20,o),
(2213,16,o),
(2254,60,cs),
(2270,77,o),
(2246,102,o),
(2231,84,cs),
(2189,34,o),
(2124,26,o),
(2092,26,c),
(2038,26,o),
(1951,44,o),
(1951,235,cs),
(1951,401,o),
(2001,454,o),
(2079,454,cs),
(2168,454,o),
(2191,405,o),
(2194,264,c),
(2268,264,l)
);
},
{
closed = 1;
nodes = (
(1945,264,l),
(2205,264,l),
(2205,299,l),
(1945,299,l)
);
}
);
width = 2362;
},
{
layerId = m002;
shapes = (
{
closed = 1;
nodes = (
(362,-6,ls),
(379,-6,o),
(394,-7,o),
(406,-8,cs),
(421,-10,o),
(436,-11,o),
(455,-11,cs),
(478,-11,o),
(479,35,o),
(455,35,cs),
(416,35,o),
(400,40,o),
(400,80,cs),
(400,394,ls),
(400,482,o),
(304,512,o),
(241,512,cs),
(165,512,o),
(67,455,o),
(67,369,cs),
(67,339,o),
(85,322,o),
(109,322,cs),
(132,322,o),
(149,339,o),
(149,369,cs),
(149,377,o),
(147,383,o),
(145,388,cs),
(143,393,o),
(141,397,o),
(141,401,cs),
(141,431,o),
(181,463,o),
(234,463,cs),
(288,463,o),
(321,440,o),
(321,383,cs),
(321,10,ls),
(321,2,o),
(326,-7,o),
(333,-7,cs)
);
},
{
closed = 1;
nodes = (
(337,115,l),
(274,66,o),
(222,42,o),
(187,39,cs),
(151,36,o),
(127,63,o),
(127,113,cs),
(127,165,o),
(150,192,o),
(194,219,cs),
(225,238,o),
(264,248,o),
(346,273,c),
(338,323,l),
(282,305,o),
(230,288,o),
(184,272,cs),
(100,243,o),
(41,188,o),
(41,96,cs),
(41,32,o),
(99,-23,o),
(155,-24,cs),
(233,-26,o),
(307,38,o),
(357,86,c)
);
},
{
closed = 0;
nodes = (
(226,241,l),
(232,227,o),
(232,242,o),
(231,247,c),
(230,249,o),
(226,246,o),
(227,243,c)
);
},
{
closed = 1;
nodes = (
(874,149,l),
(874,376,l),
(870,376,l),
(870,149,l)
);
},
{
closed = 1;
nodes = (
(846,10,ls),
(846,2,o),
(851,-7,o),
(858,-7,cs),
(887,-6,ls),
(904,-6,o),
(919,-7,o),
(931,-8,cs),
(946,-10,o),
(961,-11,o),
(980,-11,cs),
(1003,-11,o),
(1004,35,o),
(980,35,cs),
(941,35,o),
(925,40,o),
(925,80,cs),
(925,652,ls),
(925,686,o),
(925,715,o),
(925,736,cs),
(925,751,o),
(920,759,o),
(907,759,cs),
(893,759,o),
(876,746,o),
(858,732,cs),
(838,716,o),
(805,712,o),
(793,712,cs),
(780,712,o),
(774,698,o),
(774,689,cs),
(774,681,o),
(780,667,o),
(793,667,cs),
(832,667,o),
(846,657,o),
(846,627,cs)
);
},
{
closed = 1;
nodes = (
(881,162,l),
(852,111,o),
(782,36,o),
(714,36,cs),
(626,36,o),
(580,100,o),
(580,249,cs),
(580,397,o),
(636,458,o),
(720,458,cs),
(787,458,o),
(839,413,o),
(874,319,c),
(907,336,l),
(872,410,o),
(824,511,o),
(721,511,cs),
(592,511,o),
(496,401,o),
(496,249,cs),
(496,97,o),
(586,-17,o),
(715,-17,cs),
(780,-17,o),
(855,51,o),
(902,106,c)
);
},
{
closed = 1;
nodes = (
(1401,79,o),
(1337,32,o),
(1251,32,cs),
(1165,32,o),
(1101,79,o),
(1101,246,cs),
(1101,413,o),
(1165,460,o),
(1251,460,cs),
(1337,460,o),
(1401,413,o),
(1401,246,cs)
);
},
{
closed = 1;
nodes = (
(1017,94,o),
(1123,-21,o),
(1251,-21,cs),
(1379,-21,o),
(1485,94,o),
(1485,246,cs),
(1485,398,o),
(1379,513,o),
(1251,513,cs),
(1123,513,o),
(1017,398,o),
(1017,246,cs)
);
},
{
closed = 1;
nodes = (
(1583,80,l),
(1581,39,o),
(1566,35,o),
(1527,35,cs),
(1504,35,o),
(1505,-11,o),
(1527,-11,cs),
(1546,-11,o),
(1562,-10,o),
(1577,-8,cs),
(1590,-7,o),
(1604,-6,o),
(1620,-6,c),
(1623,-5,l),
(1638,-5,o),
(1651,-6,o),
(1663,-7,cs),
(1679,-9,o),
(1695,-10,o),
(1716,-10,cs),
(1739,-10,o),
(1740,36,o),
(1716,36,cs),
(1677,36,o),
(1661,41,o),
(1661,81,cs),
(1661,404,ls),
(1661,438,o),
(1661,467,o),
(1661,488,cs),
(1661,503,o),
(1656,511,o),
(1643,511,cs),
(1629,511,o),
(1612,498,o),
(1594,484,cs),
(1574,468,o),
(1541,464,o),
(1529,464,cs),
(1516,464,o),
(1510,450,o),
(1510,441,cs),
(1510,433,o),
(1516,419,o),
(1529,419,cs),
(1568,419,o),
(1582,409,o),
(1582,379,cs)
);
},
{
closed = 1;
nodes = (
(1820,413,o),
(1842,434,o),
(1842,463,cs),
(1842,491,o),
(1821,512,o),
(1798,512,cs),
(1768,512,o),
(1741,500,o),
(1718,484,cs),
(1693,467,o),
(1675,443,o),
(1651,412,c),
(1651,378,l),
(1673,400,o),
(1690,419,o),
(1721,427,cs),
(1733,430,o),
(1746,426,o),
(1762,421,cs),
(1773,418,o),
(1788,413,o),
(1798,413,cs)
);
},
{
closed = 1;
nodes = (
(2272,385,o),
(2207,504,o),
(2080,504,cs),
(1951,504,o),
(1867,382,o),
(1867,236,cs),
(1867,84,o),
(1963,-27,o),
(2092,-27,cs),
(2164,-27,o),
(2213,10,o),
(2255,55,cs),
(2271,72,o),
(2252,116,o),
(2229,88,cs),
(2191,43,o),
(2125,33,o),
(2092,33,cs),
(2037,33,o),
(1953,50,o),
(1953,235,cs),
(1953,397,o),
(2001,447,o),
(2079,447,cs),
(2169,447,o),
(2190,400,o),
(2192,257,c),
(2270,257,l)
);
},
{
closed = 1;
nodes = (
(1943,257,l),
(2207,257,l),
(2207,306,l),
(1943,306,l)
);
}
);
width = 2362;
}
);
},
